<?xml version="1.0" encoding="UTF-8"?>
<svg width="344px" height="207px" viewBox="0 0 344 207" version="1.1" xmlns="http://www.w3.org/2000/svg" xmlns:xlink="http://www.w3.org/1999/xlink">
    <!-- Generator: Sketch 52.2 (67145) - http://www.bohemiancoding.com/sketch -->
    <title>Dr.Tab-Illustration_Add New Patient</title>
    <desc>Created with Sketch.</desc>
    <defs>
        <linearGradient x1="10.9469925%" y1="-14.5802638%" x2="89.1377021%" y2="113.956625%" id="linearGradient-1">
            <stop stop-color="#FFFFFF" offset="14.32%"></stop>
            <stop stop-color="#FCFCFB" offset="52.29%"></stop>
            <stop stop-color="#F3F1F1" offset="86.1%"></stop>
            <stop stop-color="#EDEBEA" offset="99.6%"></stop>
        </linearGradient>
        <linearGradient x1="0.0266978923%" y1="49.9553398%" x2="99.961007%" y2="49.9553398%" id="linearGradient-2">
            <stop stop-color="#91D1FF" offset="0%"></stop>
            <stop stop-color="#79C7FF" offset="100%"></stop>
        </linearGradient>
        <linearGradient x1="0.0527700831%" y1="50.0764706%" x2="99.9803324%" y2="50.0764706%" id="linearGradient-3">
            <stop stop-color="#91D1FF" offset="0%"></stop>
            <stop stop-color="#79C7FF" offset="100%"></stop>
        </linearGradient>
        <linearGradient x1="0.0238557559%" y1="50%" x2="100.006796%" y2="50%" id="linearGradient-4">
            <stop stop-color="#91D1FF" offset="0%"></stop>
            <stop stop-color="#79C7FF" offset="100%"></stop>
        </linearGradient>
        <linearGradient x1="-0.00513176144%" y1="50%" x2="99.9778086%" y2="50%" id="linearGradient-5">
            <stop stop-color="#91D1FF" offset="0%"></stop>
            <stop stop-color="#79C7FF" offset="100%"></stop>
        </linearGradient>
        <linearGradient x1="-0.0341192788%" y1="50%" x2="99.9488211%" y2="50%" id="linearGradient-6">
            <stop stop-color="#91D1FF" offset="0%"></stop>
            <stop stop-color="#79C7FF" offset="100%"></stop>
        </linearGradient>
        <linearGradient x1="-0.0630555556%" y1="50%" x2="100.05875%" y2="50%" id="linearGradient-7">
            <stop stop-color="#91D1FF" offset="0%"></stop>
            <stop stop-color="#79C7FF" offset="100%"></stop>
        </linearGradient>
        <linearGradient x1="0.046740638%" y1="50%" x2="100.029681%" y2="50%" id="linearGradient-8">
            <stop stop-color="#91D1FF" offset="0%"></stop>
            <stop stop-color="#79C7FF" offset="100%"></stop>
        </linearGradient>
        <linearGradient x1="0.0177531207%" y1="50%" x2="100.000693%" y2="50%" id="linearGradient-9">
            <stop stop-color="#91D1FF" offset="0%"></stop>
            <stop stop-color="#79C7FF" offset="100%"></stop>
        </linearGradient>
        <linearGradient x1="-0.00996309963%" y1="50%" x2="100.057565%" y2="50%" id="linearGradient-10">
            <stop stop-color="#91D1FF" offset="0%"></stop>
            <stop stop-color="#79C7FF" offset="100%"></stop>
        </linearGradient>
        <linearGradient x1="-0.00518918919%" y1="49.8908333%" x2="100.018486%" y2="49.8908333%" id="linearGradient-11">
            <stop stop-color="#91D1FF" offset="0%"></stop>
            <stop stop-color="#79C7FF" offset="100%"></stop>
        </linearGradient>
        <linearGradient x1="-0.027622842%" y1="49.8227642%" x2="99.9952191%" y2="49.8227642%" id="linearGradient-12">
            <stop stop-color="#91D1FF" offset="0%"></stop>
            <stop stop-color="#79C7FF" offset="100%"></stop>
        </linearGradient>
        <linearGradient x1="0.0375165125%" y1="50%" x2="100.059974%" y2="50%" id="linearGradient-13">
            <stop stop-color="#91D1FF" offset="0%"></stop>
            <stop stop-color="#79C7FF" offset="100%"></stop>
        </linearGradient>
        <linearGradient x1="0.00990752972%" y1="50%" x2="100.032365%" y2="50%" id="linearGradient-14">
            <stop stop-color="#91D1FF" offset="0%"></stop>
            <stop stop-color="#79C7FF" offset="100%"></stop>
        </linearGradient>
        <linearGradient x1="-0.0177014531%" y1="50%" x2="100.004756%" y2="50%" id="linearGradient-15">
            <stop stop-color="#91D1FF" offset="0%"></stop>
            <stop stop-color="#79C7FF" offset="100%"></stop>
        </linearGradient>
        <linearGradient x1="-0.0453104359%" y1="50%" x2="100.030119%" y2="50%" id="linearGradient-16">
            <stop stop-color="#91D1FF" offset="0%"></stop>
            <stop stop-color="#79C7FF" offset="100%"></stop>
        </linearGradient>
        <linearGradient x1="0.0592348285%" y1="50%" x2="99.9497361%" y2="50%" id="linearGradient-17">
            <stop stop-color="#91D1FF" offset="0%"></stop>
            <stop stop-color="#79C7FF" offset="100%"></stop>
        </linearGradient>
        <linearGradient x1="0.0158102767%" y1="50.3824%" x2="99.9732543%" y2="50.3824%" id="linearGradient-18">
            <stop stop-color="#91D1FF" offset="0%"></stop>
            <stop stop-color="#79C7FF" offset="100%"></stop>
        </linearGradient>
        <linearGradient x1="0.0175365344%" y1="49.7858407%" x2="100.018163%" y2="49.7858407%" id="linearGradient-19">
            <stop stop-color="#91D1FF" offset="0%"></stop>
            <stop stop-color="#79C7FF" offset="100%"></stop>
        </linearGradient>
        <linearGradient x1="0.0525537634%" y1="50.0140351%" x2="99.9686828%" y2="50.0140351%" id="linearGradient-20">
            <stop stop-color="#91D1FF" offset="0%"></stop>
            <stop stop-color="#79C7FF" offset="100%"></stop>
        </linearGradient>
        <linearGradient x1="-0.0293800539%" y1="50.1363636%" x2="99.9671159%" y2="50.1363636%" id="linearGradient-21">
            <stop stop-color="#91D1FF" offset="0%"></stop>
            <stop stop-color="#79C7FF" offset="100%"></stop>
        </linearGradient>
        <linearGradient x1="0.0224383302%" y1="50.3191667%" x2="99.9954934%" y2="50.3191667%" id="linearGradient-22">
            <stop stop-color="#91D1FF" offset="0%"></stop>
            <stop stop-color="#79C7FF" offset="100%"></stop>
        </linearGradient>
        <linearGradient x1="-0.0202380952%" y1="50%" x2="100.055026%" y2="50%" id="linearGradient-23">
            <stop stop-color="#91D1FF" offset="0%"></stop>
            <stop stop-color="#79C7FF" offset="100%"></stop>
        </linearGradient>
        <linearGradient x1="-0.0597359736%" y1="50.0312%" x2="100.069637%" y2="50.0312%" id="linearGradient-24">
            <stop stop-color="#91D1FF" offset="0%"></stop>
            <stop stop-color="#79C7FF" offset="100%"></stop>
        </linearGradient>
        <linearGradient x1="-0.0295308188%" y1="50.3546154%" x2="99.9862925%" y2="50.3546154%" id="linearGradient-25">
            <stop stop-color="#91D1FF" offset="0%"></stop>
            <stop stop-color="#79C7FF" offset="100%"></stop>
        </linearGradient>
        <linearGradient x1="-0.00911179173%" y1="50.1333333%" x2="99.9877871%" y2="50.1333333%" id="linearGradient-26">
            <stop stop-color="#3E8BCA" offset="0%"></stop>
            <stop stop-color="#3E8BCA" offset="94.49%"></stop>
            <stop stop-color="#3E8BCA" offset="100%"></stop>
        </linearGradient>
        <linearGradient x1="0%" y1="49.9714674%" x2="100%" y2="49.9714674%" id="linearGradient-27">
            <stop stop-color="#3E8BCA" offset="0%"></stop>
            <stop stop-color="#3E8BCA" offset="94.49%"></stop>
            <stop stop-color="#3E8BCA" offset="100%"></stop>
        </linearGradient>
        <linearGradient x1="11.5274187%" y1="22.2898372%" x2="101.993069%" y2="59.5786964%" id="linearGradient-28">
            <stop stop-color="#D1A01D" offset="0%"></stop>
            <stop stop-color="#EAB114" stop-opacity="0.8" offset="12.22%"></stop>
            <stop stop-color="#EAB114" stop-opacity="0.4" offset="29.96%"></stop>
            <stop stop-color="#FECE00" stop-opacity="0" offset="88.16%"></stop>
        </linearGradient>
        <linearGradient x1="-0.013204998%" y1="49.9801724%" x2="100.000361%" y2="49.9801724%" id="linearGradient-29">
            <stop stop-color="#F0D5AD" offset="0%"></stop>
            <stop stop-color="#C9A576" offset="72.54%"></stop>
        </linearGradient>
        <linearGradient x1="15.0441126%" y1="18.7699002%" x2="79.2838724%" y2="90.2490083%" id="linearGradient-30">
            <stop stop-color="#F0D5AD" offset="0%"></stop>
            <stop stop-color="#C9A576" offset="72.54%"></stop>
        </linearGradient>
    </defs>
    <g id="Symbols" stroke="none" stroke-width="1" fill="none" fill-rule="evenodd">
        <g id="Patients-/-Add-New-Patients" transform="translate(-71.000000, -43.000000)">
            <g id="Rectangle">
                <g id="Dr.Tab-Illustration_Add-New-Patient-2">
                    <g>
                        <g id="Dr.Tab-Illustration_Add-New-Patient">
                            <rect id="Rectangle" x="0" y="0" width="485" height="250"></rect>
                            <g id="Group" transform="translate(71.000000, 46.000000)">
                                <g>
                                    <polygon id="Path" fill="#68A8F9" points="218.766667 129.310099 6.43333333 133.526733 6.96666667 138.680396 52.9333333 168.698812 280.8 168.06297 280.7 159.696634"></polygon>
                                    <g>
                                        <path d="M216.7,126.06396 C216.733333,129.042376 214.366667,131.485347 211.4,131.518812 L11.8333333,133.459802 C8.86666667,133.493267 6.4,131.083762 6.3,128.105347 L3.43333333,9.97267327 C3.36666667,6.99425743 5.73333333,4.55128713 8.7,4.51782178 L209.333333,3.21267327 C212.3,3.17920792 214.766667,5.62217822 214.8,8.60059406 L216.7,126.06396 Z" id="Path" fill="url(#linearGradient-1)"></path>
                                        <path d="M11.7666667,136.63901 C7.1,136.63901 3.23333333,132.857426 3.13333333,128.172277 L0.266666667,10.039604 C0.2,7.73049505 1.06666667,5.55524752 2.63333333,3.91544554 C4.2,2.27564356 6.36666667,1.33861386 8.66666667,1.33861386 L209.3,0.0334653465 C209.333333,0.0334653465 209.333333,0.0334653465 209.366667,0.0334653465 C214.033333,0.0334653465 217.9,3.84851485 217.966667,8.53366337 L219.866667,125.99703 C219.9,128.272673 219.033333,130.447921 217.433333,132.087723 C215.833333,133.727525 213.7,134.664554 211.4,134.664554 L11.8333333,136.605545 C11.8333333,136.63901 11.8,136.63901 11.7666667,136.63901 Z M209.366667,6.42534653 C209.366667,6.42534653 209.366667,6.42534653 209.366667,6.42534653 L8.7,7.73049505 C8.13333333,7.73049505 7.6,7.96475248 7.2,8.36633663 C6.8,8.76792079 6.6,9.33683168 6.6,9.90574257 L9.46666667,128.038416 C9.5,129.276634 10.5333333,130.280594 11.7666667,130.280594 C11.7666667,130.280594 11.7666667,130.280594 11.8,130.280594 L211.366667,128.339604 C211.933333,128.339604 212.5,128.105347 212.9,127.670297 C213.3,127.235248 213.533333,126.699802 213.533333,126.097426 L211.633333,8.63405941 C211.633333,7.42930693 210.6,6.42534653 209.366667,6.42534653 Z" id="Shape" fill="#68A8F9" fill-rule="nonzero"></path>
                                    </g>
                                    <g transform="translate(12.666667, 133.526733)" id="Path">
                                        <polygon fill="url(#linearGradient-2)" points="28.4666667 3.44693069 6.43333333 3.44693069 0 0 22.2 0"></polygon>
                                        <polygon fill="url(#linearGradient-3)" points="51.1 3.41346535 33.2333333 3.38 27.0333333 0 44.9333333 0"></polygon>
                                        <polygon fill="url(#linearGradient-4)" points="73.7333333 3.51386139 55.8666667 3.68118812 55.8666667 3.68118812 49.7 0 67.6 0"></polygon>
                                        <polygon fill="url(#linearGradient-5)" points="96.4 3.68118812 78.5333333 3.68118812 72.3666667 0 90.2333333 0"></polygon>
                                        <polygon fill="url(#linearGradient-6)" points="119.066667 3.68118812 101.166667 3.68118812 95.0333333 0 112.9 0"></polygon>
                                        <polygon fill="url(#linearGradient-7)" points="141.7 3.68118812 123.833333 3.68118812 117.7 0 135.566667 0"></polygon>
                                        <polygon fill="url(#linearGradient-8)" points="164.366667 3.68118812 146.5 3.68118812 140.333333 0 158.233333 0"></polygon>
                                        <polygon fill="url(#linearGradient-9)" points="187.033333 3.68118812 169.166667 3.68118812 163 0 180.9 0"></polygon>
                                        <polygon fill="url(#linearGradient-10)" points="212.766667 3.68118812 191.833333 3.68118812 185.666667 0 205.8 0"></polygon>
                                        <polygon fill="url(#linearGradient-11)" points="38.9666667 9.30336634 15.4 9.26990099 8.13333333 5.28752475 31.5666667 5.35445545 31.5666667 5.35445545"></polygon>
                                        <polygon fill="url(#linearGradient-12)" points="61.4666667 9.37029703 43.7666667 9.37029703 36.3666667 5.35445545 36.3666667 5.35445545 36.3666667 5.35445545 54.1333333 5.25405941 54.1333333 5.3209901"></polygon>
                                        <polygon fill="url(#linearGradient-13)" points="84.1666667 9.37029703 66.2666667 9.37029703 58.9333333 5.35445545 76.8 5.35445545"></polygon>
                                        <polygon fill="url(#linearGradient-14)" points="106.833333 9.37029703 89 9.37029703 81.6 5.35445545 99.4666667 5.35445545"></polygon>
                                        <polygon fill="url(#linearGradient-15)" points="129.5 9.37029703 111.633333 9.37029703 104.266667 5.35445545 122.133333 5.35445545"></polygon>
                                        <polygon fill="url(#linearGradient-16)" points="152.166667 9.37029703 134.3 9.37029703 126.933333 5.35445545 144.8 5.35445545"></polygon>
                                        <polygon fill="url(#linearGradient-17)" points="174.833333 9.37029703 156.966667 9.37029703 149.566667 5.35445545 167.433333 5.35445545"></polygon>
                                        <polygon fill="url(#linearGradient-18)" points="222.833333 8.96871287 179.633333 9.1360396 172.233333 5.15366337 215.433333 4.95287129"></polygon>
                                        <polygon fill="url(#linearGradient-19)" points="49.3333333 14.8586139 25.0333333 14.7916832 17.4 11.0770297 42.4 11.0770297"></polygon>
                                        <polygon fill="url(#linearGradient-20)" points="72.0666667 14.8586139 54.2333333 14.8251485 54.2 14.8586139 47.2666667 11.0770297 65 11.0435644 65.1 11.0435644 65.1 11.0435644"></polygon>
                                        <polygon fill="url(#linearGradient-21)" points="94.6666667 14.7247525 77.1333333 14.7247525 76.9666667 14.7247525 69.9333333 11.0435644 87.8 11.0435644 87.8666667 11.0435644"></polygon>
                                        <polygon fill="url(#linearGradient-22)" points="162.933333 14.9255446 99.7333333 14.7247525 99.4666667 14.7247525 92.6666667 11.110495 155.566667 10.909703"></polygon>
                                        <polygon fill="url(#linearGradient-23)" points="185.866667 15.0594059 168.033333 15.0594059 160.666667 11.0435644 178.5 11.0435644"></polygon>
                                        <polygon fill="url(#linearGradient-24)" points="203.533333 15.3271287 190.7 15.159802 183.333333 11.1439604 196.166667 11.3112871"></polygon>
                                        <polygon fill="url(#linearGradient-25)" points="236.233333 15.2936634 207.7 15.3605941 200 11.010099 227.133333 11.1774257"></polygon>
                                    </g>
                                    <g transform="translate(24.000000, 40.493069)">
                                        <g>
                                            <path d="M108.066667,63.9188119 C108.066667,65.5586139 106.733333,66.9306931 105.1,66.9641584 L4.9,67.9011881 C3.26666667,67.9011881 1.86666667,66.5625743 1.86666667,64.9227723 L0.933333333,5.15366337 C0.9,3.51386139 2.23333333,2.14178218 3.9,2.10831683 L104.766667,1.17128713 C106.4,1.17128713 107.766667,2.50990099 107.766667,4.14970297 L108.066667,63.9188119 Z" id="Path" fill="#FFFFFF"></path>
                                            <path d="M4.86666667,68.7378218 C2.76666667,68.7378218 1.03333333,67.0310891 1,64.9227723 L0.0666666667,5.15366337 C0.0666666667,4.11623762 0.433333333,3.14574257 1.16666667,2.40950495 C1.86666667,1.67326733 2.83333333,1.27168317 3.86666667,1.23821782 L104.733333,0.301188119 C104.733333,0.301188119 104.766667,0.301188119 104.766667,0.301188119 C105.766667,0.301188119 106.733333,0.702772277 107.433333,1.40554455 C108.166667,2.14178218 108.566667,3.07881188 108.566667,4.11623762 L108.9,63.8853465 C108.9,65.9936634 107.2,67.7338614 105.1,67.7673267 L4.9,68.7043564 C4.9,68.7378218 4.86666667,68.7378218 4.86666667,68.7378218 Z M104.766667,2.00792079 C104.733333,2.00792079 104.733333,2.00792079 104.766667,2.00792079 L3.86666667,2.9449505 C3.3,2.9449505 2.76666667,3.17920792 2.36666667,3.58079208 C1.96666667,3.98237624 1.73333333,4.55128713 1.76666667,5.12019802 L2.7,64.8893069 C2.73333333,66.0940594 3.7,67.0645545 4.9,67.0645545 C4.9,67.0645545 4.9,67.0645545 4.93333333,67.0645545 L105.133333,66.1275248 C106.333333,66.1275248 107.3,65.1235644 107.3,63.9188119 L106.966667,4.14970297 C106.966667,3.58079208 106.733333,3.04534653 106.333333,2.61029703 C105.866667,2.24217822 105.333333,2.00792079 104.766667,2.00792079 Z" id="Shape" fill="#68A8F9" fill-rule="nonzero"></path>
                                        </g>
                                        <polygon id="Path" fill="#68A8F9" points="107.733333 10.4077228 1.7 11.4116832 1.7 2.84455446 107.733333 1.84059406"></polygon>
                                    </g>
                                    <polygon id="Path" fill="#F2F1F1" points="84.2333333 80.7518812 31.8333333 81.4211881 31.8333333 57.0918812 84.2333333 56.4225743"></polygon>
                                    <polygon id="Path" fill="#F2F1F1" points="84.2333333 90.389901 31.8333333 90.7245545 31.7333333 85.8386139 84.1333333 85.5039604"></polygon>
                                    <polygon id="Path" fill="#F2F1F1" points="84.2333333 98.5219802 31.8333333 98.8566337 31.7333333 93.9372277 84.1333333 93.6025743"></polygon>
                                </g>
                                <path d="M111.2,151.59802 C121.966667,151.59802 160.366667,151.59802 180.966667,151.59802 L198.266667,160.700594 L126.466667,161.035248 L111.2,151.59802 Z" id="Path" fill="url(#linearGradient-26)"></path>
                            </g>
                            <circle id="Oval" fill-opacity="0.33" fill="#FFDE8D" style="mix-blend-mode: multiply;" cx="186" cy="135" r="24"></circle>
                            <path d="M76,179 L76,184.563406 L124.308323,216 L352,215.363225 L352,210.168478 L125.273824,211.207428 L78.9297949,181.61413 C78.9297949,181.61413 77.7645356,180.943841 77.2651387,180.474638 C76.6325694,179.837862 76,179 76,179 Z" id="Path" fill="url(#linearGradient-27)"></path>
                            <circle id="Oval" fill="#FECE00" cx="186" cy="135" r="13"></circle>
                            <circle id="Oval" fill="#FAB716" cx="186.5" cy="134.5" r="6.5"></circle>
                            <path d="M350,44 C350,44 235.266667,43.0970747 199,112.366119 C198.8,112.767678 196.6,105.204971 196.6,105.204971 C196.6,105.204971 188.733333,120.932725 186,135.589653 L211.8,126.55456 C211.8,126.55456 205.166667,121.735844 205.566667,121.501601 C285.266667,70.3027427 332.8,150.280044 338.8,164 L350,44 Z" id="Path" fill="url(#linearGradient-28)"></path>
                            <path d="M263,215 L181.139455,215.234674 C180.707034,215.368774 180.34114,227.907088 195.442585,228.007663 C195.442585,228.007663 191.916697,262.873563 183.368082,284.597701 L235.823982,285 C235.823982,285 242.243759,255.028736 244.439124,229.181034 C251.158269,229.382184 263.033193,226.800766 263,215 Z" id="Path" fill="url(#linearGradient-29)"></path>
                            <g id="Group" transform="translate(330.000000, 43.000000)">
                                <g>
                                    <path d="M83.4,92.2131488 C83.4,93.5086505 82.3333333,94.5384083 81.0666667,94.5384083 L3.76666667,94.5384083 C2.46666667,94.5384083 1.43333333,93.4754325 1.43333333,92.2131488 L1.43333333,3.88650519 C1.43333333,2.59100346 2.5,1.56124567 3.76666667,1.56124567 L81.0666667,1.56124567 C82.3666667,1.56124567 83.4,2.62422145 83.4,3.88650519 L83.4,92.2131488 Z" id="Path" fill="#FFFFFF"></path>
                                    <path d="M81.0333333,95.867128 L3.73333333,95.867128 C1.7,95.867128 0.0666666667,94.2394464 0.0666666667,92.2131488 L0.0666666667,3.88650519 C0.0666666667,1.86020761 1.7,0.232525952 3.73333333,0.232525952 L81.0333333,0.232525952 C83.0666667,0.232525952 84.7,1.86020761 84.7,3.88650519 L84.7,92.2131488 C84.7333333,94.2394464 83.0666667,95.867128 81.0333333,95.867128 Z M3.73333333,2.8899654 C3.16666667,2.8899654 2.73333333,3.3550173 2.73333333,3.88650519 L2.73333333,92.2131488 C2.73333333,92.7778547 3.2,93.2096886 3.73333333,93.2096886 L81.0333333,93.2096886 C81.6,93.2096886 82.0333333,92.7446367 82.0333333,92.2131488 L82.0333333,3.88650519 C82.0333333,3.32179931 81.5666667,2.8899654 81.0333333,2.8899654 L3.73333333,2.8899654 Z" id="Shape" fill="#68A8F9" fill-rule="nonzero"></path>
                                </g>
                                <rect id="Rectangle" fill="#68A8F9" x="1.4" y="1.56124567" width="82" height="11.7259516"></rect>
                            </g>
                            <g id="Group" transform="translate(381.000000, 71.000000)" fill="#E3E0E0">
                                <rect id="Rectangle" x="0.0333333333" y="0" width="22.9" height="3.83333333"></rect>
                                <rect id="Rectangle" x="0.0333333333" y="7.7" width="22.9" height="3.83333333"></rect>
                                <rect id="Rectangle" x="0.0333333333" y="15.4" width="22.9" height="3.83333333"></rect>
                                <rect id="Rectangle" x="0.0333333333" y="23.0666667" width="22.9" height="3.83333333"></rect>
                            </g>
                            <g id="Group" transform="translate(341.000000, 106.000000)" fill="#E3E0E0">
                                <rect id="Rectangle" x="0.198947368" y="0.305084746" width="62.7678947" height="3.89830508"></rect>
                                <rect id="Rectangle" x="0.198947368" y="8.10169492" width="62.7678947" height="3.89830508"></rect>
                                <rect id="Rectangle" x="0.198947368" y="15.9322034" width="51.3615789" height="3.89830508"></rect>
                            </g>
                            <circle id="Oval" fill="#FECE00" opacity="0.43" cx="389" cy="112" r="12"></circle>
                            <g id="Group" transform="translate(313.000000, 105.000000)">
                                <path d="M94.0532423,94.5542744 C96.1938567,89.1769384 99.8730375,80.893837 96.5952218,77.8878728 C93.61843,75.1491054 90.1733788,76.6854871 90.1733788,76.6854871 L89.0361775,74.5479125 C89.0361775,74.5479125 91.3774744,69.2039761 87.7651877,65.3964215 C85.3904437,62.9248509 80.3733788,63.926839 80.3733788,63.926839 L78.9686007,63.0918489 C78.9686007,63.0918489 80.1726962,55.0759443 75.8914676,51.7693837 C71.4764505,48.3626243 65.6566553,51.4353877 65.6566553,51.4353877 L63.3488055,50.733996 C63.3488055,50.733996 72.2457338,29.8258449 76.5938567,22.1105368 C78.2662116,19.1379722 82.0122867,11.7232604 82.9488055,6.88031809 C83.5174061,4.10815109 82.6477816,3.13956262 79.5037543,1.70337972 C76.3262799,0.267196819 73.9515358,-0.100198807 72.2457338,2.57176938 C70.4395904,5.41073559 68.2320819,9.51888668 66.1918089,14.027833 C64.7201365,17.300994 62.7467577,19.5387674 57.9303754,28.4230616 C51.374744,40.4803181 43.3139932,53.172167 39.868942,60.4198807 C39.6682594,60.8540755 39.3003413,61.154672 38.865529,61.32167 C35.4204778,62.5574553 28.9317406,65.2628231 26.0887372,69.5045726 C20.4696246,77.8544732 21.2389078,94.8882704 24.8511945,102.403181 C28.3296928,109.684294 27.7276451,111.72167 25.2191126,118.301392 C25.1856655,118.368191 24.6170648,119.937972 24.5836177,120.004771 C23.2457338,122.576541 11.1713311,142.415905 0.401365188,159.817097 C-0.267576792,160.919284 0.401365188,162.322068 1.70580205,162.489066 L45.8559727,167.666004 C46.5918089,167.766203 47.3276451,167.365408 47.662116,166.664016 C50.2709898,161.119682 56.6928328,143.184095 62.9808874,131.360636 C64.4860068,128.55507 66.7604096,126.751491 68.8006826,125.615905 C81.7447099,118.46839 90.5412969,103.33837 94.0532423,94.5542744 Z" id="Path" fill="url(#linearGradient-30)"></path>
                                <path d="M81.109215,8.91769384 C81.5440273,7.78210736 82.0122867,6.64652087 82.3133106,5.44413519 C82.3802048,5.21033797 82.447099,4.97654076 82.4805461,4.70934394 C82.5139932,4.50894632 82.5139932,4.34194831 82.5139932,4.1415507 C82.5474403,3.44015905 82.2464164,2.8389662 81.6443686,2.33797217 C81.1426621,1.90377734 80.5740614,1.56978131 79.9720137,1.23578529 C79.403413,0.901789264 78.8013652,0.601192843 78.1658703,0.367395626 C77.9317406,0.267196819 77.6641638,0.200397614 77.396587,0.166998012 C76.6607509,0.0667992048 76.025256,0.200397614 75.5235495,0.667992048 C75.356314,0.801590457 75.2225256,0.968588469 75.0552901,1.13558648 C73.9180887,2.772167 72.8143345,4.40874751 71.8109215,6.11212724 C71.3761092,6.88031809 70.9412969,7.64850895 70.6737201,8.48349901 C70.4061433,9.31848907 70.305802,10.1534791 70.5399317,11.0552684 C70.7071672,11.75666 71.1085324,12.3912525 71.7105802,12.8922465 C72.8812287,13.860835 74.1856655,14.4620278 75.7242321,14.528827 C77.396587,14.5956262 78.6341297,13.9944334 79.3699659,12.6584493 C80.0723549,11.4894632 80.6075085,10.2202783 81.109215,8.91769384 Z" id="Path" fill="#FDE0D5"></path>
                            </g>
                            <g id="Group" transform="translate(345.000000, 70.000000)" fill="#D7D3D3">
                                <ellipse id="Oval" cx="15.1348315" cy="7.43333333" rx="7.28089888" ry="7.2"></ellipse>
                                <path d="M15.1348315,18.8 C6.16853933,18.8 0.303370787,25.1666667 0.303370787,30 L29.9662921,30 C29.9662921,25.1666667 24.6067416,18.8 15.1348315,18.8 Z" id="Path"></path>
                            </g>
                        </g>
                    </g>
                </g>
            </g>
        </g>
    </g>
</svg>