<?xml version="1.0" encoding="UTF-8"?>
<svg width="104px" height="104px" viewBox="0 0 104 104" version="1.1" xmlns="http://www.w3.org/2000/svg" xmlns:xlink="http://www.w3.org/1999/xlink">
    <!-- Generator: Sketch 56.3 (81716) - https://sketch.com -->
    <title>Icon/Confetti</title>
    <desc>Created with Sketch.</desc>
    <defs>
        <linearGradient x1="-1.11022302e-14%" y1="50%" x2="100%" y2="50%" id="linearGradient-1">
            <stop stop-color="#FCF49F" offset="0%"></stop>
            <stop stop-color="#DBC44B" offset="100%"></stop>
        </linearGradient>
        <path d="M51.6098436,17.1395229 C38.2381395,3.76954402 23.5760169,-3.24667586 18.8594334,1.46818249 C18.3418858,2.01031357 17.9610571,2.66781463 17.7484313,3.38655882 L17.6725243,3.31065184 L13.1681353,21.7698485 L8.68272304,40.17384 L3.36578436,61.966043 L0,75.7673115 L19.9273066,68.2266434 L45.2733362,58.6364869 L65.4939197,50.9854087 L65.4697674,50.9612565 C66.1466765,50.745396 66.7660085,50.3792311 67.2811839,49.889933 C71.9977674,45.1733495 64.9815476,30.5112269 51.6098436,17.1395229 Z" id="path-2"></path>
        <linearGradient x1="-1.11022302e-14%" y1="50%" x2="100%" y2="50%" id="linearGradient-4">
            <stop stop-color="#E7DE7F" offset="0%"></stop>
            <stop stop-color="#B59F2D" offset="100%"></stop>
        </linearGradient>
        <linearGradient x1="100%" y1="50%" x2="-2.22044605e-14%" y2="50%" id="linearGradient-5">
            <stop stop-color="#FCF49F" offset="0%"></stop>
            <stop stop-color="#DBC44B" offset="100%"></stop>
        </linearGradient>
        <linearGradient x1="-1.11022302e-14%" y1="50%" x2="100%" y2="50%" id="linearGradient-6">
            <stop stop-color="#FCF49F" offset="0%"></stop>
            <stop stop-color="#DBC44B" offset="100%"></stop>
        </linearGradient>
        <linearGradient x1="-1.11022302e-14%" y1="50%" x2="100%" y2="50%" id="linearGradient-7">
            <stop stop-color="#FCF49F" offset="0%"></stop>
            <stop stop-color="#DBC44B" offset="100%"></stop>
        </linearGradient>
        <linearGradient x1="-1.11022302e-14%" y1="50%" x2="100%" y2="50%" id="linearGradient-8">
            <stop stop-color="#FCF49F" offset="0%"></stop>
            <stop stop-color="#DBC44B" offset="100%"></stop>
        </linearGradient>
        <linearGradient x1="-1.11022302e-14%" y1="50%" x2="100%" y2="50%" id="linearGradient-9">
            <stop stop-color="#FCF49F" offset="0%"></stop>
            <stop stop-color="#DBC44B" offset="100%"></stop>
        </linearGradient>
        <linearGradient x1="-1.11022302e-14%" y1="50%" x2="100%" y2="50%" id="linearGradient-10">
            <stop stop-color="#FCF49F" offset="0%"></stop>
            <stop stop-color="#DBC44B" offset="100%"></stop>
        </linearGradient>
        <linearGradient x1="-1.11022302e-14%" y1="50%" x2="100%" y2="50%" id="linearGradient-11">
            <stop stop-color="#FCF49F" offset="0%"></stop>
            <stop stop-color="#DBC44B" offset="100%"></stop>
        </linearGradient>
        <linearGradient x1="-1.11022302e-14%" y1="50%" x2="100%" y2="50%" id="linearGradient-12">
            <stop stop-color="#FCF49F" offset="0%"></stop>
            <stop stop-color="#DBC44B" offset="100%"></stop>
        </linearGradient>
        <linearGradient x1="-1.11022302e-14%" y1="50%" x2="100%" y2="50%" id="linearGradient-13">
            <stop stop-color="#FCF49F" offset="0%"></stop>
            <stop stop-color="#DBC44B" offset="100%"></stop>
        </linearGradient>
        <linearGradient x1="-1.11022302e-14%" y1="50%" x2="100%" y2="50%" id="linearGradient-14">
            <stop stop-color="#FCF49F" offset="0%"></stop>
            <stop stop-color="#DBC44B" offset="100%"></stop>
        </linearGradient>
        <linearGradient x1="-1.11022302e-14%" y1="50%" x2="100%" y2="50%" id="linearGradient-15">
            <stop stop-color="#FCF49F" offset="0%"></stop>
            <stop stop-color="#DBC44B" offset="100%"></stop>
        </linearGradient>
        <linearGradient x1="-1.11022302e-14%" y1="50%" x2="100%" y2="50%" id="linearGradient-16">
            <stop stop-color="#FCF49F" offset="0%"></stop>
            <stop stop-color="#DBC44B" offset="100%"></stop>
        </linearGradient>
        <linearGradient x1="-1.11022302e-14%" y1="50%" x2="100%" y2="50%" id="linearGradient-17">
            <stop stop-color="#FCF49F" offset="0%"></stop>
            <stop stop-color="#DBC44B" offset="100%"></stop>
        </linearGradient>
    </defs>
    <g id="Icon/Confetti" stroke="none" stroke-width="1" fill="none" fill-rule="evenodd">
        <g id="864763" transform="translate(1.000000, 0.000000)">
            <g id="Oval-+-Path-Mask" transform="translate(0.020055, 25.877306)">
                <mask id="mask-3" fill="white">
                    <use xlink:href="#path-2"></use>
                </mask>
                <use id="Mask" fill="url(#linearGradient-1)" fill-rule="nonzero" xlink:href="#path-2"></use>
                <ellipse id="Oval" fill="url(#linearGradient-4)" fill-rule="nonzero" mask="url(#mask-3)" transform="translate(43.070719, 25.673173) rotate(-135.000000) translate(-43.070719, -25.673173) " cx="43.0707194" cy="25.6731726" rx="34.2391093" ry="12.0759941"></ellipse>
                <path d="M13.6943087,24.1522924 C13.5010909,23.4139246 13.3285751,22.6686561 13.1681353,21.9095863 L8.68272304,40.3135778 L9.02775476,44.5212396 C9.77970825,53.4918485 13.6332812,61.9201106 19.9255814,68.3577554 L45.2733362,58.7762248 C45.1353235,58.7330958 44.9921353,58.702043 44.8541226,58.6554637 C29.4840381,52.8923559 17.8666047,40.0282797 13.6943087,24.1522924 Z" id="Path" fill="url(#linearGradient-5)" fill-rule="nonzero" mask="url(#mask-3)"></path>
            </g>
            <g id="Group" transform="translate(31.484144, 10.135307)" fill-rule="nonzero">
                <path d="M53.0686808,53.6955603 C52.862093,53.6949133 52.6572304,53.6580381 52.4631501,53.5868753 C43.705167,50.3058393 34.2381438,49.3858985 25.0124271,50.9197801 L18.8501607,51.9462495 C17.9069302,52.0808118 17.0331374,51.4252516 16.8985751,50.4820211 C16.7685412,49.5707061 17.3768753,48.7178309 18.2808584,48.5442368 L24.4448499,47.5091416 C34.268334,45.876926 44.3482199,46.8557378 53.6742114,50.3470275 C54.5708626,50.6692008 55.0364397,51.6572854 54.7142664,52.5539366 C54.4654123,53.2465877 53.8046765,53.7050486 53.0686808,53.6955603 Z" id="Path" fill="url(#linearGradient-6)"></path>
                <path d="M22.0158266,43.344648 C21.0631078,43.3390021 20.2951966,42.5620338 20.3007729,41.609315 C20.304685,40.9515983 20.6820634,40.3533996 21.2740085,40.0668076 L57.5023383,22.815222 C58.3627611,22.4054968 59.3922495,22.7707992 59.8019746,23.631222 C60.2116998,24.4916448 59.8463975,25.5211332 58.9859746,25.9308584 L58.9859746,25.9308584 L22.7576448,43.182444 C22.525611,43.2909133 22.2722283,43.346334 22.0158266,43.344648 Z" id="Path" fill="url(#linearGradient-7)"></path>
                <path d="M1.84182241,39.8942948 C1.61431712,39.894723 1.38896829,39.8496533 1.17936152,39.7614545 C0.299961945,39.3946427 -0.115585624,38.3845624 0.251226216,37.5051628 C0.251226216,37.5051628 0.251226216,37.5049471 0.251226216,37.5049471 L2.75960677,31.4858689 C6.61900211,22.2638182 7.51888795,12.0707188 5.3352685,2.31516279 C5.11142918,1.38896829 5.68094715,0.456951374 6.606926,0.233112051 C7.53312051,0.00927272727 8.46513742,0.578790698 8.68897674,1.50476956 C8.69393658,1.52525581 8.69846512,1.54574207 8.70277801,1.56644397 C11.042093,12.0168076 10.0775137,22.9357674 5.94252431,32.814241 L3.4324186,38.8333192 C3.16458774,39.4752939 2.5374926,39.8936448 1.84182241,39.8942948 L1.84182241,39.8942948 Z" id="Path" fill="url(#linearGradient-8)"></path>
            </g>
            <circle id="Oval" fill="url(#linearGradient-9)" fill-rule="nonzero" cx="93.1786173" cy="67.2811839" r="3.45031712"></circle>
            <circle id="Oval" fill="url(#linearGradient-9)" fill-rule="nonzero" cx="51.7748118" cy="18.9767442" r="3.45031712"></circle>
            <path d="M36.2483848,6.90063425 C34.3427315,6.90063425 32.7980677,5.3559704 32.7980677,3.45031712 C32.7980677,1.54466385 34.3427315,0 36.2483848,0 C38.1540381,0 39.6987019,1.54466385 39.6987019,3.45031712 C39.6987019,5.3559704 38.1540381,6.90063425 36.2483848,6.90063425 Z" id="Path" fill="url(#linearGradient-9)" fill-rule="nonzero"></path>
            <g id="Group" transform="translate(77.632135, 0.000000)" fill-rule="nonzero">
                <path d="M6.92068922,13.8012685 C5.9679704,13.8012685 5.19553066,13.0288288 5.19553066,12.0761099 L5.19553066,10.3509514 C5.19553066,9.39823256 5.9679704,8.62579281 6.92068922,8.62579281 C7.87340803,8.62579281 8.64584778,9.39823256 8.64584778,10.3509514 L8.64584778,12.0761099 C8.64584778,13.0288288 7.87362368,13.8012685 6.92068922,13.8012685 Z" id="Path" fill="url(#linearGradient-10)"></path>
                <path d="M6.92068922,5.17547569 C5.9679704,5.17547569 5.19553066,4.40303594 5.19553066,3.45031712 L5.19553066,1.72515856 C5.19553066,0.772439746 5.9679704,0 6.92068922,0 C7.87340803,0 8.64584778,0.772439746 8.64584778,1.72515856 L8.64584778,3.45031712 C8.64584778,4.40303594 7.87362368,5.17547569 6.92068922,5.17547569 Z" id="Path" fill="url(#linearGradient-10)"></path>
                <path d="M12.0961649,8.62579281 L10.3710063,8.62579281 C9.41828753,8.62579281 8.64584778,7.85335307 8.64584778,6.90063425 C8.64584778,5.94791543 9.41828753,5.17547569 10.3710063,5.17547569 L12.0961649,5.17547569 C13.0488837,5.17547569 13.8213235,5.94791543 13.8213235,6.90063425 C13.8213235,7.85335307 13.0490994,8.62579281 12.0961649,8.62579281 Z" id="Path" fill="url(#linearGradient-11)"></path>
                <path d="M3.47037209,8.62579281 L1.74521353,8.62579281 C0.792494715,8.62579281 0.0200549683,7.85335307 0.0200549683,6.90063425 C0.0200549683,5.94791543 0.792494715,5.17547569 1.74521353,5.17547569 L3.47037209,5.17547569 C4.42309091,5.17547569 5.19553066,5.94791543 5.19553066,6.90063425 C5.19553066,7.85335307 4.42330655,8.62579281 3.47037209,8.62579281 Z" id="Path" fill="url(#linearGradient-11)"></path>
            </g>
            <polygon id="Path" fill="url(#linearGradient-9)" fill-rule="nonzero" points="72.4767146 20.6656744 72.4767146 29.3276956 63.8146934 29.3276956 63.8146934 20.6656744"></polygon>
            <path d="M41.4238605,51.7547569 C40.4711416,51.7545412 39.6989175,50.9818858 39.6991331,50.029167 C39.6993488,49.5405159 39.9065835,49.0749387 40.2697294,48.7478055 L57.521315,33.2213784 C58.2417844,32.5979493 59.331222,32.6766596 59.9546512,33.397129 C60.5608288,34.0975433 60.5056237,35.1516152 59.8295772,35.7849641 L42.5779915,51.3113911 C42.2614249,51.5966892 41.8501903,51.7545412 41.4238605,51.7547569 L41.4238605,51.7547569 Z" id="Path" fill="url(#linearGradient-12)" fill-rule="nonzero"></path>
            <g id="Group" transform="translate(0.000000, 1.725159)" fill-rule="nonzero">
                <path d="M91.4534588,43.1289641 C90.50074,43.1289641 89.7283002,42.3565243 89.7283002,41.4038055 L89.7283002,39.6786469 C89.7283002,38.7259281 90.50074,37.9534884 91.4534588,37.9534884 C92.4061776,37.9534884 93.1786173,38.7259281 93.1786173,39.6786469 L93.1786173,41.4038055 C93.1786173,42.3565243 92.4063932,43.1289641 91.4534588,43.1289641 Z" id="Path" fill="url(#linearGradient-10)"></path>
                <path d="M97.5536195,40.6016136 C97.0958055,40.6029006 96.656537,40.4208964 96.3339323,40.0961353 L95.1142452,38.8764482 C94.4524313,38.191129 94.4711924,37.0988879 95.1565116,36.437074 C95.8250106,35.7914334 96.8849049,35.7914334 97.5536195,36.437074 L98.7733066,37.6567611 C99.446981,38.3306512 99.4467653,39.4228922 98.7728753,40.0965666 C98.4496237,40.4198182 98.0110021,40.6016136 97.5536195,40.6016136 L97.5536195,40.6016136 Z" id="Path" fill="url(#linearGradient-13)"></path>
                <path d="M100.079252,34.5031712 L98.354093,34.5031712 C97.4013742,34.5031712 96.6289345,33.7307315 96.6289345,32.7780127 C96.6289345,31.8252939 97.4013742,31.0528541 98.354093,31.0528541 L100.079252,31.0528541 C101.03197,31.0528541 101.80441,31.8252939 101.80441,32.7780127 C101.80441,33.7307315 101.032186,34.5031712 100.079252,34.5031712 Z" id="Path" fill="url(#linearGradient-11)"></path>
                <path d="M96.3339323,29.6244228 C95.3812135,29.6242072 94.6089894,28.8517674 94.609205,27.898833 C94.609205,27.4414503 94.7909937,27.0028288 95.1142452,26.6795772 L96.3339323,25.4598901 C97.0192516,24.7978605 98.111277,24.8168372 98.7733066,25.5021564 C99.4189471,26.1706554 99.4189471,27.2305497 98.7733066,27.8992643 L97.5536195,29.1189514 C97.2301522,29.4424186 96.7915307,29.6244228 96.3339323,29.6244228 L96.3339323,29.6244228 Z" id="Path" fill="url(#linearGradient-14)"></path>
                <path d="M91.4534588,27.602537 C90.50074,27.602537 89.7283002,26.8300973 89.7283002,25.8773784 L89.7283002,24.1522199 C89.7283002,23.1995011 90.50074,22.4270613 91.4534588,22.4270613 C92.4061776,22.4270613 93.1786173,23.1995011 93.1786173,24.1522199 L93.1786173,25.8773784 C93.1786173,26.8300973 92.4063932,27.602537 91.4534588,27.602537 Z" id="Path" fill="url(#linearGradient-10)"></path>
                <path d="M86.5729852,29.6244228 C86.1153869,29.6244228 85.6767653,29.4424186 85.3532981,29.1189514 L84.133611,27.8992643 C83.471797,27.213945 83.4905581,26.121704 84.1758774,25.4598901 C84.8443763,24.8142495 85.9042706,24.8142495 86.5729852,25.4598901 L87.7926723,26.6795772 C88.4663467,27.3534672 88.4661311,28.4457082 87.792241,29.1193827 C87.4689894,29.4426342 87.0303679,29.6244228 86.5729852,29.6244228 L86.5729852,29.6244228 Z" id="Path" fill="url(#linearGradient-15)"></path>
                <polygon id="Path" fill="url(#linearGradient-16)" points="8.64584778 0 11.3112178 5.40147146 17.2716406 6.26750106 12.9587442 10.4717125 13.9765877 16.4079831 8.64584778 13.6046004 3.31510782 16.4079831 4.33295137 10.4717125 0.0200549683 6.26750106 5.9804778 5.40147146"></polygon>
            </g>
            <path d="M101.25926,93.4449387 C100.438732,90.5369683 98.5494672,88.0469175 95.9699239,86.4735729 L95.2591586,85.4074249 C91.2738266,79.447649 85.0069725,75.3952516 77.9368414,74.2059704 C76.993611,74.071408 76.1198182,74.7269683 75.9852558,75.6701987 C75.855222,76.5815137 76.463556,77.434389 77.3675391,77.6079831 C82.4671078,78.4735814 87.1144693,81.0643383 90.5322241,84.9468076 C87.6587569,85.4637082 85.1456321,87.1895137 83.6315899,89.6858182 C81.7735941,93.0134334 82.9650317,97.2169979 86.2926469,99.0749937 C89.6202622,100.932989 93.8238266,99.7415518 95.6818224,96.4139366 C96.3915095,95.043945 96.7747104,93.5281776 96.8014503,91.9854545 C98.637019,94.6514715 98.7838732,98.1330571 97.17926,100.944203 C96.6931966,101.763653 96.9633996,102.822038 97.7828499,103.308101 C98.6023002,103.794165 99.660685,103.523962 100.146748,102.704512 C100.162275,102.678203 100.177154,102.651679 100.191387,102.624507 C101.758693,99.8299662 102.143188,96.5245624 101.25926,93.4449387 L101.25926,93.4449387 Z M92.6731459,94.7301818 C91.7523425,96.3986258 89.6534715,97.0045877 87.9852431,96.0837844 C86.3167992,95.162981 85.7108372,93.0641099 86.6316406,91.3958816 C86.6368161,91.3866089 86.6419915,91.3771205 86.647167,91.3678478 C87.6652262,89.7009133 89.3824059,88.5834419 91.3188964,88.3281184 C91.6188584,88.3199239 91.9158013,88.3889302 92.1814757,88.5282368 C93.6375095,89.3407865 93.7151416,92.8635603 92.6731459,94.7301818 Z" id="Shape" fill="url(#linearGradient-17)" fill-rule="nonzero"></path>
        </g>
    </g>
</svg>