<?xml version="1.0" encoding="UTF-8"?>
<svg width="206px" height="206px" viewBox="0 0 206 206" version="1.1" xmlns="http://www.w3.org/2000/svg" xmlns:xlink="http://www.w3.org/1999/xlink">
    <!-- Generator: Sketch 56.3 (81716) - https://sketch.com -->
    <title>Icon</title>
    <desc>Created with Sketch.</desc>
    <defs>
        <linearGradient x1="74.983724%" y1="23.4157986%" x2="18.7133789%" y2="91.7722066%" id="linearGradient-1">
            <stop stop-color="#88D3FF" offset="0%"></stop>
            <stop stop-color="#4496E9" offset="100%"></stop>
        </linearGradient>
        <linearGradient x1="50.0000917%" y1="100.00012%" x2="50.0000917%" y2="5.66387427e-05%" id="linearGradient-2">
            <stop stop-color="#6B8591" offset="0%"></stop>
            <stop stop-color="#8CA1AA" offset="100%"></stop>
        </linearGradient>
    </defs>
    <g id="02-EMR" stroke="none" stroke-width="1" fill="none" fill-rule="evenodd">
        <g id="02-00-01-EMR-Locked" transform="translate(-85.000000, -225.000000)">
            <g id="Content" transform="translate(36.000000, 225.000000)">
                <g id="Icon" transform="translate(49.000000, 0.000000)">
                    <circle id="Backgorund" fill="#F0F8FE" cx="103" cy="103" r="103"></circle>
                    <g transform="translate(55.000000, 40.000000)">
                        <path d="M5.5232,57 C2.47290435,57 0,59.518583 0,62.6252227 L0,62.6252227 L0,121.375061 C0,124.4817 2.47290435,127 5.5232,127 L5.5232,127 L90.4768,127 C93.5270957,127 96,124.4817 96,121.375061 L96,121.375061 L96,62.6252227 C96,59.518583 93.5270957,57 90.4768,57 L90.4768,57 L5.5232,57 Z" id="Fill-1" fill="url(#linearGradient-1)"></path>
                        <g id="Group-6" transform="translate(11.000000, 0.000000)" fill="url(#linearGradient-2)">
                            <path d="M36.5002776,0.0935024631 C27.0199924,0.0935024631 18.0396046,3.73195567 11.2164639,10.3888818 L11.2164639,10.3888818 C4.41053232,17.0278374 0.464091255,25.878 0.10269962,35.4189015 L0.10269962,35.4189015 C0.0854904943,35.8428916 0.079661597,49.0447094 0.076608365,56.9067783 L0.076608365,56.9067783 L11.3263802,56.9067783 C11.3294335,49.3254975 11.3349848,36.8913547 11.3466426,35.7858916 L11.3466426,35.7858916 C11.6125513,29.2196601 14.3360342,23.1992808 19.0257985,18.6249606 L19.0257985,18.6249606 C23.7413764,14.0242463 29.948597,11.4738473 36.5002776,11.4738473 L36.5002776,11.4738473 C43.0547338,11.4738473 49.2622319,13.9801626 53.9775323,18.5811576 L53.9775323,18.5811576 C58.6642433,23.1554778 61.3907795,29.2269606 61.6566882,35.7931921 L61.6566882,35.7931921 C61.668346,36.9045517 61.6741749,49.3254975 61.6769506,56.9067783 L61.6769506,56.9067783 L72.9267224,56.9067783 C72.9239468,49.0447094 72.9181179,35.8296946 72.9006312,35.411601 L72.9006312,35.411601 C72.5392395,25.8706995 68.5900228,17.0719212 61.7868669,10.4326847 L61.7868669,10.4326847 C54.9637262,3.77575862 45.983616,0.0935024631 36.5002776,0.0935024631 Z" id="Fill-4"></path>
                        </g>
                        <g id="Group-9" transform="translate(39.000000, 78.000000)" fill="#4E626B">
                            <path d="M1.73025424,6.80739394 C1.73025424,8.63191919 2.48027119,10.320404 3.69274576,11.5212929 L3.69274576,11.5212929 L0.0752033898,27.906101 L16.9282542,27.906101 L13.311,11.5187475 C14.5231864,10.3175758 15.2729153,8.64634343 15.2729153,6.82210101 L15.2729153,6.82210101 C15.2729153,3.15127273 12.2414407,0.165737374 8.50172881,0.165737374 L8.50172881,0.165737374 C4.76201695,0.165737374 1.73025424,3.13656566 1.73025424,6.80739394" id="Fill-7"></path>
                        </g>
                    </g>
                </g>
            </g>
        </g>
    </g>
</svg>