<?xml version="1.0" encoding="UTF-8"?>
<svg width="72px" height="72px" viewBox="0 0 72 72" version="1.1" xmlns="http://www.w3.org/2000/svg" xmlns:xlink="http://www.w3.org/1999/xlink">
    <!-- Generator: Sketch 53.2 (72643) - https://sketchapp.com -->
    <title>Group</title>
    <desc>Created with Sketch.</desc>
    <defs>
        <circle id="path-1" cx="36" cy="36" r="36"></circle>
        <radialGradient cx="144.300172%" cy="190.073151%" fx="144.300172%" fy="190.073151%" r="651.633439%" gradientTransform="translate(1.443002,1.900732),scale(0.307436,1.000000),rotate(-161.212000),translate(-1.443002,-1.900732)" id="radialGradient-3">
            <stop stop-color="#D0E4F9" offset="0%"></stop>
            <stop stop-color="#4091F2" offset="100%"></stop>
        </radialGradient>
        <linearGradient x1="50%" y1="100%" x2="50%" y2="3.061617e-15%" id="linearGradient-4">
            <stop stop-color="#A98555" offset="0%"></stop>
            <stop stop-color="#D7AC68" offset="100%"></stop>
        </linearGradient>
        <path d="M6.59852303,38.9917693 C7.05747495,41.4269035 6.7555618,43.9554205 5.69278359,46.5773203 C9.48797265,48.3024062 18.4327726,47.7022419 22.2724874,46.1633007 C21.4698372,42.8878229 20.6531961,40.4445534 23.6336773,33.6391758 C24.8542185,30.8522959 27.3722302,28.7658974 29.7527745,23.3458675 C32.8039765,15.2749761 34.9915428,-0.251230183 19.7012498,0.261750203 C8.47351221,0.313048241 6.11855868,4.53658675 5.1243468,6.0755279 C4.13013493,7.61446906 -5.05775413,33.0069981 4.13013493,38.1197026 C4.88288058,38.5104189 5.70567661,38.8011077 6.59852303,38.9917693 Z" id="path-5"></path>
        <linearGradient x1="80.019496%" y1="-2.9636156%" x2="53.9710218%" y2="38.0517451%" id="linearGradient-7">
            <stop stop-color="#CDAC82" stop-opacity="0" offset="0%"></stop>
            <stop stop-color="#F4DBB3" stop-opacity="0.4" offset="100%"></stop>
        </linearGradient>
        <linearGradient x1="63.6806215%" y1="80.3503394%" x2="28.6903244%" y2="102.203392%" id="linearGradient-8">
            <stop stop-color="#CDAC82" stop-opacity="0" offset="0%"></stop>
            <stop stop-color="#F4DBB3" stop-opacity="0.4" offset="100%"></stop>
            <stop stop-color="#FFF5E4" stop-opacity="0.5" offset="100%"></stop>
        </linearGradient>
        <radialGradient cx="-16.1755744%" cy="101.387198%" fx="-16.1755744%" fy="101.387198%" r="85.8923153%" gradientTransform="translate(-0.161756,1.013872),scale(1.000000,0.944203),rotate(-34.174617),translate(0.161756,-1.013872)" id="radialGradient-9">
            <stop stop-color="#CDAC82" stop-opacity="0" offset="0%"></stop>
            <stop stop-color="#EED8B3" stop-opacity="0.4" offset="100%"></stop>
        </radialGradient>
        <path d="M6.72029381,34.7703825 C17.8320456,33.6585441 25.1780134,29.3953016 28.7581973,21.9806547 C29.0424943,21.3918689 29.2548905,20.7848281 29.5295281,20.1595323 C32.5807301,12.0886409 37.7166082,-0.3298786 22.4263152,0.183101785 C11.1985777,0.234399824 6.24032945,0.315199983 5.24611758,1.85414114 C4.2519057,3.39308229 -4.93598335,28.7856114 4.2519057,33.8983159 C5.00465135,34.2890321 5.82744738,34.579721 6.72029381,34.7703825 Z" id="path-10"></path>
        <linearGradient x1="117.655062%" y1="27.229185%" x2="14.1395591%" y2="68.2207194%" id="linearGradient-12">
            <stop stop-color="#434343" offset="0%"></stop>
            <stop stop-color="#000000" offset="100%"></stop>
        </linearGradient>
        <linearGradient x1="8.3780711%" y1="22.6818829%" x2="109.000234%" y2="76.5557479%" id="linearGradient-13">
            <stop stop-color="#434343" offset="0%"></stop>
            <stop stop-color="#000000" offset="100%"></stop>
        </linearGradient>
    </defs>
    <g id="14-Settings---1-missing-img" stroke="none" stroke-width="1" fill="none" fill-rule="evenodd">
        <g id="14-01-01-Settings" transform="translate(-16.000000, -188.000000)">
            <g id="Account" transform="translate(0.000000, 172.000000)">
                <g id="Group" transform="translate(16.000000, 16.000000)">
                    <mask id="mask-2" fill="white">
                        <use xlink:href="#path-1"></use>
                    </mask>
                    <use id="Mask" fill="#FEF2DF" xlink:href="#path-1"></use>
                    <g mask="url(#mask-2)">
                        <g transform="translate(5.333333, 10.666667)">
                            <path d="M21.598078,54.1676984 C11.5925796,54.6852242 6.72783515,56.2378015 0.690034375,61.9305851 C-3.33516614,65.7257742 13.3981674,67.3358544 50.8900351,66.7608258 C52.3966109,61.1945492 48.1471496,56.8588335 38.1416511,53.7536788 C23.1334035,49.0959468 32.9989536,51.6785164 21.598078,54.1676984 Z" id="Path-7" fill="url(#radialGradient-3)"></path>
                            <g id="Path-3-Copy-2-+-Path-3-Copy-4-Mask" stroke-width="1" fill="none" transform="translate(15.870791, 7.590378)">
                                <mask id="mask-6" fill="white">
                                    <use xlink:href="#path-5"></use>
                                </mask>
                                <use id="Mask" fill="url(#linearGradient-4)" xlink:href="#path-5"></use>
                                <path d="M6.59852303,38.9917693 C6.59852303,41.5186773 6.29660989,44.0471943 5.69278359,46.5773203 C10.0054984,48.4749148 18.4327726,47.7022419 22.2724874,46.1633007 C21.1411428,41.5464773 22.2491317,42.0012542 30.4428089,23.3458675 C33.4940109,15.2749761 34.9915428,-0.251230183 19.7012498,0.261750203 C8.47351221,0.313048241 6.11855868,4.53658675 5.1243468,6.0755279 C4.13013493,7.61446906 -5.05775413,33.0069981 4.13013493,38.1197026 C4.88288058,38.5104189 5.70567661,38.8011077 6.59852303,38.9917693 Z" id="Path-3-Copy-2" fill="url(#linearGradient-7)" mask="url(#mask-6)"></path>
                                <path d="M6.59852303,38.9917693 C6.45471966,41.4036715 6.15280651,43.9321885 5.69278359,46.5773203 C10.0054984,48.6474234 18.4327726,47.7022419 22.2724874,46.1633007 C21.1411428,41.5464773 22.2491317,42.0012542 30.4428089,23.3458675 C33.4940109,15.2749761 34.9915428,-0.251230183 19.7012498,0.261750203 C8.47351221,0.313048241 6.11855868,4.53658675 5.1243468,6.0755279 C4.13013493,7.61446906 -5.05775413,33.0069981 4.13013493,38.1197026 C4.88288058,38.5104189 5.70567661,38.8011077 6.59852303,38.9917693 Z" id="Path-3-Copy-4" fill="url(#linearGradient-8)" mask="url(#mask-6)"></path>
                                <path d="M6.59852303,38.9917693 C17.7102748,37.8799309 25.0562427,33.6166883 28.6364266,26.2020415 C28.9207235,25.6132556 29.1331197,25.0062148 29.4077574,24.3809191 C32.4589593,16.3100277 37.5948375,3.89150816 22.3045445,4.40448855 C11.0768069,4.45578659 6.11855868,4.53658675 5.1243468,6.0755279 C4.13013493,7.61446906 -5.05775413,33.0069981 4.13013493,38.1197026 C4.88288058,38.5104189 5.70567661,38.8011077 6.59852303,38.9917693 Z" id="Path-3-Copy-3" fill="url(#radialGradient-9)" mask="url(#mask-6)"></path>
                            </g>
                            <g id="beard" stroke-width="1" fill="none" transform="translate(15.749020, 11.811765)">
                                <mask id="mask-11" fill="white">
                                    <use xlink:href="#path-10"></use>
                                </mask>
                                <g id="Mask"></g>
                                <path d="M25.7562095,16.405229 C23.7875821,21.2174295 19.6315907,24.334423 13.2882355,25.7562095 C3.77320267,27.8888893 2.46078435,25.1000004 -0.49215687,20.9986931 C-2.46078435,18.2644883 -2.73420483,22.6939001 -1.31241832,34.2869286 L9.18692824,36.4196084 L25.7562095,31.4980397 L30.8418305,22.3111115 L25.7562095,16.405229 Z" id="Path-2" fill="url(#linearGradient-12)" mask="url(#mask-11)"></path>
                            </g>
                            <path d="M38.3353006,19.0540801 C41.6097457,16.0118413 43.9545656,15.6407792 45.3697601,17.9408937 C47.492552,21.3910656 43.2469683,23.9551018 41.7470797,25.1862547 C39.1594508,28.2914094 43.6855139,31.8236148 44.6797258,33.2941586 C46.1681888,32.3924386 63.8281797,16.8095591 45.3697601,3.45017187 C40.6524782,0.036011955 32.595047,-0.0503351848 26.5663234,0.690034375 C14.5801969,2.24261172 10.178007,10.178007 11.5580758,13.9731961 C12.7656359,17.2508594 15.698282,17.2508594 18.4967966,16.2465407 C24.6677669,14.2630165 31.2806015,15.198863 38.3353006,19.0540801 Z" id="Path-4-Copy" fill="url(#linearGradient-13)"></path>
                        </g>
                    </g>
                </g>
            </g>
        </g>
    </g>
</svg>