<svg width="580" height="466" xmlns="http://www.w3.org/2000/svg" xmlns:xlink="http://www.w3.org/1999/xlink"><defs><path id="a" d="M0 0h580v466H0z"/><linearGradient x1="32.45%" y1="85.557%" x2="67.634%" y2="13.333%" id="c"><stop stop-color="#B38B59" offset="0%"/><stop stop-color="#F4DBB3" offset="100%"/></linearGradient><linearGradient x1="45.644%" y1="142.605%" x2="50.977%" y2="5.59%" id="d"><stop stop-color="#BC9664" offset="0%"/><stop stop-color="#F4DBB3" offset="100%"/></linearGradient><linearGradient x1="45.997%" y1="58.484%" x2="53.542%" y2="46.739%" id="f"><stop stop-color="#BC9664" stop-opacity=".787" offset="0%"/><stop stop-color="#F4DBB3" stop-opacity=".739" offset="100%"/></linearGradient><path d="M0 203.01l7.183-45.874C16.927 76.96 23.78 33.07 27.743 25.467c2.725-5.951 8.422-20.085 26.505-18.597 6.935.248 5.697 20.58 3.22 50.832-1.652 20.168-2.725 36.782-3.22 49.841v45.13c0 11.158 3.715 31.739 0 36.946-2.478 3.472-12.881 35.21-31.211 95.218L0 203.009z" id="e"/><linearGradient x1="52.045%" y1="140.041%" x2="54.224%" y2="5.59%" id="g"><stop stop-color="#BC9664" offset="0%"/><stop stop-color="#F4DBB3" offset="100%"/></linearGradient><linearGradient x1="41.35%" y1="75.607%" x2="54.752%" y2="19.971%" id="i"><stop stop-color="#BC9664" stop-opacity=".604" offset="0%"/><stop stop-color="#F4DBB3" stop-opacity=".633" offset="100%"/></linearGradient><path d="M65.05 224.832c-1.982-31.078-4.128-48.683-6.44-52.816-2.312-4.133-20.89-46.369-55.734-126.71C-3.564 28.612.812 16.46 16.004 8.857 19.637 8.36 28.403 20.51 42.3 45.306c29.534 54.718 45.87 83.482 49.007 86.292 4.706 4.216 19.549 22.31 19.549 27.269 0 3.306 6.86 34.552 20.58 93.737 4.182 36.991-.247 55.487-13.287 55.487-13.04 0-26.942-18.496-41.704-55.487L65.05 224.832z" id="h"/><linearGradient x1="211.589%" y1="150.105%" x2="0%" y2="8.839%" id="j"><stop stop-color="#BC9664" offset="0%"/><stop stop-color="#F4DBB3" offset="100%"/></linearGradient><linearGradient x1="56.359%" y1="72.839%" x2="39.223%" y2="-10.894%" id="k"><stop stop-color="#BC9664" offset="0%"/><stop stop-color="#F4DBB3" offset="100%"/></linearGradient><linearGradient x1="104.815%" y1="212.922%" x2="24.048%" y2="-10.894%" id="l"><stop stop-color="#BC9664" offset="0%"/><stop stop-color="#F4DBB3" offset="100%"/></linearGradient></defs><g fill="none" fill-rule="evenodd"><mask id="b" fill="#fff"><use xlink:href="#a"/></mask><g mask="url(#b)"><path d="M32.754 120.732C58.02 64.692 76.845 30.638 89.23 18.57 99.387 7.908 116.726 7.413 120.44 7.66c3.716.247 6.936 5.207-10.403 34.962-17.34 29.756-26.983 43.89-29.477 48.85-2.494 4.958-10.156 29.507-13.376 32.73-2.147 2.15-14.532 20.333-37.156 54.552l-21.798-7.19 24.523-50.833z" fill="url(#c)" transform="rotate(-5 1259.694 -3744.871)"/><path d="M455.542 101.62c-3.498 8.832-3.9 12.785-7.657 18.15-1.982 2.83-3.985 3.492-5.31 2.925-1.286-.55-1.87-2.328-.885-6.102 2-7.667 10.93-24.928 14.704-25.66 3.774-.73 2.646 1.854-.852 10.687z" fill="#FDE0D5"/><g transform="translate(340.052 18.442)"><use fill="url(#d)" xlink:href="#e"/><use fill="url(#f)" xlink:href="#e"/></g><path d="M400.366 32.467c-.487 10.714.536 15.082-1.503 22.19-1.075 3.749-2.97 5.191-4.593 5.073-1.574-.115-2.851-1.798-3.187-6.189-.683-8.92 2.504-30.626 6.265-32.794 3.76-2.168 3.505 1.005 3.018 11.72z" fill="#FDE0D5"/><g transform="translate(246.7 -4)"><use fill="url(#g)" xlink:href="#h"/><use fill="url(#i)" xlink:href="#h"/></g><path d="M269.227 9.296c6.212 8.743 9.707 11.555 12.477 18.41 1.461 3.617.856 5.92-.496 6.827-1.311.878-3.354.338-6.322-2.915-6.029-6.608-16.882-25.675-15.253-29.699 1.629-4.023 3.382-1.366 9.594 7.377z" fill="#FDE0D5"/><path d="M249.907 287.071c0-6.797-.015-15.943-.043-27.437-4.972-9.82-9.007-16.956-12.107-21.41-3.1-4.453-24.928-30.822-65.484-79.108-7.142-13.14-16.665-17.81-28.57-14.01-11.903 3.799-34.488 12.943-67.752 27.431-11.53 14.523-18.565 24.95-21.105 31.283-1.907 4.755-18.896 25.356-12.145 32.596 2.928 3.14 8.28 8.589 31.435-11.91 4.537-4.315 11.14-9.806 19.809-16.473l45.91-14.453 29.683 55.47c1.316 6.909 2.21 11.876 2.681 14.903 1.67 10.72 2.457 18.75 2.726 23.382.654 11.275-.466 18.816-2.732 22.646-10.483 13.642 77.694.362 77.694-22.91z" fill="url(#j)" transform="rotate(-2 95.436 -3467.549)"/><path d="M171.027 224.403c4.803-9.59 7.166-13.707 10.398-19.66 2.575-4.743 4.825-3.535 6.26-2.767 1.392.745 1.873 2.802.394 6.95-3.004 8.426-14.744 26.96-19.061 27.41-4.317.452-2.794-2.343 2.01-11.933z" fill="#FDE0D5"/><g><path d="M5.103 23.06c2.559 10.37 19.982 61.125 52.269 152.268 20.82 33.251 40.826 60.087 60.018 80.505 12.475 22.014 19.792 49.324 21.953 81.93 6.643 55.798 6.685 132.112.128 228.94 43.182-1.436 85.488-1.436 126.916 0-16.787-159.917-26.94-252.637-30.458-278.16-3.839-102.173 14.137-170.489 14.137-193.938 0-6.85.32-16.053.963-27.612-5.231-8.467-9.408-14.944-12.532-19.431-17.113-18.983-40.572-15.907-70.378 9.228 6.608 33.304 7.353 53.784 2.235 61.441-16.952 8.454-25.063 20.16-44.598 23.279-10.393.508-29.42-22.036-57.083-67.63C47.352 31.672 32.754 8.19 24.88 3.428 10.726-.64.065-1.824 5.103 23.06z" fill="url(#k)" transform="rotate(-2 5602.77 -3604.411)"/><path d="M5.103 23.06c2.559 10.37 19.982 61.125 52.269 152.268 58.613-24.625 81.407-35.897 68.384-33.818-10.393.508-29.42-22.036-57.083-67.63C47.352 31.672 32.754 8.19 24.88 3.428 10.726-.64.065-1.824 5.103 23.06z" fill="url(#l)" transform="rotate(-2 5602.77 -3604.411)"/><path d="M130.993 205.126c-1.022-6.155-2.993-11.126 1.005-11.452 3.849-.314 10.8-2.235 13.315 3.771 2.167 5.178 7.04 16.29 8.746 22.325 1.706 6.035-.815 13.197-6.553 17.15-4.376 1.46-5.713.283-7.293-3.637s-8.198-22.002-9.22-28.157z" fill="#FDE0D5"/></g></g></g></svg>