<?xml version="1.0" encoding="UTF-8"?>
<svg width="72px" height="72px" viewBox="0 0 72 72" version="1.1" xmlns="http://www.w3.org/2000/svg" xmlns:xlink="http://www.w3.org/1999/xlink">
    <!-- Generator: Sketch 53.2 (72643) - https://sketchapp.com -->
    <title>Group</title>
    <desc>Created with Sketch.</desc>
    <defs>
        <circle id="path-1" cx="36" cy="36" r="36"></circle>
        <linearGradient x1="26.6303712%" y1="25.9679919%" x2="70.0326404%" y2="71.0903463%" id="linearGradient-3">
            <stop stop-color="#D7B787" offset="0%"></stop>
            <stop stop-color="#CCA367" offset="100%"></stop>
        </linearGradient>
        <linearGradient x1="-6.33541386%" y1="50.0312446%" x2="104.753987%" y2="50.0312446%" id="linearGradient-4">
            <stop stop-color="#999999" offset="0%"></stop>
            <stop stop-color="#787878" offset="100%"></stop>
        </linearGradient>
        <linearGradient x1="50.0058918%" y1="112.52008%" x2="50.0058918%" y2="-0.0019421608%" id="linearGradient-5">
            <stop stop-color="#4D4D4D" offset="2.51714%"></stop>
            <stop stop-color="#6A6A6A" offset="100%"></stop>
        </linearGradient>
    </defs>
    <g id="14-Settings---1-missing-img" stroke="none" stroke-width="1" fill="none" fill-rule="evenodd">
        <g id="14-01-01-Settings2" transform="translate(-16.000000, -188.000000)">
            <g id="Account" transform="translate(0.000000, 172.000000)">
                <g id="Group" transform="translate(16.000000, 16.000000)">
                    <mask id="mask-2" fill="white">
                        <use xlink:href="#path-1"></use>
                    </mask>
                    <use id="Mask" fill="#FEF2DF" xlink:href="#path-1"></use>
                    <g id="Graphic" mask="url(#mask-2)">
                        <g transform="translate(8.000000, 11.000000)" id="Group">
                            <g>
                                <path d="M35.8494118,34.1965288 C34.3717647,41.7610433 26.5976471,48.2746678 19.52,47.3373875 C16.7247059,46.9208185 12.8658824,44.3551321 12.1882353,40.3977265 C10.8329412,32.4639804 9.87294118,23.0154378 11.3882353,16.7763701 C12.6211765,11.7207372 13.9105882,8.53019724 20.9976471,7.16688047 C29.8917647,5.97397831 36.0376471,9.33493282 36.9411765,17.8461951 C37.2517647,23.2805272 36.8564706,29.0556885 35.8494118,34.1965288 Z" id="Path" fill="url(#linearGradient-3)"></path>
                                <g id="_x39_OKf0o_1_" transform="translate(0.000000, 55.574093)" fill="url(#linearGradient-4)">
                                    <path d="M55.9905882,11.0580137 C54.7294118,6.82605128 53.3364706,3.37042199 52.1035294,2.24379217 C50.9458824,1.4295891 49.8070588,0.691125858 48.6776471,0.0284024325 C48.4611765,0.473373875 48.0282353,0.804735588 47.3882353,0.804735588 L10.0141176,0.804735588 C9.6,0.804735588 9.28,0.662723426 9.03529412,0.45443892 C6.33411765,1.41065415 4.43294118,2.11124748 4.42352941,2.15858487 C2.84235294,4.41184452 1.36470588,7.59291696 0.0470588235,11.0580137 L55.9905882,11.0580137 Z" id="Path"></path>
                                </g>
                                <path d="M15.3788235,54.2581136 C12.9223529,54.7788249 8.57411765,56.1610766 8.26352941,56.3220237 C9.03529412,58.9350475 10.9458824,62.8451157 13.5058824,66.6321067 L31.5764706,66.6321067 C38.3811765,62.0403801 45.8917647,57.7610803 49.4776471,56.0190644 C45.1388235,53.8415446 44.3576471,53.6237926 41.5058824,52.4308904 C39.9247059,51.768167 40.0188235,48.4261475 41.2988235,46.7693389 C42.9741176,44.6012865 44.9129412,40.3030518 46.2494118,36.0710893 C47.1623529,33.1645737 48.4517647,27.162193 48.0188235,20.0710523 C47.6329412,13.7183749 45.8447059,6.35267741 40.5458824,2.96332046 C34.6823529,-0.785800633 25.5529412,-0.823670543 19.6141176,2.38580433 C14.0988235,5.36805975 11.5105882,9.61895715 10.4094118,16.6248905 C9.07294118,25.1172178 9.58117647,32.852147 11.1341176,40.407194 C12.1505882,45.3492173 14.0235294,47.5551395 15.4729412,48.9752612 C17.3458824,50.8214193 17.4305882,53.8226096 15.3788235,54.2581136 Z M13.0447059,39.4225763 C11.8682353,34.953927 10.8988235,23.3183971 12.3011765,17.5432358 C13.44,12.8568345 14.6447059,9.90298147 21.2047059,8.64380697 C29.44,7.5361121 35.1341176,10.6509122 35.9717647,18.537321 C36.2635294,23.5645515 35.8964706,28.9136763 34.9647059,33.6758175 C33.5905882,40.6817509 26.4,46.712534 19.84,45.8509936 C17.2423529,45.4722945 13.9858824,43.0202178 13.0447059,39.4225763 Z" id="Shape" fill="url(#linearGradient-5)" fill-rule="nonzero"></path>
                                <path d="M22.0235294,12.4497329 C29.5529412,12.0710338 33.8352941,14.9775494 35.6988235,16.8899799 C35.6988235,16.8899799 35.7082353,16.8899799 35.7082353,16.8994474 C34.2870588,10.2343432 28.8376471,7.63078687 21.2047059,8.65327444 C14.7576471,9.893514 13.4870588,12.7621597 12.3576471,17.3065489 C13.1011765,16.5302157 15.1717647,12.7905621 22.0235294,12.4497329 Z" id="Path" fill="#FAFCFC"></path>
                            </g>
                        </g>
                    </g>
                </g>
            </g>
        </g>
    </g>
</svg>