<?xml version="1.0" encoding="UTF-8"?>
<svg width="23px" height="23px" viewBox="0 0 23 23" version="1.1" xmlns="http://www.w3.org/2000/svg" xmlns:xlink="http://www.w3.org/1999/xlink">
    <!-- Generator: Sketch 50.2 (55047) - http://www.bohemiancoding.com/sketch -->
    <title>ico/medical summary dim copy 3</title>
    <desc>Created with Sketch.</desc>
    <defs></defs>
    <g id="Symbols" stroke="none" stroke-width="1" fill="none" fill-rule="evenodd">
        <g id="Dropdown-/-FAB-/-Operator" transform="translate(-175.000000, -187.000000)">
            <g id="ico-/-invite" transform="translate(175.000000, 187.000000)">
                <path d="M7.5,9 C5.56700338,9 4,7.43299662 4,5.5 C4,3.56700338 5.56700338,2 7.5,2 C9.43299662,2 11,3.56700338 11,5.5 C11,7.43299662 9.43299662,9 7.5,9 Z M13,18.5 C13,21.5375661 2,21.5375661 2,18.5 C2,15.4624339 4.46243388,13 7.5,13 C10.5375661,13 13,15.4624339 13,18.5 Z" id="Oval-5-Copy-3" fill="#A7EBCF" fill-rule="evenodd"></path>
                <path d="M7.5,9.75 C5.15278981,9.75 3.25,7.84721019 3.25,5.5 C3.25,3.15278981 5.15278981,1.25 7.5,1.25 C9.84721019,1.25 11.75,3.15278981 11.75,5.5 C11.75,7.84721019 9.84721019,9.75 7.5,9.75 Z M13.75,18.5 C13.75,22.5375661 1.25,22.5375661 1.25,18.5 C1.25,15.0482203 4.04822031,12.25 7.5,12.25 C10.9517797,12.25 13.75,15.0482203 13.75,18.5 Z" id="Oval-5-Copy-2" stroke="#23CE86" stroke-width="1.5"></path>
                <circle id="Oval-5" fill="#23CE86" fill-rule="evenodd" cx="16.5" cy="14.5" r="6.5"></circle>
                <path d="M17.15625,13.84375 L20,13.84375 L20,15.15625 L17.15625,15.15625 L17.15625,18 L15.84375,18 L15.84375,15.15625 L13,15.15625 L13,13.84375 L15.84375,13.84375 L15.84375,11 L17.15625,11 L17.15625,13.84375 Z" id="plus-icon" fill="#FFFFFF" fill-rule="evenodd"></path>
            </g>
        </g>
    </g>
</svg>