<svg width="16" height="16" xmlns="http://www.w3.org/2000/svg"><g fill="none" fill-rule="evenodd"><path d="M0 0h16v16H0z"/><g stroke="#23CE86"><path d="M7.208 13.923C4.043 13.042 2.307 10.904 2 7.512h0V2.93L7.5 1 13 2.93v4.582c-.316 3.495-2.15 5.658-5.5 6.488z" fill="#DEFFE9" stroke-linejoin="round"/><path d="M9.709 10c.08 0 .148-.023.205-.07A.216.216 0 0010 9.756a.248.248 0 00-.03-.12h0l-2.137-4.44a.335.335 0 00-.135-.144A.393.393 0 007.496 5a.4.4 0 00-.194.049.308.308 0 00-.135.147h0L5.03 9.636a.223.223 0 00.06.29.32.32 0 00.209.074.265.265 0 00.262-.168h0l.538-1.13h2.817l.53 1.13c.05.112.138.168.263.168zM8.692 8.226h-2.37L7.505 5.72l1.188 2.507z" stroke-width=".5" fill="#23CE86" fill-rule="nonzero"/></g></g></svg>