<?xml version="1.0" encoding="UTF-8"?>
<svg width="19px" height="21px" viewBox="0 0 19 21" version="1.1" xmlns="http://www.w3.org/2000/svg" xmlns:xlink="http://www.w3.org/1999/xlink">
    <!-- Generator: Sketch 50.2 (55047) - http://www.bohemiancoding.com/sketch -->
    <title>Group</title>
    <desc>Created with Sketch.</desc>
    <defs></defs>
    <g id="Symbols" stroke="none" stroke-width="1" fill="none" fill-rule="evenodd">
        <g id="ico-/-misc-/-assing-meds" transform="translate(-2.000000, -2.000000)">
            <g id="Group" transform="translate(3.500000, 3.000000)">
                <path d="M1.20214844,0.239013672 L10.9585602,0.239013672 C11.2322814,0.239013672 11.494038,0.351214815 11.682786,0.549450762 L16.1236399,5.21353703 C16.3006731,5.39946932 16.3994141,5.64636744 16.3994141,5.90309994 L16.3994141,17.6262207 C16.3994141,18.1785055 15.9516988,18.6262207 15.3994141,18.6262207 L1.20214844,18.6262207 C0.649863688,18.6262207 0.202148438,18.1785055 0.202148438,17.6262207 L0.202148438,1.23901367 C0.202148437,0.686728922 0.649863688,0.239013672 1.20214844,0.239013672 Z" id="Path-2-Copy-2" fill="#CFE7FF" fill-rule="nonzero"></path>
                <path d="M5.21127734,5.06527516 L5.21127734,7.79605666 L6.95248852,7.79605666 C7.88798396,7.79605666 8.42873277,7.29856776 8.42873277,6.42796217 C8.42873277,5.57898653 7.85553903,5.06527516 6.92004359,5.06527516 L5.21127734,5.06527516 Z M8.01867394,8.65137894 L9.22840484,10.6365784 L9.32033214,10.6365784 L10.5748694,8.56010293 L11.867259,8.56010293 L9.92597081,11.4693315 L11.888889,14.4488575 L10.5532394,14.4488575 L9.27166475,12.3615671 L9.18514494,12.3615671 L7.89816276,14.4488575 L6.62199557,14.4488575 L8.57409878,11.5179989 L6.78463483,8.8288869 L5.21127734,8.8288869 L5.21127734,11.8030054 L4,11.8030054 L4,4 L7.08767572,4 C8.66125476,4 9.67245504,4.93549545 9.67245504,6.40092473 C9.67245504,7.44997742 9.11007628,8.30436055 8.15835837,8.62880984 L8.01867394,8.65137894 Z" id="Rectangle-4" fill="#1877DA" fill-rule="nonzero"></path>
                <path d="M1.20214844,0.239013672 L10.9585602,0.239013672 C11.2322814,0.239013672 11.494038,0.351214815 11.682786,0.549450762 L16.1236399,5.21353703 C16.3006731,5.39946932 16.3994141,5.64636744 16.3994141,5.90309994 L16.3994141,17.6262207 C16.3994141,18.1785055 15.9516988,18.6262207 15.3994141,18.6262207 L1.20214844,18.6262207 C0.649863688,18.6262207 0.202148438,18.1785055 0.202148438,17.6262207 L0.202148438,1.23901367 C0.202148437,0.686728922 0.649863688,0.239013672 1.20214844,0.239013672 Z" id="Path-2" stroke="#1877DA" stroke-width="1.5"></path>
            </g>
        </g>
    </g>
</svg>