<?xml version="1.0" encoding="UTF-8"?>
<svg width="24px" height="24px" viewBox="0 0 24 24" version="1.1" xmlns="http://www.w3.org/2000/svg" xmlns:xlink="http://www.w3.org/1999/xlink">
    <!-- Generator: Sketch 52.2 (67145) - http://www.bohemiancoding.com/sketch -->
    <title>Icon/Side Menu/My Calendar</title>
    <desc>Created with Sketch.</desc>
    <g id="Icon/Side-Menu/My-Calendar" stroke="none" stroke-width="1" fill="none" fill-rule="evenodd">
        <rect id="Rectangle" fill="#D9F1FF" x="3" y="4" width="18" height="17" rx="1"></rect>
        <path d="M15,4.8 L9,4.8 L9,6 C9,6.55228475 8.55228475,7 8,7 C7.44771525,7 7,6.55228475 7,6 L7,4.8 L6,4.8 C4.78497355,4.8 3.8,5.78497355 3.8,7 L3.8,18 C3.8,19.2150264 4.78497355,20.2 6,20.2 L18,20.2 C19.2150264,20.2 20.2,19.2150264 20.2,18 L20.2,7 C20.2,5.78497355 19.2150264,4.8 18,4.8 L17,4.8 L17,6 C17,6.55228475 16.5522847,7 16,7 C15.4477153,7 15,6.55228475 15,6 L15,4.8 Z M17,3.2 L18,3.2 C20.098682,3.2 21.8,4.90131795 21.8,7 L21.8,18 C21.8,20.098682 20.098682,21.8 18,21.8 L6,21.8 C3.90131795,21.8 2.2,20.098682 2.2,18 L2.2,7 C2.2,4.90131795 3.90131795,3.2 6,3.2 L7,3.2 L7,3 C7,2.44771525 7.44771525,2 8,2 C8.55228475,2 9,2.44771525 9,3 L9,3.2 L15,3.2 L15,3 C15,2.44771525 15.4477153,2 16,2 C16.5522847,2 17,2.44771525 17,3 L17,3.2 Z M17,15 C17.5522847,15 18,15.4477153 18,16 C18,16.5522847 17.5522847,17 17,17 C16.4477153,17 16,16.5522847 16,16 C16,15.4477153 16.4477153,15 17,15 Z M7,10 C7.55228475,10 8,10.4477153 8,11 C8,11.5522847 7.55228475,12 7,12 C6.44771525,12 6,11.5522847 6,11 C6,10.4477153 6.44771525,10 7,10 Z M12,10 C12.5522847,10 13,10.4477153 13,11 C13,11.5522847 12.5522847,12 12,12 C11.4477153,12 11,11.5522847 11,11 C11,10.4477153 11.4477153,10 12,10 Z M17,10 C17.5522847,10 18,10.4477153 18,11 C18,11.5522847 17.5522847,12 17,12 C16.4477153,12 16,11.5522847 16,11 C16,10.4477153 16.4477153,10 17,10 Z M7,15 C7.55228475,15 8,15.4477153 8,16 C8,16.5522847 7.55228475,17 7,17 C6.44771525,17 6,16.5522847 6,16 C6,15.4477153 6.44771525,15 7,15 Z M12,15 C12.5522847,15 13,15.4477153 13,16 C13,16.5522847 12.5522847,17 12,17 C11.4477153,17 11,16.5522847 11,16 C11,15.4477153 11.4477153,15 12,15 Z" id="Combined-Shape" fill="#4496E9" fill-rule="nonzero"></path>
    </g>
</svg>