<?xml version="1.0" encoding="UTF-8"?>
<svg width="21px" height="22px" viewBox="0 0 21 22" version="1.1" xmlns="http://www.w3.org/2000/svg" xmlns:xlink="http://www.w3.org/1999/xlink">
    <!-- Generator: Sketch 52.2 (67145) - http://www.bohemiancoding.com/sketch -->
    <title>ico / timeline / disconnected</title>
    <desc>Created with Sketch.</desc>
    <g id="ico-/-timeline-/-disconnected" stroke="none" stroke-width="1" fill="none" fill-rule="evenodd">
        <g id="Group" transform="translate(0.500000, 6.500000)">
            <path d="M0.875393101,6.82218506 C0.870355052,6.28266929 0.900612391,5.74819545 0.870363285,5.21372208 C0.82498947,4.43218084 1.1577795,3.83719822 1.71242573,3.34305798 C2.51918393,2.61697442 3.48729056,2.16316862 4.5007762,1.81524875 C6.75464732,1.0336898 9.07406317,0.761392933 11.4489396,0.968104999 C13.2036253,1.1193576 14.9028451,1.4975098 16.5163447,2.23365913 C17.2978835,2.59164958 18.0289997,3.02023127 18.5987637,3.68075558 C18.9466726,4.08917141 19.1281884,4.55305277 19.1180998,5.09761086 C19.1029686,5.68754882 19.1180908,6.26740214 19.113044,6.85734002 C19.1079959,7.62879725 18.6188984,8.10781037 17.8524833,8.11790068 C17.3734739,8.12294658 16.904549,8.11790799 16.4305819,8.11791164 C15.9666991,8.11791521 15.5078585,8.12296095 15.049018,8.11792228 C14.2372233,8.11288632 13.7632597,7.63892282 13.7582238,6.82712804 C13.7531861,6.24727464 13.7481483,5.66742124 13.7632794,5.08756769 C13.7632806,4.93630157 13.7128591,4.86571111 13.57672,4.81024792 C12.9212356,4.53797396 12.2254125,4.40688202 11.5295889,4.33629652 C10.1228152,4.19008345 8.7160401,4.2153053 7.32438937,4.53801706 C7.02689884,4.603568 6.74453449,4.72458307 6.44704381,4.81030282 C6.29577738,4.85064162 6.24535464,4.94140168 6.25039564,5.09770996 C6.26047555,5.68260552 6.2554288,6.27254341 6.25542429,6.85743905 C6.25037615,7.62889627 5.76632086,8.11295156 4.99990588,8.11295747 C4.05701373,8.11800693 3.11916382,8.11801415 2.17627174,8.11297921 C1.3594348,8.10290109 0.875386965,7.61885326 0.875393101,6.82218506 Z" id="Path-Copy" fill="#EFB8B5"></path>
            <path d="M1.0753931,6.22218506 C1.07035505,5.68266929 1.10061239,5.14819545 1.07036328,4.61372208 C1.02498947,3.83218084 1.3577795,3.23719822 1.91242573,2.74305798 C2.71918393,2.01697442 3.68729056,1.56316862 4.7007762,1.21524875 C6.95464732,0.433689802 9.27406317,0.161392933 11.6489396,0.368104999 C13.4036253,0.5193576 15.1028451,0.897509799 16.7163447,1.63365913 C17.4978835,1.99164958 18.2289997,2.42023127 18.7987637,3.08075558 C19.1466726,3.48917141 19.3281884,3.95305277 19.3180998,4.49761086 C19.3029686,5.08754882 19.3180908,5.66740214 19.313044,6.25734002 C19.3079959,7.02879725 18.8188984,7.50781037 18.0524833,7.51790068 C17.5734739,7.52294658 17.104549,7.51790799 16.6305819,7.51791164 C16.1666991,7.51791521 15.7078585,7.52296095 15.249018,7.51792228 C14.4372233,7.51288632 13.9632597,7.03892282 13.9582238,6.22712804 C13.9531861,5.64727464 13.9481483,5.06742124 13.9632794,4.48756769 C13.9632806,4.33630157 13.9128591,4.26571111 13.77672,4.21024792 C13.1212356,3.93797396 12.4254125,3.80688202 11.7295889,3.73629652 C10.3228152,3.59008345 8.9160401,3.6153053 7.52438937,3.93801706 C7.22689884,4.003568 6.94453449,4.12458307 6.64704381,4.21030282 C6.49577738,4.25064162 6.44535464,4.34140168 6.45039564,4.49770996 C6.46047555,5.08260552 6.4554288,5.67254341 6.45542429,6.25743905 C6.45037615,7.02889627 5.96632086,7.51295156 5.19990588,7.51295747 C4.25701373,7.51800693 3.31916382,7.51801415 2.37627174,7.51297921 C1.5594348,7.50290109 1.07538697,7.01885326 1.0753931,6.22218506 Z" id="Path" stroke="#E9443A"></path>
        </g>
    </g>
</svg>