<?xml version="1.0" encoding="UTF-8"?>
<svg width="18px" height="19px" viewBox="0 0 18 19" version="1.1" xmlns="http://www.w3.org/2000/svg" xmlns:xlink="http://www.w3.org/1999/xlink">
    <!-- Generator: Sketch 50.2 (55047) - http://www.bohemiancoding.com/sketch -->
    <title>ico/medical summary dim copy 6</title>
    <desc>Created with Sketch.</desc>
    <defs></defs>
    <g id="Symbols" stroke="none" stroke-width="1" fill="none" fill-rule="evenodd">
        <g id="Dropdown-/-FAB-/-Nurse" transform="translate(-178.000000, -133.000000)">
            <g id="ico-/-call-back" transform="translate(175.000000, 130.000000)">
                <g id="ico-/-timeline-/-connected" transform="translate(1.500000, 1.000000)">
                    <path d="M18.5133963,17.9023723 C18.0907124,18.3330247 17.6441031,18.731777 17.2453447,19.1783795 C16.6631575,19.8323331 15.9294421,20.0396843 15.1000247,19.991834 C13.8877993,19.9280336 12.7633007,19.5213064 11.6866531,18.9949534 C9.28612776,17.8305969 7.23650977,16.2116629 5.52184881,14.1700516 C4.25379721,12.6627682 3.2090503,11.019909 2.51521075,9.16172365 C2.18025372,8.26054363 1.9409987,7.34341352 2.01277521,6.3704581 C2.06062621,5.77232977 2.2839309,5.26192693 2.7225651,4.83924957 C3.20107513,4.38467204 3.6476845,3.91414442 4.11821937,3.45159184 C4.73230725,2.84548847 5.49792331,2.85346351 6.11201119,3.45159184 C6.49481921,3.82641893 6.86167691,4.20124602 7.23650977,4.57607311 C7.60336747,4.94292515 7.97022516,5.30180215 8.32910769,5.66865419 C8.96712107,6.31463279 8.96712107,7.06428697 8.32910769,7.71026557 C7.87452315,8.17281814 7.41993862,8.63537072 6.94940375,9.08197321 C6.82977624,9.20159888 6.81382591,9.29729941 6.87762724,9.44882525 C7.1806836,10.1825293 7.62729297,10.836483 8.12175334,11.4425864 C9.11864925,12.6707432 10.251123,13.7633243 11.6069014,14.608679 C11.8940075,14.792105 12.2130141,14.9197057 12.5160705,15.0871817 C12.6675987,15.1749072 12.779251,15.143007 12.8988785,15.0154063 C13.3534631,14.5448786 13.8239979,14.0823261 14.2865576,13.6197735 C14.9006455,13.0136701 15.6662616,13.0136701 16.2723743,13.6197735 C17.02204,14.3614526 17.7637306,15.1031318 18.5054211,15.8527859 C19.1434345,16.5067396 19.1434345,17.2723438 18.5133963,17.9023723 Z" id="Path-Copy" fill="#A7EBCF" fill-rule="evenodd"></path>
                    <path d="M18.5133963,17.9023723 C18.0907124,18.3330247 17.6441031,18.731777 17.2453447,19.1783795 C16.6631575,19.8323331 15.9294421,20.0396843 15.1000247,19.991834 C13.8877993,19.9280336 12.7633007,19.5213064 11.6866531,18.9949534 C9.28612776,17.8305969 7.23650977,16.2116629 5.52184881,14.1700516 C4.25379721,12.6627682 3.2090503,11.019909 2.51521075,9.16172365 C2.18025372,8.26054363 1.9409987,7.34341352 2.01277521,6.3704581 C2.06062621,5.77232977 2.2839309,5.26192693 2.7225651,4.83924957 C3.20107513,4.38467204 3.6476845,3.91414442 4.11821937,3.45159184 C4.73230725,2.84548847 5.49792331,2.85346351 6.11201119,3.45159184 C6.49481921,3.82641893 6.86167691,4.20124602 7.23650977,4.57607311 C7.60336747,4.94292515 7.97022516,5.30180215 8.32910769,5.66865419 C8.96712107,6.31463279 8.96712107,7.06428697 8.32910769,7.71026557 C7.87452315,8.17281814 7.41993862,8.63537072 6.94940375,9.08197321 C6.82977624,9.20159888 6.81382591,9.29729941 6.87762724,9.44882525 C7.1806836,10.1825293 7.62729297,10.836483 8.12175334,11.4425864 C9.11864925,12.6707432 10.251123,13.7633243 11.6069014,14.608679 C11.8940075,14.792105 12.2130141,14.9197057 12.5160705,15.0871817 C12.6675987,15.1749072 12.779251,15.143007 12.8988785,15.0154063 C13.3534631,14.5448786 13.8239979,14.0823261 14.2865576,13.6197735 C14.9006455,13.0136701 15.6662616,13.0136701 16.2723743,13.6197735 C17.02204,14.3614526 17.7637306,15.1031318 18.5054211,15.8527859 C19.1434345,16.5067396 19.1434345,17.2723438 18.5133963,17.9023723 Z" id="Path" stroke="#23CE86" stroke-width="1"></path>
                </g>
            </g>
        </g>
    </g>
</svg>