<?xml version="1.0" encoding="UTF-8"?>
<svg width="24px" height="24px" viewBox="0 0 24 24" version="1.1" xmlns="http://www.w3.org/2000/svg" xmlns:xlink="http://www.w3.org/1999/xlink">
    <!-- Generator: Sketch 55.2 (78181) - https://sketchapp.com -->
    <title>Icon/Side Menu/Visits</title>
    <desc>Created with Sketch.</desc>
    <g id="Icon/Side-Menu/Visits" stroke="none" stroke-width="1" fill="none" fill-rule="evenodd">
        <path d="M17.0035057,6.84 C17.0035057,6.378 16.6538124,6 16.2264096,6 L3.77709611,6 C3.34969325,6 3,6.378 3,6.84 L3,17.16 C3,17.622 3.34969325,18 3.77709611,18 L16.2264096,18 C16.6538124,18 17.0035057,17.622 17.0035057,17.16 L17.0035057,14.14 L20.24829,16.153531 C20.663448,16.4111547 21,16.2229687 21,15.7507232 L21,8.24927677 C21,7.76918847 20.6592611,7.59144341 20.24829,7.84646903 L17.0035057,9.86 L17.0035057,6.84 Z" id="Icon-Copy" fill="#D9F1FF"></path>
        <path d="M19.8528349,16.7908027 C20.7616464,17.3547601 21.75,16.8180229 21.75,15.7507232 L21.75,8.24927677 C21.75,7.17460015 20.7580646,6.64746256 19.8528349,7.20919728 L17.7535057,8.51192314 L17.7535057,6.84 C17.7535057,5.97626411 17.0816283,5.25 16.2264096,5.25 L3.77709611,5.25 C2.9218774,5.25 2.25,5.97626411 2.25,6.84 L2.25,17.16 C2.25,18.0237359 2.9218774,18.75 3.77709611,18.75 L16.2264096,18.75 C17.0816283,18.75 17.7535057,18.0237359 17.7535057,17.16 L17.7535057,15.4880769 L19.8528349,16.7908027 Z M20.25,15.2719231 L16.2535057,12.7919231 L16.2535057,17.16 C16.2535057,17.2202641 16.2259966,17.25 16.2264096,17.25 L3.77709611,17.25 C3.7775091,17.25 3.75,17.2202641 3.75,17.16 L3.75,6.84 C3.75,6.77973589 3.7775091,6.75 3.77709611,6.75 L16.2264096,6.75 C16.2259966,6.75 16.2535057,6.77973589 16.2535057,6.84 L16.2535057,11.2080769 L20.25,8.72807686 L20.25,15.2719231 Z" id="Icon" fill="#4496E9" fill-rule="nonzero"></path>
    </g>
</svg>