<?xml version="1.0" encoding="UTF-8"?>
<svg width="24px" height="24px" viewBox="0 0 24 24" version="1.1" xmlns="http://www.w3.org/2000/svg" xmlns:xlink="http://www.w3.org/1999/xlink">
    <!-- Generator: Sketch 55.2 (78181) - https://sketchapp.com -->
    <title>Icon/24/Connected</title>
    <desc>Created with Sketch.</desc>
    <g id="Icon/24/Connected" stroke="none" stroke-width="1" fill="none" fill-rule="evenodd">
        <path d="M20.4004331,19.6066196 L20.3092369,19.6951591 C19.9316849,20.0617903 19.7400651,20.2552584 19.5375481,20.4820731 C18.8424929,21.2628081 17.9386914,21.5832646 16.8427896,21.5200337 C15.5997727,21.4546128 14.3962666,21.0823565 13.0254131,20.412169 C10.435742,19.1560687 8.20114725,17.4031321 6.32389928,15.1679315 C4.85970026,13.4274953 3.76972305,11.6380721 3.04927519,9.70862478 C2.6064324,8.51718515 2.41101504,7.5401134 2.48580101,6.52650164 C2.54769864,5.75279316 2.84783231,5.09610053 3.40043981,4.56361469 C3.63963957,4.33637842 3.84453962,4.13284463 4.23531389,3.73806921 L4.37472752,3.59723597 C4.58405093,3.3859031 4.72541287,3.24440839 4.87092744,3.10136387 C5.72430464,2.25908246 6.86443137,2.26237758 7.72428088,3.09988299 C7.90227612,3.27416732 8.0809183,3.45204646 8.31508393,3.68740543 C8.42034411,3.7932732 8.42034411,3.7932732 8.52521202,3.89888858 C8.72202334,4.09710224 8.8092342,4.18477812 8.91889041,4.29443264 C9.05430234,4.42984248 9.60071992,4.97253458 9.4994613,4.87183084 C9.73552235,5.10659832 9.90974637,5.28153859 10.0780738,5.45361264 C10.9572788,6.34379402 10.9572788,7.46917985 10.0789969,8.35842432 C9.40316923,9.04609799 9.07342721,9.3766587 8.69954221,9.73354824 C8.96915164,10.3505792 9.35893941,10.9510379 9.89290108,11.6055638 C10.9958656,12.9643952 12.1553246,14.0337243 13.4570398,14.8454072 C13.583831,14.9264114 13.7035349,14.9895096 13.961279,15.1157384 L14.0435014,15.1560367 C14.1233736,15.1952837 14.1891985,15.2282038 14.2506192,15.2600374 C14.4978153,15.0056272 14.752057,14.749935 15.144018,14.3594731 C15.3904305,14.1141593 15.5129823,13.9920769 15.6374033,13.8676738 C16.4941992,13.0220181 17.638166,13.0220181 18.4842663,13.868116 C19.2793717,14.6547508 20.0660257,15.4413927 20.8552688,16.2391284 C21.7300119,17.1357263 21.7338271,18.2771145 20.8608692,19.1515856 C20.7303739,19.2845059 20.607724,19.4053031 20.4004331,19.6066196 Z M15.7902139,9.2051375 L19.4110199,9.2051375 L19.4110199,10.5816081 L13.428667,10.5816081 L13.428667,4.59925515 L14.8051376,4.59925515 L14.8051376,8.24359043 L19.2838751,3.76485294 L20.2571868,4.73816462 L15.7902139,9.2051375 Z" id="Combined-Shape" fill="#23CE86" fill-rule="nonzero"></path>
    </g>
</svg>