<?xml version="1.0" encoding="UTF-8"?>
<svg width="24px" height="24px" viewBox="0 0 24 24" version="1.1" xmlns="http://www.w3.org/2000/svg" xmlns:xlink="http://www.w3.org/1999/xlink">
    <!-- Generator: Sketch 52.2 (67145) - http://www.bohemiancoding.com/sketch -->
    <title>Icon/Side Menu/Dashboard</title>
    <desc>Created with Sketch.</desc>
    <g id="Icon/Side-Menu/Dashboard" stroke="none" stroke-width="1" fill="none" fill-rule="evenodd">
        <polygon id="Shape" points="0 0 24 0 24 24 0 24"></polygon>
        <path d="M15,12 L20,12 C20.5522847,12 21,12.4477153 21,13 L21,19 C21,19.5522847 20.5522847,20 20,20 L15,20 C14.4477153,20 14,19.5522847 14,19 L14,13 C14,12.4477153 14.4477153,12 15,12 Z M15,4 L20,4 C20.5522847,4 21,4.44771525 21,5 L21,8 C21,8.55228475 20.5522847,9 20,9 L15,9 C14.4477153,9 14,8.55228475 14,8 L14,5 C14,4.44771525 14.4477153,4 15,4 Z M5,20 C4.44771525,20 4,19.5522847 4,19 L4,5 C4,4.44771525 4.44771525,4 5,4 L10,4 C10.5522847,4 11,4.44771525 11,5 L11,19 C11,19.5522847 10.5522847,20 10,20 L5,20 Z" id="Combined-Shape" fill="#D9F1FF"></path>
        <path d="M15,11.25 L20,11.25 C20.9664983,11.25 21.75,12.0335017 21.75,13 L21.75,19 C21.75,19.9664983 20.9664983,20.75 20,20.75 L15,20.75 C14.0335017,20.75 13.25,19.9664983 13.25,19 L13.25,13 C13.25,12.0335017 14.0335017,11.25 15,11.25 Z M15,12.75 C14.8619288,12.75 14.75,12.8619288 14.75,13 L14.75,19 C14.75,19.1380712 14.8619288,19.25 15,19.25 L20,19.25 C20.1380712,19.25 20.25,19.1380712 20.25,19 L20.25,13 C20.25,12.8619288 20.1380712,12.75 20,12.75 L15,12.75 Z M15,3.25 L20,3.25 C20.9664983,3.25 21.75,4.03350169 21.75,5 L21.75,8 C21.75,8.96649831 20.9664983,9.75 20,9.75 L15,9.75 C14.0335017,9.75 13.25,8.96649831 13.25,8 L13.25,5 C13.25,4.03350169 14.0335017,3.25 15,3.25 Z M15,4.75 C14.8619288,4.75 14.75,4.86192881 14.75,5 L14.75,8 C14.75,8.13807119 14.8619288,8.25 15,8.25 L20,8.25 C20.1380712,8.25 20.25,8.13807119 20.25,8 L20.25,5 C20.25,4.86192881 20.1380712,4.75 20,4.75 L15,4.75 Z M5,20.75 C4.03350169,20.75 3.25,19.9664983 3.25,19 L3.25,5 C3.25,4.03350169 4.03350169,3.25 5,3.25 L10,3.25 C10.9664983,3.25 11.75,4.03350169 11.75,5 L11.75,19 C11.75,19.9664983 10.9664983,20.75 10,20.75 L5,20.75 Z M5,19.25 L10,19.25 C10.1380712,19.25 10.25,19.1380712 10.25,19 L10.25,5 C10.25,4.86192881 10.1380712,4.75 10,4.75 L5,4.75 C4.86192881,4.75 4.75,4.86192881 4.75,5 L4.75,19 C4.75,19.1380712 4.86192881,19.25 5,19.25 Z" id="Combined-Shape" fill="#4496E9" fill-rule="nonzero"></path>
    </g>
</svg>