<svg width="20" height="20" xmlns="http://www.w3.org/2000/svg"><g fill="none" fill-rule="evenodd"><path d="M0 0h20v20H0z"/><path d="M12.313 11.993l.076.064 2.164 2.164 2.165-2.164a.55.55 0 01.701-.064l.077.064a.55.55 0 01.063.701l-.063.076-2.178 2.177 2.178 2.177.063.076a.55.55 0 010 .625l-.063.077-.077.063a.55.55 0 01-.625 0l-.076-.063-2.165-2.164-2.164 2.164-.076.063a.55.55 0 01-.766-.765l.064-.076 2.177-2.177-2.177-2.177a.55.55 0 01.702-.841zM9.996 2a4.628 4.628 0 014.622 4.622 4.628 4.628 0 01-4.622 4.623 6.754 6.754 0 00-6.747 6.746H2c0-2.136.832-4.143 2.342-5.654a7.965 7.965 0 013.038-1.905 4.62 4.62 0 01-2.007-3.81A4.628 4.628 0 019.996 2zm0 1.25a3.377 3.377 0 00-3.374 3.372 3.377 3.377 0 003.374 3.374 3.377 3.377 0 003.373-3.374A3.377 3.377 0 009.996 3.25z" fill="#ED4856" fill-rule="nonzero"/></g></svg>