<?xml version="1.0" encoding="UTF-8"?>
<svg width="21px" height="22px" viewBox="0 0 21 22" version="1.1" xmlns="http://www.w3.org/2000/svg" xmlns:xlink="http://www.w3.org/1999/xlink">
    <!-- Generator: Sketch 55.2 (78181) - https://sketchapp.com -->
    <title>ico / timeline / disconnected</title>
    <desc>Created with Sketch.</desc>
    <g id="ico-/-timeline-/-disconnected" stroke="none" stroke-width="1" fill="none" fill-rule="evenodd">
        <path d="M1.01310471,8.66393153 C1.02037612,8.18089836 1.0197416,7.97008301 1.00495531,7.71239018 C0.95347565,6.83781615 1.30437019,6.11147876 1.99850421,5.50154052 C2.7755083,4.81180784 3.71003833,4.3255704 4.91875588,3.91631152 C7.19205084,3.13880735 9.54925974,2.85797501 11.9799277,3.06664745 C13.8740622,3.22768553 15.5766541,3.63560739 17.1440575,4.34093764 C18.1133627,4.77885858 18.8101815,5.23704274 19.3693317,5.87640403 C19.7969124,6.37147719 20.0116217,6.93976314 19.9995151,7.58363931 C19.993185,7.82706016 19.9918789,8.06632292 19.9934459,8.42552025 L19.9942885,8.59591672 C19.9960884,8.93977374 19.9963557,9.09384169 19.9946772,9.28724638 C19.9879514,10.3010162 19.2910781,10.9843892 18.2623918,10.9977454 C17.996683,11.0005061 17.7872247,11.0005077 17.3188216,10.9988671 C17.0860666,10.9980522 16.983079,10.9977821 16.8539263,10.9977831 C16.7274948,10.997784 16.6267954,10.9980556 16.3993968,10.998874 C15.9419422,11.0005221 15.7398261,11.0005237 15.4873989,10.9977841 C14.4161089,10.9912293 13.729784,10.3142989 13.7231474,9.25888189 C13.7163547,8.48773006 13.7157106,8.10318887 13.7248906,7.69238186 C13.2159665,7.50006645 12.647046,7.38232119 11.9661307,7.31419212 C10.5208364,7.16603159 9.21314429,7.21818944 7.97322232,7.50175079 C7.86740164,7.52474882 7.75943297,7.55671977 7.59259788,7.61252526 L7.49861079,7.64418973 C7.4186865,7.67119389 7.35738527,7.69162985 7.30274263,7.70913419 C7.30561881,7.92482955 7.30678224,8.15410025 7.30678009,8.42771779 C7.30677915,8.54732741 7.30662223,8.64300348 7.30615358,8.85744049 C7.30568587,9.07138114 7.30553029,9.16604163 7.3055188,9.28734276 C7.29876648,10.305107 6.60137463,10.9929529 5.57565438,10.9929538 C4.64335692,10.9978782 3.7160356,10.9978852 2.78028544,10.9929449 C1.70813317,10.9798977 1.01009512,10.2960578 1.0090908,9.25211323 C1.00754571,9.08669207 1.00872614,8.9547961 1.01310471,8.66393153 Z" id="Path" fill="#E9443A" fill-rule="nonzero"></path>
        <polygon id="Path-2" fill="#E9443A" fill-rule="nonzero" points="9.75 11 9.75 18 11.25 18 11.25 11"></polygon>
        <polygon id="Path" fill="#E9443A" fill-rule="nonzero" points="7.03539823 13.6 10.5 17.0646018 13.9646018 13.6 15 14.6353982 10.5 19.1353982 6 14.6353982"></polygon>
    </g>
</svg>