<?xml version="1.0" encoding="UTF-8"?>
<svg width="24px" height="24px" viewBox="0 0 24 24" version="1.1" xmlns="http://www.w3.org/2000/svg" xmlns:xlink="http://www.w3.org/1999/xlink">
    <!-- Generator: Sketch 52.2 (67145) - http://www.bohemiancoding.com/sketch -->
    <title>Icon/Side Menu/EMR</title>
    <desc>Created with Sketch.</desc>
    <g id="Icon/Side-Menu/EMR" stroke="none" stroke-width="1" fill="none" fill-rule="evenodd">
        <g id="Group" transform="translate(2.500000, 2.000000)">
            <path d="M9.33336157,9 C7.12422257,9 5.33336157,7.209139 5.33336157,5 C5.33336157,2.790861 7.12422257,1 9.33336157,1 C11.5425006,1 13.3333616,2.790861 13.3333616,5 C13.3333616,7.209139 11.5425006,9 9.33336157,9 Z M17.0437749,16.3388991 C17.1181893,16.5513665 17.1561977,16.7748729 17.1561977,16.9999948 C17.1561977,18.1045523 16.2607769,18.9999731 15.1562195,18.9999731 L3.39228149,18.9999948 C3.15672177,18.9999948 2.92301419,18.9583807 2.70193257,18.8770708 C1.66526148,18.4958016 1.13395325,17.3463339 1.51522243,16.3096628 L1.51520656,16.309657 C3.30744774,11.4365523 5.91349941,9 9.33336157,9 C12.7600575,9 15.3301952,11.4462997 17.0437749,16.3388991 Z" id="Combined-Shape" fill="#D9F1FF"></path>
            <path d="M12.1602798,8.81757647 C14.558804,9.85485394 16.425498,12.304664 17.7516158,16.0909855 C17.8539359,16.3831291 17.9061977,16.6904512 17.9061977,16.9999948 C17.9061977,18.5187659 16.6749905,19.7499731 15.1562208,19.7499731 L3.39228149,19.7499948 C3.06838613,19.7499948 2.74703746,19.6927753 2.44304954,19.5809739 C1.01762867,19.0567295 0.287076186,17.4762156 0.811303456,16.050774 C2.19675002,12.283744 4.09682596,9.84754147 6.50354802,8.81542724 C5.3383496,7.94980681 4.58336157,6.56307186 4.58336157,5 C4.58336157,2.37664744 6.71000901,0.25 9.33336157,0.25 C11.9567141,0.25 14.0833616,2.37664744 14.0833616,5 C14.0833616,6.56436615 13.3271227,7.95210324 12.1602798,8.81757647 Z M9.33336157,8.25 C11.128287,8.25 12.5833616,6.79492544 12.5833616,5 C12.5833616,3.20507456 11.128287,1.75 9.33336157,1.75 C7.53843614,1.75 6.08336157,3.20507456 6.08336157,5 C6.08336157,6.79492544 7.53843614,8.25 9.33336157,8.25 Z M16.4061977,16.9999948 C16.4061977,16.8592945 16.3824426,16.719604 16.3359339,16.5868127 C14.7170842,11.9646857 12.3902854,9.75 9.33336157,9.75 C6.27839403,9.75 3.91373099,11.9608638 2.21911362,16.5685292 C1.98082852,17.2164572 2.3128992,17.9348756 2.9608156,18.1731677 C3.09899091,18.2239861 3.24505742,18.2499948 3.3922801,18.2499948 L15.1562195,18.2499731 C15.8465634,18.2499731 16.4061977,17.6903387 16.4061977,16.9999948 Z" id="Combined-Shape" fill="#4496E9" fill-rule="nonzero"></path>
            <polygon id="Path-12" fill="#4496E9" fill-rule="nonzero" points="8.68336157 11.7663574 8.68336157 16.7438965 9.98336157 16.7438965 9.98336157 11.7663574"></polygon>
            <path d="M11.8221311,13.605127 L11.8221311,14.905127 L6.84459204,14.905127 L6.84459204,13.605127 L11.8221311,13.605127 Z M11.8221311,14.905127 L6.84459204,14.905127 L6.84459204,13.605127 L11.8221311,13.605127 L11.8221311,14.905127 Z" id="Path-12-Copy" fill="#4496E9" fill-rule="nonzero"></path>
        </g>
    </g>
</svg>