<?xml version="1.0" encoding="UTF-8"?>
<svg width="23px" height="23px" viewBox="0 0 23 23" version="1.1" xmlns="http://www.w3.org/2000/svg" xmlns:xlink="http://www.w3.org/1999/xlink">
    <!-- Generator: Sketch 50.2 (55047) - http://www.bohemiancoding.com/sketch -->
    <title>ico/medical summary dim copy</title>
    <desc>Created with Sketch.</desc>
    <defs></defs>
    <g id="Symbols" stroke="none" stroke-width="1" fill="none" fill-rule="evenodd">
        <g id="Dropdown-/-FAB-/-Operator" transform="translate(-175.000000, -73.000000)">
            <g id="ico-/-examination" transform="translate(175.000000, 73.000000)">
                <path d="M11,6.5 C9.61928813,6.5 8.5,5.38071187 8.5,4 C8.5,2.61928813 9.61928813,1.5 11,1.5 C12.3807119,1.5 13.5,2.61928813 13.5,4 C13.5,5.38071187 12.3807119,6.5 11,6.5 Z M1,11.5 C1,10.6715729 1.67157288,10 2.5,10 L20.5,10 C21.3284271,10 22,10.6715729 22,11.5 C22,12.3284271 21.3284271,13 20.5,13 L17,13 C16.4477153,13 16,13.4477153 16,14 L16,20.5 C16,21.3284271 15.3284271,22 14.5,22 C13.6715729,22 13,21.3284271 13,20.5 L13,18.578125 C13,17.7496979 12.3284271,17.078125 11.5,17.078125 C10.6715729,17.078125 10,17.7496979 10,18.578125 L10,20.5 C10,21.3284271 9.32842712,22 8.5,22 C7.67157288,22 7,21.3284271 7,20.5 L7,14 C7,13.4477153 6.55228475,13 6,13 L2.5,13 C1.67157288,13 1,12.3284271 1,11.5 Z" id="Oval-6" fill-opacity="0.4" fill="#4A16D6"></path>
                <g id="Group-2" stroke-width="1" transform="translate(1.000000, 2.000000)" stroke="#4A16D6">
                    <circle id="Oval-6" stroke-width="1.5" cx="10" cy="2" r="2.75"></circle>
                    <path d="M0,9.5 L0,9.5 C1.01453063e-16,10.3284271 0.671572875,11 1.5,11 L5,11 C5.55228475,11 6,11.4477153 6,12 L6,18.5 C6,19.3284271 6.67157288,20 7.5,20 L7.5,20 C8.32842712,20 9,19.3284271 9,18.5 L9,16.578125 C9,15.7496979 9.67157288,15.078125 10.5,15.078125 L10.5,15.078125 C11.3284271,15.078125 12,15.7496979 12,16.578125 L12,18.5 C12,19.3284271 12.6715729,20 13.5,20 L13.5,20 C14.3284271,20 15,19.3284271 15,18.5 L15,12 C15,11.4477153 15.4477153,11 16,11 L19.5,11 C20.3284271,11 21,10.3284271 21,9.5 L21,9.5 C21,8.67157288 20.3284271,8 19.5,8 L1.5,8 C0.671572875,8 -1.01453063e-16,8.67157288 0,9.5 Z" id="Path-5" stroke-width="1.5"></path>
                </g>
            </g>
        </g>
    </g>
</svg>