<?xml version="1.0" encoding="UTF-8"?>
<svg width="24px" height="24px" viewBox="0 0 24 24" version="1.1" xmlns="http://www.w3.org/2000/svg" xmlns:xlink="http://www.w3.org/1999/xlink">
    <!-- Generator: Sketch 55.2 (78181) - https://sketchapp.com -->
    <title>ico / invite</title>
    <desc>Created with Sketch.</desc>
    <g id="ico-/-invite" stroke="none" stroke-width="1" fill="none" fill-rule="evenodd">
        <path d="M7.5,9 C5.56700338,9 4,7.43299662 4,5.5 C4,3.56700338 5.56700338,2 7.5,2 C9.43299662,2 11,3.56700338 11,5.5 C11,7.43299662 9.43299662,9 7.5,9 Z M13,18.5 C13,21.5375661 2,21.5375661 2,18.5 C2,15.4624339 4.46243388,13 7.5,13 C10.5375661,13 13,15.4624339 13,18.5 Z" id="Oval-5-Copy-3" fill="#A7EBCF"></path>
        <path d="M13.7055024,20.3703047 C10.7416931,23.4320988 0.5,22.8086639 0.5,18.5 C0.5,14.6340068 3.63400675,11.5 7.5,11.5 C8.54989758,11.5 9.54580995,11.7311381 10.4396272,12.1453045 C11.3828515,9.71942191 13.7406295,8 16.5,8 C20.0898509,8 23,10.9101491 23,14.5 C23,18.0898509 20.0898509,21 16.5,21 C15.4996298,21 14.5520418,20.7740128 13.7055024,20.3703047 Z M12.4391839,19.5757133 C10.9522173,18.3845232 10,16.5534627 10,14.5 C10,14.2048839 10.0196675,13.9143613 10.0577632,13.6296715 C9.2936735,13.2275643 8.42341199,13 7.5,13 C4.46243388,13 2,15.4624339 2,18.5 C2,21.1221953 10.1973082,21.4807664 12.4391839,19.5757133 Z M7.5,10.5 C4.73857625,10.5 2.5,8.26142375 2.5,5.5 C2.5,2.73857625 4.73857625,0.5 7.5,0.5 C10.2614237,0.5 12.5,2.73857625 12.5,5.5 C12.5,8.26142375 10.2614237,10.5 7.5,10.5 Z M7.5,9 C9.43299662,9 11,7.43299662 11,5.5 C11,3.56700338 9.43299662,2 7.5,2 C5.56700338,2 4,3.56700338 4,5.5 C4,7.43299662 5.56700338,9 7.5,9 Z M17.15625,13.84375 L17.15625,11 L15.84375,11 L15.84375,13.84375 L13,13.84375 L13,15.15625 L15.84375,15.15625 L15.84375,18 L17.15625,18 L17.15625,15.15625 L20,15.15625 L20,13.84375 L17.15625,13.84375 Z" id="Combined-Shape" fill="#23CE86" fill-rule="nonzero"></path>
    </g>
</svg>