<?xml version="1.0" encoding="utf-8"?>
<!-- Generator: Adobe Illustrator 19.2.0, SVG Export Plug-In . SVG Version: 6.00 Build 0)  -->
<svg version="1.1" id="Layer_1" xmlns="http://www.w3.org/2000/svg" xmlns:xlink="http://www.w3.org/1999/xlink" x="0px" y="0px"
	 viewBox="0 0 16 20" style="enable-background:new 0 0 16 20;" xml:space="preserve">
<style type="text/css">
	.st0{fill:#D9F1FF;}
	.st1{fill:#4496E9;}
</style>
<title>Icon</title>
<desc>Created with Sketch.</desc>
<path id="XMLID_10_" class="st0" d="M14.8,14.2l-1.9-2.8c0-0.9,0-3,0-3.5c0-2.4-1.7-4.4-3.9-4.8V2c0-0.5-0.4-1-1-1C7.5,1,7,1.4,7,2
	V3C4.8,3.5,3.1,5.5,3.1,7.8c0,0.9,0,3,0,3.5l-1.9,2.8c-0.2,0.3-0.2,0.7-0.1,1c0.2,0.3,0.5,0.5,0.9,0.5H14c0.4,0,0.7-0.2,0.9-0.5
	C15.1,14.9,15,14.5,14.8,14.2z"/>
<path id="XMLID_3_" class="st1" d="M15.5,13.8l-1.8-2.6V7.8c0-2.5-1.6-4.6-3.9-5.4V2C9.7,1,8.9,0.2,8,0.2C7.1,0.2,6.3,1,6.3,2v0.5
	C4,3.2,2.3,5.3,2.3,7.8v3.3l-1.8,2.6c-0.4,0.5-0.4,1.2-0.1,1.8c0.3,0.6,0.9,0.9,1.5,0.9h3.1l0,0.4l0,0c0,1.6,1.3,2.9,2.9,2.9
	c1.6,0,2.9-1.3,2.9-2.9l0,0l0-0.4H14c0.6,0,1.2-0.4,1.5-0.9C15.8,15,15.8,14.3,15.5,13.8z M14.2,14.8c0,0.1-0.1,0.1-0.2,0.1H2
	c-0.1,0-0.2,0-0.2-0.1c0-0.1,0-0.2,0-0.2l2.1-3V7.8c0-2,1.4-3.7,3.3-4.1l0.6-0.1c0,0,0.1,0,0.2,0c0.1,0,0.2,0,0.2,0l0.6,0.1
	c1.9,0.4,3.3,2.1,3.3,4.1v3.8l2.1,3C14.3,14.7,14.3,14.8,14.2,14.8z"/>
</svg>
