<?xml version="1.0" encoding="UTF-8"?>
<svg width="21px" height="21px" viewBox="0 0 21 21" version="1.1" xmlns="http://www.w3.org/2000/svg" xmlns:xlink="http://www.w3.org/1999/xlink">
    <!-- Generator: Sketch 50.2 (55047) - http://www.bohemiancoding.com/sketch -->
    <title>ico/medical summary dim copy 2</title>
    <desc>Created with Sketch.</desc>
    <defs></defs>
    <g id="Symbols" stroke="none" stroke-width="1" fill="none" fill-rule="evenodd">
        <g id="Dropdown-/-FAB-/-Operator" transform="translate(-177.000000, -132.000000)">
            <g id="ico-/-schedule-a-follow-up-/-active" transform="translate(175.000000, 130.000000)">
                <path d="M16.5,4 L18,4 C19.6568542,4 21,5.34314575 21,7 L21,18 C21,19.6568542 19.6568542,21 18,21 L6,21 C4.34314575,21 3,19.6568542 3,18 L3,7 C3,5.34314575 4.34314575,4 6,4 L7.5,4 L7.5,2.75 C7.5,2.33578644 7.83578644,2 8.25,2 C8.66421356,2 9,2.33578644 9,2.75 L9,4 L15,4 L15,2.75 C15,2.33578644 15.3357864,2 15.75,2 C16.1642136,2 16.5,2.33578644 16.5,2.75 L16.5,4 Z" id="Combined-Shape" fill="#FECFCC"></path>
                <path d="M20.2,7 C20.2,5.78497355 19.2150264,4.8 18,4.8 L6,4.8 C4.78497355,4.8 3.8,5.78497355 3.8,7 L3.8,18 C3.8,19.2150264 4.78497355,20.2 6,20.2 L18,20.2 C19.2150264,20.2 20.2,19.2150264 20.2,18 C20.2,15.3194444 20.2,13.3194444 20.2,12 C20.2,10.875 20.2,9.20833333 20.2,7 Z M21.8,7 C21.8,9.2194553 21.8,10.886122 21.8,12 C21.8,13.3305664 21.8,15.3305664 21.8,18 C21.8,20.098682 20.098682,21.8 18,21.8 L6,21.8 C3.90131795,21.8 2.2,20.098682 2.2,18 L2.2,7 C2.2,4.90131795 3.90131795,3.2 6,3.2 L18,3.2 C20.098682,3.2 21.8,4.90131795 21.8,7 Z" id="Combined-Shape-Copy" fill="#ED4856"></path>
                <path d="M7,10 C7.55228475,10 8,10.4477153 8,11 C8,11.5522847 7.55228475,12 7,12 C6.44771525,12 6,11.5522847 6,11 C6,10.4477153 6.44771525,10 7,10 Z M12,10 C12.5522847,10 13,10.4477153 13,11 C13,11.5522847 12.5522847,12 12,12 C11.4477153,12 11,11.5522847 11,11 C11,10.4477153 11.4477153,10 12,10 Z M17,10 C17.5522847,10 18,10.4477153 18,11 C18,11.5522847 17.5522847,12 17,12 C16.4477153,12 16,11.5522847 16,11 C16,10.4477153 16.4477153,10 17,10 Z M7,15 C7.55228475,15 8,15.4477153 8,16 C8,16.5522847 7.55228475,17 7,17 C6.44771525,17 6,16.5522847 6,16 C6,15.4477153 6.44771525,15 7,15 Z M12,15 C12.5522847,15 13,15.4477153 13,16 C13,16.5522847 12.5522847,17 12,17 C11.4477153,17 11,16.5522847 11,16 C11,15.4477153 11.4477153,15 12,15 Z" id="Path" fill="#ED4856"></path>
                <rect id="Path" fill="#ED4856" x="7" y="2" width="2" height="5" rx="1"></rect>
                <rect id="Path" fill="#ED4856" x="15" y="2" width="2" height="5" rx="1"></rect>
                <g id="Group" stroke-width="1" transform="translate(12.000000, 12.000000)" fill="#ED4856" stroke="#FECFCC">
                    <path d="M5.3489926,0.408511513 C8.07363826,0.408511513 10.2894737,2.62434693 10.2894737,5.3489926 C10.2894737,8.07363826 8.07363826,10.2894737 5.3489926,10.2894737 C2.62434693,10.2894737 0.408511513,8.07363826 0.408511513,5.3489926 C0.408511513,2.62434693 2.62434693,0.408511513 5.3489926,0.408511513 Z M5.3489926,7.82154605 C6.71191514,7.82154605 7.82154605,6.7119246 7.82154605,5.3489926 C7.82154605,3.9860606 6.71191514,2.87643914 5.3489926,2.87643914 C3.98607006,2.87643914 2.87643914,3.9860606 2.87643914,5.3489926 C2.87643914,6.7119246 3.98607006,7.82154605 5.3489926,7.82154605 Z M6.58295641,4.12660362 C7.18415696,4.20929962 7.64720395,4.72506042 7.64720395,5.3489926 C7.64720395,6.03050319 7.09475072,6.58295641 6.41324013,6.58295641 L5.3489926,6.58295641 C4.66748201,6.58295641 4.11502878,6.03050319 4.11502878,5.3489926 L4.11502878,3.84436678 C4.11502878,3.16285619 4.66748201,2.61040296 5.3489926,2.61040296 C6.03050319,2.61040296 6.58295641,3.16285619 6.58295641,3.84436678 L6.58295641,4.12660362 Z" id="Path"></path>
                </g>
            </g>
        </g>
    </g>
</svg>