<?xml version="1.0" encoding="UTF-8"?>
<svg width="24px" height="24px" viewBox="0 0 24 24" version="1.1" xmlns="http://www.w3.org/2000/svg" xmlns:xlink="http://www.w3.org/1999/xlink">
    <!-- Generator: Sketch 55.2 (78181) - https://sketchapp.com -->
    <title>Icon/Side Menu/Specialists</title>
    <desc>Created with Sketch.</desc>
    <g id="Icon/Side-Menu/Specialists" stroke="none" stroke-width="1" fill="none" fill-rule="evenodd">
        <path d="M13.9702893,13.4707947 C13.9702893,12.0364439 15.1699134,10.8739905 16.6401447,10.8739905 C18.1104722,10.8739905 19.31,12.0363991 19.31,13.4707947 C19.31,14.5899404 18.5734868,15.5656031 17.5177662,15.9232596 L17.5177662,16.7643585 C17.5177662,19.2732561 15.4180758,21.31 12.8412487,21.31 C11.5930935,21.31 10.4008346,20.7163392 9.4861608,19.648318 C8.80273227,18.8503138 8.35382464,17.8718645 8.21270349,16.8821636 C7.91928983,16.4392368 7.37641928,15.7266969 6.58409183,14.7445438 C4.83079243,14.0024669 3.69,12.5143705 3.69,10.8486328 L3.69,4.68310547 C3.69,3.98674214 4.31411773,3.4378943 5.06343389,3.4378943 L6.3039382,3.44 L8.01552964,3.44 L8.01552964,5.11 L6.30395311,5.11 L5.40641191,5.1125818 L5.40641191,10.8486328 C5.40641191,11.5312422 5.75594842,12.1881453 6.40378577,12.7010715 C6.711816,12.9448978 7.0692945,13.1420658 7.45647549,13.283433 L7.48722983,13.2942901 C7.96635504,13.4658148 8.48803871,13.5549292 9.02407918,13.5549292 C9.51347444,13.5549292 9.99068947,13.481012 10.4184316,13.3433701 C10.4577491,13.3289551 10.4577491,13.3289551 10.4837786,13.3213044 C10.9171022,13.1755477 11.3098273,12.9658806 11.6443449,12.7010934 C12.2922099,12.1881453 12.6417464,11.5312422 12.6417464,10.8486328 L12.6417464,5.1125818 L11.7442053,5.11 L10.0326287,5.11 L10.0326287,3.44 L11.7442202,3.44 L12.9847245,3.4378943 C13.7340406,3.4378943 14.3581584,3.98674214 14.3581584,4.68310547 L14.3581584,10.8486328 C14.3581584,12.5588619 13.1556845,14.0791091 11.3304494,14.7991766 C10.6043311,15.7394553 10.1397093,16.4026969 9.9365839,16.7889012 C10.0561408,17.42177 10.3638582,18.0611057 10.8033568,18.5744407 C11.3931085,19.2630376 12.1169352,19.6353125 12.8413915,19.6353125 C14.4751587,19.6353125 15.8013543,18.3451676 15.8013543,16.7642212 L15.8013543,15.9357426 C14.7261103,15.5893971 13.9702893,14.6044869 13.9702893,13.4707947 Z" id="Path" fill="#4496E9" fill-rule="nonzero"></path>
        <path d="M16.6401447,14.3930487 C17.1673345,14.3930487 17.5935881,13.9773233 17.5935881,13.4707947 C17.5935881,12.9643876 17.1673179,12.548678 16.6401447,12.548678 C16.1130596,12.548678 15.6867012,12.9644412 15.6867012,13.4707947 C15.6867012,13.9772697 16.113043,14.3930487 16.6401447,14.3930487 Z" id="Path" fill="#D9F1FF"></path>
    </g>
</svg>