<?xml version="1.0" encoding="UTF-8"?>
<svg width="24px" height="24px" viewBox="0 0 24 24" version="1.1" xmlns="http://www.w3.org/2000/svg" xmlns:xlink="http://www.w3.org/1999/xlink">
    <!-- Generator: Sketch 52.2 (67145) - http://www.bohemiancoding.com/sketch -->
    <title>Icon/Side Menu/Membership</title>
    <desc>Created with Sketch.</desc>
    <g id="Icon/Side-Menu/Membership" stroke="none" stroke-width="1" fill="none" fill-rule="evenodd">
        <path d="M12,16.5407366 L8.30206552,19.2499114 C7.70804281,19.6851033 6.87369948,19.5563455 6.43850753,18.9623228 C6.18406553,18.6150179 6.11298357,18.166224 6.24764916,17.7572905 L7.68150286,13.4031648 L3.96219996,10.7234011 C3.36474471,10.2929337 3.22937435,9.45963767 3.65984181,8.86218242 C3.91152156,8.51287057 4.31638432,8.30658269 4.74691719,8.30828985 L9.33102199,8.32646692 L10.7303009,3.96110715 C10.9550759,3.25987168 11.7057558,2.8736242 12.4069912,3.09839925 C12.8169799,3.22981761 13.1382808,3.55111852 13.2696991,3.96110715 L14.668978,8.32646692 L19.2530828,8.30828985 C19.9894567,8.30536995 20.5887727,8.89995188 20.5916926,9.63632576 C20.5933998,10.0668586 20.3871119,10.4717214 20.0378,10.7234011 L16.3184971,13.4031648 L17.7523508,17.7572905 C17.9826799,18.4567214 17.6023977,19.2104407 16.9029668,19.4407697 C16.4940333,19.5754353 16.0452394,19.5043534 15.6979345,19.2499114 L12,16.5407366 Z" id="Star" fill="#D9F1FF"></path>
        <path d="M8.74530694,19.8549213 C7.81714645,20.5349087 6.513485,20.3337247 5.83349757,19.4055642 C5.43593195,18.8629002 5.32486639,18.1616599 5.53528136,17.5227012 L6.79727065,13.6904692 L3.52377043,11.3319071 C2.59024659,10.6593017 2.37873041,9.35727672 3.05133582,8.42375289 C3.44458542,7.87795312 4.07718348,7.5556283 4.74989109,7.55829575 L8.78453643,7.57429408 L10.0160951,3.73217458 C10.3673061,2.63649415 11.5402434,2.03298246 12.6359238,2.38419348 C13.276531,2.58953467 13.7785637,3.09156734 13.9839049,3.73217458 L15.2154636,7.57429408 L19.2501089,7.55829575 C20.4006931,7.55373341 21.3371244,8.48276767 21.3416867,9.63335186 C21.3443542,10.3060595 21.0220293,10.9386575 20.4762296,11.3319071 L17.2027293,13.6904692 L18.4647186,17.5227012 C18.8246077,18.615562 18.2304168,19.7932484 17.1375561,20.1531375 C16.4985974,20.3635525 15.7973571,20.2524869 15.2546931,19.8549213 L12,17.4704734 L8.74530694,19.8549213 Z M16.1411759,18.6449014 C16.2931218,18.7562198 16.4894691,18.7873181 16.6683775,18.7284019 C16.9743785,18.627633 17.140752,18.2978808 17.0399831,17.9918798 L15.4342649,13.1158603 L19.5993705,10.1148951 C19.7521944,10.0047853 19.8424454,9.8276578 19.8416985,9.63929967 C19.840421,9.3171361 19.5782203,9.0570065 19.2560567,9.05828396 L14.1224925,9.07863976 L12.5554934,4.19003972 C12.4979978,4.0106697 12.3574287,3.87010055 12.1780587,3.81260502 C11.8712681,3.71426593 11.5428457,3.88324921 11.4445066,4.19003972 L9.87750755,9.07863976 L4.74394328,9.05828396 C4.55558515,9.05753707 4.37845769,9.14778802 4.2683478,9.30061196 C4.08001829,9.56199863 4.13924282,9.92656563 4.4006295,10.1148951 L8.56573507,13.1158603 L6.96001695,17.9918798 C6.90110076,18.1707882 6.93219911,18.3671355 7.04351749,18.5190814 C7.23391397,18.7789664 7.59893917,18.8352979 7.85882411,18.6449014 L12,15.6109998 L16.1411759,18.6449014 Z" id="Star" fill="#4496E9" fill-rule="nonzero"></path>
    </g>
</svg>