<svg width="32" height="21" xmlns="http://www.w3.org/2000/svg"><g fill="none" fill-rule="evenodd"><path fill="#D9F1FF" d="M1.5 15.5h7.656v2.965L11.376 20h9.2l2.197-2.25.628-2.25L31 14.494l-1.524-2.26-2.666-2.578.646-2.245V5.325l-1.171-1.55H23.4l-1.343 1.55.715 3.378.628 1.273-2.097.824-2.577-.824-1.153-.947 2.09-1.887V4.09l-1.6-2.42h-2.81L12.57 2.9l-.463 2.425 1.014 2.352 1.057 1.352L12.57 10.5l-1.663.335-2.564-1.179L9.73 7.971V5.325l-1.905-1.55H5.824L4.52 5.325 3.98 6.56l.54 1.736.78 1.36-1.723 1.18-1.615 1.399-.462 1.607z"/><path d="M26.946 9.36a3.415 3.415 0 001.46-2.794 3.418 3.418 0 00-3.425-3.417 3.418 3.418 0 00-3.425 3.417 3.4 3.4 0 001.46 2.794 5.938 5.938 0 00-2.024 1.184 7.685 7.685 0 00-2.778-1.51 4.335 4.335 0 002.095-3.706A4.332 4.332 0 0015.97 1a4.335 4.335 0 00-4.339 4.328c0 1.57.837 2.949 2.096 3.707a7.749 7.749 0 00-2.749 1.492 5.986 5.986 0 00-2-1.16 3.415 3.415 0 001.46-2.795 3.418 3.418 0 00-3.425-3.417 3.418 3.418 0 00-3.425 3.417 3.4 3.4 0 001.46 2.794A5.998 5.998 0 001 15.032v.391c0 .012.012.024.024.024h7.26a7.944 7.944 0 00-.066 1v.403c0 1.74 1.413 3.15 3.158 3.15h9.2a3.153 3.153 0 003.158-3.15v-.403c0-.337-.023-.674-.065-1h7.307c.012 0 .024-.012.024-.024v-.39a6.021 6.021 0 00-4.054-5.673zm-4.44-2.8a2.474 2.474 0 012.475-2.47 2.474 2.474 0 012.475 2.47 2.48 2.48 0 01-2.428 2.469h-.094a2.468 2.468 0 01-2.428-2.47zm-9.937-1.232c0-1.865 1.52-3.38 3.39-3.38s3.389 1.515 3.389 3.38a3.39 3.39 0 01-3.194 3.375h-.391a3.39 3.39 0 01-3.194-3.375zM4.52 6.56a2.474 2.474 0 012.475-2.47 2.474 2.474 0 012.476 2.47 2.48 2.48 0 01-2.428 2.469h-.095a2.472 2.472 0 01-2.428-2.47zm3.93 7.934H1.962A5.067 5.067 0 016.96 9.976H7.03a5.026 5.026 0 013.235 1.202 7.768 7.768 0 00-1.816 3.316zm14.323 2.356a2.209 2.209 0 01-2.208 2.203h-9.2a2.209 2.209 0 01-2.21-2.203v-.403c0-3.676 2.945-6.684 6.608-6.79.065.005.136.005.201.005.066 0 .137 0 .202-.006 3.663.107 6.607 3.115 6.607 6.791v.403h0zm.706-2.356a7.748 7.748 0 00-1.798-3.292 5.05 5.05 0 013.264-1.226h.072a5.067 5.067 0 014.998 4.518h-6.536z" stroke="#4496E9" stroke-width=".5" fill="#4496E9" fill-rule="nonzero"/></g></svg>