<svg width="20" height="20" xmlns="http://www.w3.org/2000/svg"><g fill="none" fill-rule="evenodd"><path d="M0 0h20v20H0z"/><path d="M14.063 2c.345 0 .624.28.624.625v.625h.813c1.378 0 2.5 1.122 2.5 2.5v3.563a.625.625 0 11-1.25 0V5.75c0-.69-.56-1.25-1.25-1.25h-.813v.625a.625.625 0 11-1.25 0V4.5h-2.843v.625a.625.625 0 11-1.25 0V4.5H6.53v.625a.625.625 0 11-1.25 0V4.5H4.5c-.69 0-1.25.56-1.25 1.25v9.75c0 .69.56 1.25 1.25 1.25h4.781a.625.625 0 110 1.25H4.5A2.503 2.503 0 012 15.5V5.75c0-1.378 1.122-2.5 2.5-2.5h.781v-.625a.625.625 0 111.25 0v.625h2.813v-.625a.625.625 0 111.25 0v.625h2.844v-.625c0-.345.28-.625.624-.625zm.156 8.438A3.786 3.786 0 0118 14.217 3.786 3.786 0 0114.219 18a3.786 3.786 0 01-3.781-3.781 3.786 3.786 0 013.78-3.781zm0 1.25a2.534 2.534 0 00-2.531 2.53 2.534 2.534 0 002.53 2.532 2.534 2.534 0 002.532-2.531 2.534 2.534 0 00-2.531-2.531zm0 .624c.345 0 .625.28.625.626v.656h.281a.625.625 0 110 1.25h-.906a.625.625 0 01-.625-.625v-1.281c0-.346.28-.626.625-.626zm-8.313 1.063a.625.625 0 110 1.25.625.625 0 010-1.25zm2.719 0a.625.625 0 110 1.25.625.625 0 010-1.25zm0-2.719a.625.625 0 110 1.25.625.625 0 010-1.25zm-2.719 0a.625.625 0 110 1.25.625.625 0 010-1.25zm8.157-2.719a.625.625 0 110 1.25.625.625 0 010-1.25zm-2.72 0a.625.625 0 110 1.25.625.625 0 010-1.25zm-5.437 0a.625.625 0 110 1.25.625.625 0 010-1.25zm2.719 0a.625.625 0 110 1.25.625.625 0 010-1.25z" fill="#4496E9" fill-rule="nonzero"/></g></svg>