<?xml version="1.0" encoding="UTF-8"?>
<svg width="24px" height="24px" viewBox="0 0 24 24" version="1.1" xmlns="http://www.w3.org/2000/svg" xmlns:xlink="http://www.w3.org/1999/xlink">
    <!-- Generator: Sketch 55.2 (78181) - https://sketchapp.com -->
    <title>ico / provide vitals</title>
    <desc>Created with Sketch.</desc>
    <g id="ico-/-provide-vitals" stroke="none" stroke-width="1" fill="none" fill-rule="evenodd">
        <path d="M16.8870137,2.13521172 C16.7067314,1.95492943 16.4144938,1.95492943 16.2343918,2.13521172 C16.0541095,2.31549402 16.0541095,2.60773162 16.2343918,2.7878336 L17.1554541,3.70907618 L15.452868,5.41184249 L13.9529193,3.91189375 C13.772637,3.73161145 13.4803994,3.73161145 13.3001171,3.91189375 C13.1200151,4.09199578 13.1200151,4.38423338 13.3001171,4.56451568 L13.9518376,5.2162362 L6.01454877,13.153525 C5.5140851,13.6547098 5.34389861,14.3978334 5.57610221,15.0670413 L5.15153743,15.4872794 C4.35018258,16.2805215 4.239309,17.5369088 4.88976753,18.4581514 L2.13523427,21.2125044 C1.95495197,21.3927866 1.95495197,21.6850243 2.135054,21.8651263 C2.3153363,22.0454086 2.60757389,22.0454086 2.78785619,21.8653066 L5.54220919,19.1107733 C5.93089778,19.3867855 6.39620643,19.5344367 6.87287283,19.533355 L6.8790024,19.533355 C7.49340448,19.5335353 8.08220649,19.2870894 8.51308117,18.8491837 L8.93349949,18.4246189 C9.60270739,18.6568225 10.3456507,18.486636 10.8470158,17.9861723 L18.7843046,10.048523 L19.4360251,10.7002435 C19.6163074,10.8805258 19.9085451,10.8805258 20.0886471,10.7002435 C20.2689294,10.5199612 20.2689294,10.2277236 20.0886471,10.0474413 L18.7368904,8.69568458 L20.4322651,6.98588725 L21.2121664,7.76596878 C21.3924487,7.9460708 21.6846862,7.9460708 21.8647883,7.76578851 C22.0450706,7.58568648 22.0450706,7.29344883 21.8647883,7.11316653 L16.8870137,2.13521172 Z" id="Shape-Copy" fill="#FFFBE2" fill-rule="nonzero"></path>
        <path d="M16.8870137,2.13521172 C16.7067314,1.95492943 16.4144938,1.95492943 16.2343918,2.13521172 C16.0541095,2.31549402 16.0541095,2.60773162 16.2343918,2.7878336 L17.1554541,3.70907618 L15.452868,5.41184249 L13.9529193,3.91189375 C13.772637,3.73161145 13.4803994,3.73161145 13.3001171,3.91189375 C13.1200151,4.09199578 13.1200151,4.38423338 13.3001171,4.56451568 L13.9518376,5.2162362 L6.01454877,13.153525 C5.5140851,13.6547098 5.34389861,14.3978334 5.57610221,15.0670413 L5.15153743,15.4872794 C4.35018258,16.2805215 4.239309,17.5369088 4.88976753,18.4581514 L2.13523427,21.2125044 C1.95495197,21.3927866 1.95495197,21.6850243 2.135054,21.8651263 C2.3153363,22.0454086 2.60757389,22.0454086 2.78785619,21.8653066 L5.54220919,19.1107733 C5.93089778,19.3867855 6.39620643,19.5344367 6.87287283,19.533355 L6.8790024,19.533355 C7.49340448,19.5335353 8.08220649,19.2870894 8.51308117,18.8491837 L8.93349949,18.4246189 C9.60270739,18.6568225 10.3456507,18.486636 10.8470158,17.9861723 L18.7843046,10.048523 L19.4360251,10.7002435 C19.6163074,10.8805258 19.9085451,10.8805258 20.0886471,10.7002435 C20.2689294,10.5199612 20.2689294,10.2277236 20.0886471,10.0474413 L18.7368904,8.69568458 L20.4322651,6.98588725 L21.2121664,7.76596878 C21.3924487,7.9460708 21.6846862,7.9460708 21.8647883,7.76578851 C22.0450706,7.58568648 22.0450706,7.29344883 21.8647883,7.11316653 L16.8870137,2.13521172 Z M6.87665875,18.6101354 L6.87287283,18.6101354 C6.5056378,18.6112111 6.15300557,18.4651824 5.89393992,18.2046745 L5.79568608,18.1064206 C5.53517817,17.8459127 5.38914948,17.4921988 5.39022523,17.1237018 C5.3911326,16.7553851 5.53896408,16.4023923 5.80073398,16.1431464 L6.09874061,15.8483848 L8.15197571,17.9016199 L7.85703391,18.1996266 C7.59850907,18.4622979 7.24515577,18.6103097 6.87647848,18.6101354 L6.87665875,18.6101354 Z M16.7013229,10.8259002 L15.0445286,9.16910593 C14.8637055,8.99278981 14.5745327,8.99459266 14.3960532,9.17325238 C14.2173934,9.35191215 14.2155906,9.64090469 14.3919067,9.8217278 L16.048701,11.4787024 L15.2343659,12.2930376 L14.0266547,11.0855067 C13.8463724,10.9052244 13.5541349,10.9052244 13.3738526,11.0855067 C13.1935703,11.2656088 13.1935703,11.5578464 13.3738526,11.7381287 L14.5815636,12.9458398 L13.4493908,14.0780126 L11.7823204,12.428069 C11.6011367,12.2488684 11.3088991,12.2503107 11.1296985,12.4314944 C10.9503176,12.6126781 10.9519401,12.9049157 11.1331238,13.0842966 L12.7965886,14.7306346 L11.6494523,15.8781314 L10.4421018,14.6545554 C10.2630815,14.4730111 9.97084387,14.4710281 9.78929958,14.6500484 C9.60775529,14.8290687 9.60577217,15.1213063 9.78479253,15.3028506 L10.9964699,16.5307533 L10.1942136,17.3331899 C9.833649,17.6935741 9.24935408,17.6935741 8.88878948,17.3331899 L6.66717074,15.1115711 C6.30660614,14.7510065 6.30660614,14.1665313 6.66717074,13.8061469 L14.6044595,5.86885813 L18.1315024,9.39590104 L16.7013229,10.8259002 Z M18.0842685,8.04306266 L16.10549,6.06428414 L17.8082563,4.36205869 L19.7796432,6.3334456 L18.0842685,8.04306266 Z" id="Shape" fill="#E2C80E" fill-rule="nonzero"></path>
    </g>
</svg>