<?xml version="1.0" encoding="UTF-8"?>
<svg width="146px" height="65px" viewBox="0 0 146 65" version="1.1" xmlns="http://www.w3.org/2000/svg" xmlns:xlink="http://www.w3.org/1999/xlink">
    <title>Group 4</title>
    <g id="01-Sign-Up---desktop-&amp;-mobile" stroke="none" stroke-width="1" fill="none" fill-rule="evenodd">
        <g id="01-01-00-Alternate-sign-up" transform="translate(-891.000000, -235.000000)">
            <g id="Group-4" transform="translate(892.000000, 236.000000)" fill="#000000" fill-rule="nonzero">
                <g id="2798818" transform="translate(39.000000, 0.000000)">
                    <path d="M73.083871,21.0580645 L56.9806452,21.0580645 L56.9806452,16.1032258 L58.2193548,16.1032258 C58.9034753,16.1032258 59.4580645,15.5486366 59.4580645,14.8645161 L59.4580645,9.90967742 C59.4580645,9.22555696 58.9034753,8.67096774 58.2193548,8.67096774 L49.5483871,8.67096774 L49.5483871,1.23870968 C49.5483871,0.554589213 48.9937979,0 48.3096774,0 L26.0129032,0 C25.3287828,0 24.7741935,0.554589213 24.7741935,1.23870968 L24.7741935,8.67096774 L16.1032258,8.67096774 C15.4191053,8.67096774 14.8645161,9.22555696 14.8645161,9.90967742 L14.8645161,14.8645161 C14.8645161,15.5486366 15.4191053,16.1032258 16.1032258,16.1032258 L17.3419355,16.1032258 L17.3419355,21.0580645 L1.23870968,21.0580645 C0.554589213,21.0580645 0,21.6126537 0,22.2967742 L0,61.9354839 C0,62.6196043 0.554589213,63.1741935 1.23870968,63.1741935 L73.083871,63.1741935 C73.7679914,63.1741935 74.3225806,62.6196043 74.3225806,61.9354839 L74.3225806,22.2967742 C74.3225806,21.6126537 73.7679914,21.0580645 73.083871,21.0580645 Z M17.3419355,60.6967742 L2.47741935,60.6967742 L2.47741935,23.5354839 L17.3419355,23.5354839 L17.3419355,60.6967742 Z M27.2516129,2.47741935 L47.0709677,2.47741935 L47.0709677,22.2967742 L27.2516129,22.2967742 L27.2516129,2.47741935 Z M17.3419355,13.6258065 L17.3419355,11.1483871 L24.7741935,11.1483871 L24.7741935,13.6258065 L17.3419355,13.6258065 Z M35.9225806,60.6967742 L30.9677419,60.6967742 L30.9677419,50.7870968 L35.9225806,50.7870968 L35.9225806,60.6967742 Z M43.3548387,60.6967742 L38.4,60.6967742 L38.4,50.7870968 L43.3548387,50.7870968 L43.3548387,60.6967742 Z M54.5032258,60.6967742 L45.8322581,60.6967742 L45.8322581,49.5483871 C45.8322581,48.8642666 45.2776689,48.3096774 44.5935484,48.3096774 L29.7290323,48.3096774 C29.0449118,48.3096774 28.4903226,48.8642666 28.4903226,49.5483871 L28.4903226,60.6967742 L19.8193548,60.6967742 L19.8193548,16.1032258 L24.7741935,16.1032258 L24.7741935,23.5354839 C24.7741935,24.2196043 25.3287828,24.7741935 26.0129032,24.7741935 L48.3096774,24.7741935 C48.9937979,24.7741935 49.5483871,24.2196043 49.5483871,23.5354839 L49.5483871,16.1032258 L54.5032258,16.1032258 L54.5032258,60.6967742 Z M49.5483871,13.6258065 L49.5483871,11.1483871 L56.9806452,11.1483871 L56.9806452,13.6258065 L49.5483871,13.6258065 Z M71.8451613,60.6967742 L56.9806452,60.6967742 L56.9806452,23.5354839 L71.8451613,23.5354839 L71.8451613,60.6967742 Z" id="Shape" stroke="#FFFFFF" stroke-width="0.3"></path>
                    <path d="M43.3548387,8.67096774 L40.8774194,8.67096774 L40.8774194,6.19354839 C40.8774194,5.50942792 40.3228301,4.95483871 39.6387097,4.95483871 L34.683871,4.95483871 C33.9997505,4.95483871 33.4451613,5.50942792 33.4451613,6.19354839 L33.4451613,8.67096774 L30.9677419,8.67096774 C30.2836215,8.67096774 29.7290323,9.22555696 29.7290323,9.90967742 L29.7290323,14.8645161 C29.7290323,15.5486366 30.2836215,16.1032258 30.9677419,16.1032258 L33.4451613,16.1032258 L33.4451613,18.5806452 C33.4451613,19.2647656 33.9997505,19.8193548 34.683871,19.8193548 L39.6387097,19.8193548 C40.3228301,19.8193548 40.8774194,19.2647656 40.8774194,18.5806452 L40.8774194,16.1032258 L43.3548387,16.1032258 C44.0389592,16.1032258 44.5935484,15.5486366 44.5935484,14.8645161 L44.5935484,9.90967742 C44.5935484,9.22555696 44.0389592,8.67096774 43.3548387,8.67096774 Z M42.116129,13.6258065 L39.6387097,13.6258065 C38.9545892,13.6258065 38.4,14.1803957 38.4,14.8645161 L38.4,17.3419355 L35.9225806,17.3419355 L35.9225806,14.8645161 C35.9225806,14.1803957 35.3679914,13.6258065 34.683871,13.6258065 L32.2064516,13.6258065 L32.2064516,11.1483871 L34.683871,11.1483871 C35.3679914,11.1483871 35.9225806,10.5937979 35.9225806,9.90967742 L35.9225806,7.43225806 L38.4,7.43225806 L38.4,9.90967742 C38.4,10.5937979 38.9545892,11.1483871 39.6387097,11.1483871 L42.116129,11.1483871 L42.116129,13.6258065 Z" id="Shape" stroke="#FFFFFF" stroke-width="0.3"></path>
                    <polygon id="Path" points="23.5354839 28.4903226 26.0129032 28.4903226 26.0129032 30.9677419 23.5354839 30.9677419"></polygon>
                    <polygon id="Path" points="28.4903226 28.4903226 30.9677419 28.4903226 30.9677419 30.9677419 28.4903226 30.9677419"></polygon>
                    <polygon id="Path" points="33.4451613 28.4903226 35.9225806 28.4903226 35.9225806 30.9677419 33.4451613 30.9677419"></polygon>
                    <polygon id="Path" points="38.4 28.4903226 40.8774194 28.4903226 40.8774194 30.9677419 38.4 30.9677419"></polygon>
                    <polygon id="Path" points="43.3548387 28.4903226 45.8322581 28.4903226 45.8322581 30.9677419 43.3548387 30.9677419"></polygon>
                    <polygon id="Path" points="48.3096774 28.4903226 50.7870968 28.4903226 50.7870968 30.9677419 48.3096774 30.9677419"></polygon>
                    <polygon id="Path" points="23.5354839 33.4451613 26.0129032 33.4451613 26.0129032 35.9225806 23.5354839 35.9225806"></polygon>
                    <polygon id="Path" points="28.4903226 33.4451613 30.9677419 33.4451613 30.9677419 35.9225806 28.4903226 35.9225806"></polygon>
                    <polygon id="Path" points="33.4451613 33.4451613 35.9225806 33.4451613 35.9225806 35.9225806 33.4451613 35.9225806"></polygon>
                    <polygon id="Path" points="38.4 33.4451613 40.8774194 33.4451613 40.8774194 35.9225806 38.4 35.9225806"></polygon>
                    <polygon id="Path" points="43.3548387 33.4451613 45.8322581 33.4451613 45.8322581 35.9225806 43.3548387 35.9225806"></polygon>
                    <polygon id="Path" points="48.3096774 33.4451613 50.7870968 33.4451613 50.7870968 35.9225806 48.3096774 35.9225806"></polygon>
                    <polygon id="Path" points="60.6967742 28.4903226 63.1741935 28.4903226 63.1741935 30.9677419 60.6967742 30.9677419"></polygon>
                    <polygon id="Path" points="65.6516129 28.4903226 68.1290323 28.4903226 68.1290323 30.9677419 65.6516129 30.9677419"></polygon>
                    <polygon id="Path" points="60.6967742 33.4451613 63.1741935 33.4451613 63.1741935 35.9225806 60.6967742 35.9225806"></polygon>
                    <polygon id="Path" points="65.6516129 33.4451613 68.1290323 33.4451613 68.1290323 35.9225806 65.6516129 35.9225806"></polygon>
                    <polygon id="Path" points="60.6967742 38.4 63.1741935 38.4 63.1741935 40.8774194 60.6967742 40.8774194"></polygon>
                    <polygon id="Path" points="65.6516129 38.4 68.1290323 38.4 68.1290323 40.8774194 65.6516129 40.8774194"></polygon>
                    <polygon id="Path" points="60.6967742 43.3548387 63.1741935 43.3548387 63.1741935 45.8322581 60.6967742 45.8322581"></polygon>
                    <polygon id="Path" points="65.6516129 43.3548387 68.1290323 43.3548387 68.1290323 45.8322581 65.6516129 45.8322581"></polygon>
                    <polygon id="Path" points="60.6967742 48.3096774 63.1741935 48.3096774 63.1741935 50.7870968 60.6967742 50.7870968"></polygon>
                    <polygon id="Path" points="65.6516129 48.3096774 68.1290323 48.3096774 68.1290323 50.7870968 65.6516129 50.7870968"></polygon>
                    <polygon id="Path" points="60.6967742 53.2645161 63.1741935 53.2645161 63.1741935 55.7419355 60.6967742 55.7419355"></polygon>
                    <polygon id="Path" points="65.6516129 53.2645161 68.1290323 53.2645161 68.1290323 55.7419355 65.6516129 55.7419355"></polygon>
                    <polygon id="Path" points="6.19354839 28.4903226 8.67096774 28.4903226 8.67096774 30.9677419 6.19354839 30.9677419"></polygon>
                    <polygon id="Path" points="11.1483871 28.4903226 13.6258065 28.4903226 13.6258065 30.9677419 11.1483871 30.9677419"></polygon>
                    <polygon id="Path" points="6.19354839 33.4451613 8.67096774 33.4451613 8.67096774 35.9225806 6.19354839 35.9225806"></polygon>
                    <polygon id="Path" points="11.1483871 33.4451613 13.6258065 33.4451613 13.6258065 35.9225806 11.1483871 35.9225806"></polygon>
                    <polygon id="Path" points="6.19354839 38.4 8.67096774 38.4 8.67096774 40.8774194 6.19354839 40.8774194"></polygon>
                    <polygon id="Path" points="11.1483871 38.4 13.6258065 38.4 13.6258065 40.8774194 11.1483871 40.8774194"></polygon>
                    <polygon id="Path" points="6.19354839 43.3548387 8.67096774 43.3548387 8.67096774 45.8322581 6.19354839 45.8322581"></polygon>
                    <polygon id="Path" points="11.1483871 43.3548387 13.6258065 43.3548387 13.6258065 45.8322581 11.1483871 45.8322581"></polygon>
                    <polygon id="Path" points="6.19354839 53.2645161 8.67096774 53.2645161 8.67096774 55.7419355 6.19354839 55.7419355"></polygon>
                    <polygon id="Path" points="11.1483871 53.2645161 13.6258065 53.2645161 13.6258065 55.7419355 11.1483871 55.7419355"></polygon>
                    <polygon id="Path" points="6.19354839 48.3096774 8.67096774 48.3096774 8.67096774 50.7870968 6.19354839 50.7870968"></polygon>
                    <polygon id="Path" points="11.1483871 48.3096774 13.6258065 48.3096774 13.6258065 50.7870968 11.1483871 50.7870968"></polygon>
                    <polygon id="Path" points="23.5354839 38.4 26.0129032 38.4 26.0129032 40.8774194 23.5354839 40.8774194"></polygon>
                    <polygon id="Path" points="28.4903226 38.4 30.9677419 38.4 30.9677419 40.8774194 28.4903226 40.8774194"></polygon>
                    <polygon id="Path" points="33.4451613 38.4 35.9225806 38.4 35.9225806 40.8774194 33.4451613 40.8774194"></polygon>
                    <polygon id="Path" points="38.4 38.4 40.8774194 38.4 40.8774194 40.8774194 38.4 40.8774194"></polygon>
                    <polygon id="Path" points="43.3548387 38.4 45.8322581 38.4 45.8322581 40.8774194 43.3548387 40.8774194"></polygon>
                    <polygon id="Path" points="48.3096774 38.4 50.7870968 38.4 50.7870968 40.8774194 48.3096774 40.8774194"></polygon>
                    <polygon id="Path" points="23.5354839 43.3548387 26.0129032 43.3548387 26.0129032 45.8322581 23.5354839 45.8322581"></polygon>
                    <polygon id="Path" points="28.4903226 43.3548387 30.9677419 43.3548387 30.9677419 45.8322581 28.4903226 45.8322581"></polygon>
                    <polygon id="Path" points="33.4451613 43.3548387 35.9225806 43.3548387 35.9225806 45.8322581 33.4451613 45.8322581"></polygon>
                    <polygon id="Path" points="38.4 43.3548387 40.8774194 43.3548387 40.8774194 45.8322581 38.4 45.8322581"></polygon>
                    <polygon id="Path" points="43.3548387 43.3548387 45.8322581 43.3548387 45.8322581 45.8322581 43.3548387 45.8322581"></polygon>
                    <polygon id="Path" points="48.3096774 43.3548387 50.7870968 43.3548387 50.7870968 45.8322581 48.3096774 45.8322581"></polygon>
                </g>
                <path d="M30.5795813,15.4 C30.6316126,15.4 30.6833626,15.4049687 30.7343626,15.4149062 C31.9235813,15.6460937 32.7349876,16.1738125 33.1461751,16.983625 C33.4520813,17.5861562 33.4599563,18.2054687 33.3849563,18.6873437 C35.9675813,19.7696875 36.3477376,22.513375 36.3638626,22.6405 L36.3687141,22.6916641 L36.3687141,22.6916641 L36.3703313,22.7429687 L36.3703313,28.560625 C36.3703313,29.235625 36.1780501,29.9007812 35.8144876,30.4841875 C34.8255289,32.0702835 34.4823334,34.0301496 34.4456985,34.2533064 C33.9884595,39.2904458 31.9321282,41.6046685 30.5952906,42.5923949 L30.595,44.501 L33.1692376,45.4238125 L33.1708047,45.4243752 L33.1712063,45.42475 L37.189,46.878 L37.189,48.604 L34.5271126,47.6410937 L36.3118313,51.2200937 C36.4362376,51.46975 36.4237688,51.765625 36.2789251,52.0040312 C36.1546126,52.2082187 35.9480603,52.345595 35.7159446,52.383335 L35.5980188,52.39375 L33.5518313,52.42525 L34.0813313,53.4361562 C34.2333313,53.7262396 34.1946646,54.0748414 33.993249,54.3232787 L33.9101438,54.4114375 L26.0716126,61.5818125 L37.189,61.581 L37.189,63.204 L2.96608131,63.2048125 C2.09326881,63.2048125 1.26873756,62.8229688 0.704081313,62.15725 C0.182946697,61.5427404 -0.0633950186,60.7493757 0.0139437388,59.953461 L0.0400500628,59.7545313 L1.08695631,53.4326875 C1.40366631,51.5200075 2.69246271,49.9094683 4.47517335,49.1761207 L4.70055006,49.0890625 L14.8296331,45.4243921 C14.8293033,45.4245112 14.8289735,45.4246305 14.8286438,45.42475 L14.8308938,45.4239063 L17.404,44.501 L17.4035454,42.7108245 C13.7999947,40.066587 13.572091,34.7780233 13.5594227,34.3478448 L13.5588938,34.3278437 L13.558754,33.0201543 C13.490577,31.9105998 13.0734848,31.1753832 12.7343626,30.7530625 C12.0983049,29.9610625 11.7259365,28.9748702 11.6724127,27.9519876 L11.6657063,27.6955937 L11.6657063,23.4214375 C11.6657063,19.0817677 15.1296047,15.536079 19.4375943,15.4038244 L19.6870501,15.4 L30.5795813,15.4 Z M13.4732063,47.6410938 L5.25273756,50.615125 C3.97246413,51.07825 3.02165959,52.1673152 2.7290737,53.4874189 L2.68839381,53.6977188 L1.64148756,60.0195625 C1.57698756,60.4095625 1.68648756,60.8060313 1.94205006,61.1074375 C2.16566725,61.37125 2.47943678,61.536584 2.81917177,61.5737954 L2.96617506,61.5818125 L21.9287063,61.5818125 L14.0901751,54.4113438 C13.8486751,54.1904271 13.7662862,53.8494363 13.8709919,53.5472522 L13.9190813,53.4360625 L14.4485813,52.4251563 L12.4023938,52.3935625 C12.1234876,52.3893438 11.8663313,52.2421563 11.7214876,52.0038438 C11.5971751,51.7994955 11.5703243,51.5529254 11.643592,51.3294292 L11.6885813,51.2199063 L13.4732063,47.6410938 Z M15.139,47.935 L13.7163001,50.7908125 L15.7914563,50.8227813 C16.0731751,50.8271875 16.3324876,50.9772813 16.4764876,51.2194375 C16.5998358,51.4270804 16.6234493,51.6768074 16.5453208,51.9010793 L16.4977688,52.0107813 L15.6466126,53.63575 L24,61.277 L32.3532376,53.63575 L31.5021751,52.0107812 C31.3714876,51.761125 31.3795501,51.4616875 31.5235501,51.2194375 C31.649468,51.0074687 31.8638157,50.8661289 32.1041647,50.8311541 L32.2085813,50.8227812 L34.2835501,50.7908125 L32.859,47.936 L28.9322063,55.0770625 C28.8177777,55.2852679 28.6191119,55.4308635 28.3905828,55.4796665 L28.2740813,55.4958437 C28.2563626,55.4970625 28.2386438,55.4977187 28.2210188,55.4977187 C28.0005188,55.4977187 27.7902127,55.4079024 27.6380392,55.2505861 L27.5670188,55.1664062 L24.002,50.311 L22.7090813,52.066375 L22.6885501,52.0945 L20.4331126,55.1662188 C20.2794563,55.375375 20.0361751,55.497625 19.7789251,55.497625 C19.7613001,55.497625 19.7435813,55.4970625 19.7259563,55.4959375 C19.4889831,55.4803482 19.2728109,55.3622003 19.1318136,55.1758537 L19.0678313,55.0771563 L15.139,47.935 Z M29.8943626,45.9740312 L25.1560501,49.14025 L28.1227688,53.180875 L31.7255813,46.6305625 L29.8943626,45.9740312 Z M18.1055813,45.974125 L16.2742688,46.6305625 L19.8770813,53.1809688 L21.3745501,51.1414375 L21.3803626,51.1335625 L21.4806751,50.9969688 L21.4822572,50.994822 L22.843,49.14 L22.815,49.121 L18.1055813,45.974125 Z M28.9724251,43.8498437 L28.9302925,43.8864889 C28.8822619,43.9281317 28.8342472,43.9689223 28.7862622,44.008878 C28.7716502,44.0211415 28.7569871,44.0332753 28.7423272,44.0453315 C28.6808777,44.0957716 28.6195262,44.1449125 28.5582588,44.1927289 L28.5246891,44.2188944 L28.5246891,44.2188944 C28.4654904,44.2645555 28.4068472,44.3087303 28.3483114,44.3517245 C28.308241,44.3812468 28.2677953,44.4104294 28.2274093,44.4390572 C28.2087633,44.4521909 28.1897978,44.4655233 28.1708464,44.4787342 C28.1153731,44.5174796 28.0606637,44.5546744 28.006093,44.5908791 C27.9827002,44.6063229 27.9586493,44.6221085 27.9346271,44.6377036 C27.899321,44.6606989 27.8644017,44.6830008 27.829549,44.7049057 C27.7161922,44.776073 27.6037804,44.842981 27.4922609,44.9059444 C27.4492824,44.9302728 27.4065818,44.9538713 27.3640236,44.9769014 C27.3419193,44.9888021 27.3199271,45.0005717 27.2979745,45.012191 C27.2466699,45.0394054 27.1953811,45.0658394 27.14433,45.0914691 C27.1235432,45.1018524 27.1025332,45.1122855 27.081565,45.1225836 C27.0419004,45.1421133 27.0025715,45.1610202 26.9633995,45.1794596 C26.9324854,45.1939641 26.9018287,45.2081528 26.8712733,45.2220588 L26.7353007,45.2824282 L26.7353007,45.2824282 C26.720383,45.2888386 26.7051106,45.2953839 26.6898664,45.3018597 C26.6328543,45.3261095 26.5767924,45.3491277 26.521145,45.3712281 C26.508698,45.3761409 26.4956779,45.3812722 26.4826809,45.3863535 C26.4330529,45.4057803 26.3843641,45.4242273 26.3360244,45.4419884 L26.2601676,45.4693809 L26.2601676,45.4693809 C26.2311086,45.4797311 26.2021332,45.4898284 26.1732946,45.4996835 C26.1323319,45.513664 26.0916775,45.5271645 26.0513114,45.5401928 C26.0241197,45.5489809 25.9974526,45.5574182 25.9709162,45.565652 L25.8520761,45.601434 L25.8520761,45.601434 C25.8402598,45.6048927 25.8279977,45.6084401 25.8157661,45.6119444 C25.7731152,45.6241554 25.7315196,45.635667 25.6902991,45.6466924 C25.6744671,45.6509268 25.6589093,45.6550317 25.643406,45.6590678 L25.5517536,45.6822998 C25.5416132,45.6848001 25.5314976,45.6872711 25.5214071,45.6897131 C25.4834723,45.6988852 25.4461424,45.7075965 25.4091748,45.7159193 C25.3869589,45.7209321 25.3645985,45.7258544 25.3423752,45.7306365 C25.3009108,45.7395438 25.2602068,45.7479192 25.2199917,45.7558365 C25.2129457,45.7572402 25.2056393,45.7586672 25.1983492,45.7600791 C25.095478,45.7799774 24.9961657,45.79685 24.9003921,45.8111307 C24.8877197,45.8130477 24.8747064,45.8149508 24.86176,45.8168065 C24.8308558,45.8212066 24.8005885,45.8253313 24.7707057,45.8292037 L24.6669482,45.8418664 L24.6669482,45.8418664 C24.6558339,45.8430993 24.6447746,45.8443302 24.6337744,45.8455268 L24.5613123,45.8530423 L24.5613123,45.8530423 C24.5316899,45.8558983 24.5030566,45.8584972 24.4748783,45.8608721 C24.4550703,45.8625776 24.4356996,45.8641201 24.4165528,45.8655593 C24.3912899,45.8674213 24.3662424,45.8691517 24.3415994,45.8707112 C24.2794045,45.8746875 24.2196464,45.8775413 24.1626286,45.8794883 C24.0603857,45.882937 23.9671572,45.8835159 23.883561,45.8822675 C23.805839,45.8811267 23.7371393,45.8784218 23.677271,45.8750143 C23.6636717,45.8742057 23.6496452,45.8733378 23.6361475,45.87244 C23.5936135,45.8696486 23.5561816,45.8665243 23.5243122,45.8634726 L23.4807376,45.859 C23.388597,45.859 23.3048572,45.8555001 23.2202155,45.8487366 C23.1977802,45.8468716 23.1745625,45.8447837 23.1512806,45.8424564 C23.09035,45.8364292 23.0294114,45.8287536 22.9680998,45.8195463 C22.9301379,45.8137808 22.8922473,45.8075311 22.8542293,45.8007205 C22.8090299,45.792681 22.7635672,45.7837724 22.7179472,45.7741015 C22.6722717,45.7643704 22.6262654,45.7538853 22.5801242,45.7426643 C22.5392933,45.7327779 22.4985599,45.7223235 22.4577382,45.7113219 L22.3178386,45.671569 L22.3178386,45.671569 L22.1939536,45.6331879 L22.1939536,45.6331879 L22.0678316,45.5910613 L22.0678316,45.5910613 C22.0049244,45.569365 21.9418897,45.5465194 21.8788274,45.522651 C21.8590081,45.5151249 21.8393106,45.5075709 21.8196123,45.4999196 C21.7567173,45.4755144 21.6935758,45.4499946 21.630483,45.4235587 C21.5999746,45.4107556 21.5696227,45.397821 21.5392885,45.3846833 C21.4904783,45.3635613 21.4417562,45.3419144 21.3931072,45.3197814 C21.3467378,45.2986717 21.3000941,45.2769748 21.2535414,45.2548635 C21.1851304,45.2223832 21.1170737,45.1890722 21.0492883,45.1549775 C21.0401819,45.1503831 21.0312028,45.1458505 21.0222285,45.1413043 L20.9905146,45.1251861 L20.8120009,45.0319407 L20.8120009,45.0319407 C20.7826099,45.0162406 20.7530062,45.0002739 20.7234793,44.9841875 C20.4693579,44.8457433 20.2212873,44.6986476 19.9830421,44.5486002 C19.9372404,44.5197358 19.8915976,44.4906495 19.8463509,44.4614953 C19.8196231,44.4442955 19.7926546,44.4268041 19.7658347,44.4092975 C19.7336968,44.3882967 19.7020026,44.3674484 19.6705296,44.3465938 C19.5383669,44.2590457 19.4100802,44.1713489 19.2864946,44.08468 L19.1552914,43.9917924 L19.1552914,43.9917924 L19.0278938,43.9 L19.0278938,44.6380937 L24.0000188,47.9606875 L28.9724251,44.6381875 L28.9724251,43.8498437 Z M23.6464876,44.24425 C23.6487417,44.2445667 23.6519671,44.2450037 23.6561434,44.245534 C23.6594996,44.2461384 23.6636002,44.2466652 23.6686865,44.2472761 C23.68034,44.2484117 23.6971153,44.2501898 23.718098,44.2520279 L23.7247535,44.2529622 C23.7955607,44.258814 23.9303648,44.2664183 24.1119625,44.260834 C24.126024,44.2609624 24.1398715,44.2604703 24.1539802,44.2598981 C24.4024579,44.249245 24.7308294,44.2144195 25.1149262,44.1228177 L25.2584771,44.0869784 C25.3913842,44.0515055 25.5302254,44.0092334 25.6740926,43.9589592 C26.2972562,43.7409966 27.0146825,43.3731466 27.7525409,42.757487 C27.832316,42.6910897 27.9121256,42.6218126 27.9920813,42.5495312 L27.94,42.592 L27.9919876,42.5494375 C28.2925032,42.2778203 28.6195969,42.0117402 28.9680086,41.7553896 L29.3233313,41.5024375 L29.4139407,41.4387695 L29.4598313,41.4072812 C30.3046079,40.8399227 32.2836286,39.0442971 32.7920131,34.4744902 L32.8281751,34.1174688 L32.8281751,27.4664688 C32.7880015,27.2160382 32.4744199,25.6716797 30.7674159,24.9364656 L30.5642063,24.8553438 L26.7922688,23.5312188 C26.6615579,23.4852812 26.5277005,23.4512793 26.3923504,23.4291909 L26.1884124,23.4050845 C26.1201978,23.3999944 26.0518167,23.3978799 25.9834758,23.3987383 L25.778781,23.4101357 C25.5746204,23.43054 25.3726829,23.4776758 25.1785501,23.5514688 C24.4048313,23.845375 23.3418938,24.2408125 22.6719563,24.4556875 C22.3603313,24.5555875 22.0371863,24.6160675 21.7081853,24.6362635 L21.4604251,24.6439375 L17.9371126,24.6439375 C17.7732107,24.6743038 17.2091506,24.8032402 16.6209508,25.2198369 C16.6015697,25.2330661 16.5825623,25.2468192 16.5635417,25.2608789 C16.4506058,25.3447995 16.3369002,25.4393198 16.2254207,25.5460317 L16.1119879,25.6594308 C15.9799056,25.7982484 15.8523569,25.9554436 15.7340214,26.1333647 C15.7122338,26.1663525 15.6905475,26.2001395 15.66921,26.2346577 L15.5724952,26.4005176 C15.5587057,26.4256813 15.5451006,26.4511975 15.5316895,26.4770708 C15.4263805,26.6803872 15.3330168,26.9056118 15.2562707,27.1551999 L15.2174997,27.2885104 L15.2174997,27.2885104 L15.1819876,27.42625 L15.1819876,34.298125 C15.1890188,34.504375 15.3978001,39.4469688 18.5888626,41.5590625 L18.6210188,41.5809766 L18.6210188,41.5809766 L18.6506438,41.6019062 L18.6703313,41.6156875 C18.9281438,41.7896875 19.1863313,41.978125 19.4381438,42.1758437 C21.0844876,43.4688437 22.6407376,44.2575625 23.5038938,44.2354375 L23.577968,44.2367852 L23.577968,44.2367852 L23.609,44.24 L23.6464876,44.24425 Z M27.3298313,21.999625 L27.192,21.954 L27.106,21.929 L27.1616451,21.9447614 L27.1616451,21.9447614 L27.192,21.954 L27.2058987,21.9583762 L27.2058987,21.9583762 L27.3299251,21.999625 L31.1075813,23.3258125 C31.1112376,23.327125 31.1148938,23.3284375 31.1185501,23.32975 C34.0983938,24.424375 34.4337376,27.2055625 34.4464876,27.3234062 L34.4500852,27.3672344 L34.4500852,27.3672344 L34.4511751,27.4110625 L34.4511751,29.6021875 C34.6125813,29.3357031 34.710511,29.0415495 34.7386707,28.7411024 L34.7471438,28.56025 L34.7471438,22.804375 C34.6921126,22.4838437 34.2707063,20.50225 32.2046438,20.0049062 C31.9674563,19.9478125 31.7685188,19.787125 31.6629563,19.5672812 C31.5574876,19.3474375 31.5562688,19.0917812 31.6600501,18.871 C31.6603313,18.8704375 31.9481438,18.1995625 31.6954876,17.7123437 C31.4891438,17.3142812 30.9452063,17.118625 30.4976438,17.0232812 L19.6868626,17.0232812 C16.2356499,17.0232812 13.4137209,19.7701839 13.2926593,23.1924932 L13.2886126,23.421625 L13.2886126,27.6956875 C13.2886126,28.0737344 13.3535865,28.4465078 13.4775123,28.7965924 L13.5588938,29.0037812 L13.5588938,27.3333437 C13.5588938,27.2739062 13.5654563,27.2146562 13.5783938,27.156625 C14.3929876,23.5055312 17.6298938,23.0452187 17.7672376,23.0274062 L17.8192923,23.0224258 L17.8192923,23.0224258 L17.8714876,23.02075 L21.4603313,23.0209375 C21.5218313,23.0209375 21.583009,23.0186055 21.6437605,23.0139604 L21.8246321,22.9929648 C21.9442219,22.9744844 22.0616907,22.9468281 22.1762063,22.910125 C22.6797376,22.7485937 23.5187063,22.4456875 24.6020813,22.034125 C24.6891098,22.0010663 24.7770627,21.9711727 24.8657647,21.9444467 C24.8877105,21.9378979 24.9096251,21.9314945 24.9315825,21.925284 C24.9950919,21.9072896 25.0591125,21.8909202 25.1234299,21.8761705 C25.1609991,21.8675463 25.1985665,21.8594978 25.2362219,21.8520001 C25.2863599,21.8420471 25.336715,21.8330364 25.3871966,21.8250032 C25.4292829,21.8182561 25.4716671,21.812206 25.5141224,21.8068432 C25.5601265,21.8010892 25.6061874,21.7960898 25.6523095,21.7918959 L25.79,21.782 L26.0130188,21.7754687 L26.0130188,21.7754687 L26.0540478,21.7756799 L26.0540478,21.7756799 L26.1986802,21.7798406 L26.1986802,21.7798406 C26.232472,21.7813661 26.2668173,21.7834086 26.3011387,21.7858963 C26.364346,21.7905218 26.4270313,21.7965641 26.4895803,21.8040963 C26.5083216,21.806323 26.5272933,21.8087462 26.5462508,21.8113067 L26.5913433,21.8176844 C26.6459115,21.8256883 26.7003521,21.8348326 26.7546276,21.8451177 C26.773348,21.8486523 26.7919704,21.8523211 26.8105718,21.8561245 L26.8403929,21.8623499 C26.8911127,21.873123 26.9416701,21.8848993 26.992034,21.8976794 L27.093,21.925 L27.106,21.929 L27.3298313,21.999625 L27.3298313,21.999625 Z" id="Combined-Shape" stroke="#000000" stroke-width="0.3"></path>
                <path d="M126.107281,15.0000626 C128.132656,15.0111563 130.483531,15.59325 132.096313,16.4830313 C132.476844,16.6926563 132.650563,16.4100938 133.76525,16.4100938 C136.619281,16.4100938 139.005313,19.1322188 139.288063,21.9294375 C139.296433,22.0105982 139.298298,22.2836116 139.298715,22.4785023 L139.298844,22.6575938 C139.299125,23.0459063 138.984688,23.3610938 138.596188,23.361375 C138.659563,23.3896875 137.892875,23.3375625 137.892406,22.6587188 C137.892031,22.2072188 137.888938,22.089375 137.887625,22.0599375 C137.678938,20.0505938 135.937813,17.8165313 133.765156,17.8165313 C132.875,17.8165313 132.318219,18.2119688 131.416813,17.7144375 C129.994531,16.9298438 127.907375,16.416375 126.099688,16.4067188 L126.099688,16.4067188 L126.050844,16.4065313 C121.005406,16.4065313 116.828563,20.6277188 116.828563,25.7505 L116.828563,25.7505 L116.828563,41.5520625 C116.828563,41.9180625 117.126406,42.2159063 117.4925,42.2159063 L117.4925,42.2159063 L123.005469,42.2159063 L123.005469,41.6314688 C122.27675,41.2381875 121.593406,40.7449688 120.973906,40.1536875 C119.106031,38.3709375 118.034656,35.86725 118.034656,33.2847188 L118.034656,33.2847188 L118.034656,31.6689375 C118.034656,30.6004688 118.93625,29.7484688 120.002563,29.8126875 C120.106813,29.817375 120.406156,29.8382813 120.847625,29.8382813 C126.650469,29.8384688 130.010938,26.1485625 131.21975,24.5034375 C131.471656,24.1605 131.874125,23.9789063 132.299188,24.0173438 C132.723875,24.0559688 133.08875,24.307875 133.275031,24.6914063 C133.673,25.5105938 134.28275,25.979625 135.087313,26.085375 C135.859156,26.1867188 136.467781,26.7660938 136.632781,27.4989375 C137.089719,27.5775938 137.51375,27.7365 137.885,27.958125 L137.885,27.958125 L137.885,25.9399688 C137.885,25.5514688 138.199719,25.23675 138.588219,25.23675 C138.976531,25.23675 139.291438,25.5514688 139.291438,25.9399688 L139.291438,25.9399688 L139.291438,29.794875 C139.384719,30.1884375 139.384531,30.5967188 139.291438,30.9894375 L139.291438,30.9894375 L139.291438,41.551875 C139.291438,42.693375 138.36275,43.6221563 137.221156,43.6221563 L137.221156,43.6221563 L131.682875,43.6221563 L131.682875,43.8774375 C139.206313,45.7423125 138.901625,45.6659063 138.933594,45.6752813 L138.933594,45.6752813 C139.101962,45.7105797 141.933069,46.3045921 142.548688,49.3881563 C144.471694,59.2282404 144.636924,59.5225036 144.645642,60.1789564 L144.645745,60.322125 C144.629375,62.0439375 143.490781,62.9999063 141.753406,62.9999063 L141.753406,62.9999063 L123.821375,62.9999063 C123.432969,62.9999063 123.118156,62.6851875 123.118156,62.2966875 C123.118156,61.9082813 123.432875,61.5934688 123.821375,61.5934688 L123.821375,61.5934688 L136.820281,61.5934688 L136.820281,54.9606563 C136.820281,54.57225 137.135,54.2574375 137.5235,54.2574375 C137.912,54.2574375 138.226719,54.5721563 138.226719,54.9606563 L138.226719,54.9606563 L138.226719,61.5935625 L141.753313,61.5935625 C142.711813,61.5935625 143.23175,61.272 143.238875,60.310875 C143.242813,59.8305 143.243563,60.207 141.169438,49.6632188 C140.726656,47.4452813 138.669969,47.0835 138.550438,47.0285625 L138.550438,47.0285625 L134.418781,46.0045313 L130.075813,51.10575 C128.629625,52.804125 126.432313,52.9101563 124.892375,51.408 C124.62575,51.1479375 124.898938,51.4359375 120.285219,46.0006875 L120.285219,46.0006875 L116.137719,47.0286563 L115.650031,47.1724688 C115.474107,47.2393531 115.265577,47.3339894 115.047958,47.465655 L115.047922,45.8979156 C115.093365,45.8795341 115.137533,45.8624088 115.18025,45.8464688 C115.195719,45.84075 115.211281,45.8355938 115.227125,45.8309063 L115.227125,45.8309063 L115.75475,45.6752813 L115.75475,45.6752813 L115.783156,45.6675 L123.005469,43.8775313 L123.005469,43.62225 L117.492406,43.62225 C116.350813,43.62225 115.422031,42.6935625 115.422031,41.5519688 L115.422031,41.5519688 L115.422031,25.7504063 C115.422031,19.8259688 120.269281,14.9625 126.107281,15.0000626 Z M117.190156,54.2574375 C117.578563,54.2574375 117.893375,54.5721563 117.893375,54.9606563 L117.893375,54.9606563 L117.893375,61.5934688 L120.539656,61.5934688 C120.928063,61.5934688 121.242875,61.9081875 121.242875,62.2966875 C121.242875,62.6850938 120.928156,62.9999063 120.539656,62.9999063 L120.539656,62.9999063 L115.047323,62.9998465 L115.047323,61.5928465 L116.486938,61.5934688 L116.486938,54.9606563 C116.486938,54.57225 116.80175,54.2574375 117.190156,54.2574375 Z M130.484094,48.4562813 L124.208656,48.4562813 L125.675938,50.188125 C126.653375,51.3418125 128.024938,51.3449063 129.004719,50.1939375 L129.004719,50.1939375 L130.484094,48.4562813 Z M124.412188,42.2451563 L124.412094,44.4207188 C124.412094,44.7439688 124.191969,45.0325313 123.878094,45.11025 L123.878094,45.11025 L121.808656,45.62325 L123.017188,47.04975 L131.681656,47.04975 L132.893375,45.6264375 L130.810344,45.1101563 C130.575031,45.0518438 130.392313,44.878875 130.315625,44.6596875 C130.24625,44.4614063 130.289656,44.512875 130.276438,42.2652188 C128.390656,42.883125 126.347188,42.8901563 124.412188,42.2451563 L124.412188,42.2451563 Z M137.885094,32.8262813 C137.526406,33.0405 137.118313,33.196125 136.678813,33.2773125 L136.678813,33.2773125 L136.678813,33.4071563 C136.678813,36.9924375 134.6645,40.1134688 131.682875,41.67225 L131.682875,41.67225 L131.682875,42.2157188 L137.22125,42.2157188 C137.58725,42.2157188 137.885094,41.9180625 137.885094,41.5519688 L137.885094,41.5519688 Z M132.160531,25.5919688 C129.297219,29.3033438 124.960344,31.5199688 119.918094,31.2164063 C119.787125,31.2089063 119.670781,31.25625 119.58425,31.3378125 C119.339938,31.567875 119.483094,31.7534063 119.441281,33.2845313 C119.441281,35.4845625 120.353844,37.6172813 121.945063,39.136125 C126.895625,43.8610313 135.272375,40.404375 135.272375,33.40725 L135.272375,33.40725 L135.272375,27.8967188 C135.272375,27.686625 135.114031,27.5075625 134.904219,27.48 C134.064781,27.3696563 132.932563,26.9475938 132.160531,25.5919688 Z M136.678813,28.9497188 L136.678813,31.8345938 C137.266063,31.6600313 137.718969,31.2730313 137.885094,30.795 L137.885094,30.795 L137.885094,29.9893125 C137.718969,29.511375 137.266063,29.124375 136.678813,28.9497188 L136.678813,28.9497188 Z" id="Combined-Shape" stroke="#000000" stroke-width="0.3"></path>
            </g>
        </g>
    </g>
</svg>