<?xml version="1.0" encoding="UTF-8"?>
<svg width="122px" height="64px" viewBox="0 0 122 64" version="1.1" xmlns="http://www.w3.org/2000/svg" xmlns:xlink="http://www.w3.org/1999/xlink">
    <title>Group 3</title>
    <g id="01-Sign-Up---desktop-&amp;-mobile" stroke="none" stroke-width="1" fill="none" fill-rule="evenodd">
        <g id="01-01-00-Alternate-sign-up" transform="translate(-540.000000, -236.000000)">
            <g id="Group-3" transform="translate(540.000000, 236.000000)" fill="#000000" fill-rule="nonzero">
                <path d="M0.935403103,57.2736098 L0.227575616,61.3762535 L0.205479741,61.5513914 C0.165210456,62.0415359 0.323944938,62.5368535 0.653168617,62.9233003 C1.01991855,63.3535094 1.55644856,63.6 2.12501627,63.6 L29.8,63.6 L29.8,62.5940022 L2.11803112,62.5943126 L2.00058961,62.5860978 C1.77958095,62.556565 1.5816107,62.4493306 1.43400822,62.2761865 C1.25850703,62.0701729 1.18720161,61.8105531 1.23306936,61.5448524 L1.93974658,57.4488756 L1.94811357,57.3679052 C1.95079167,57.2459566 1.90808081,57.1307142 1.83374263,57.0405145 C1.76697612,56.9595019 1.6746253,56.8987221 1.56629172,56.8711277 L0.935403103,57.2736098 Z M26.7366536,16 C28.1844097,16 29.5007403,16.56798 30.470129,17.4907813 C31.4426787,18.4165917 32.0661011,19.6996324 32.1217091,21.1172862 L32.1217091,21.1172862 L32.1259463,22.4385313 L31.1058467,21.2953043 C31.0958297,20.1560176 30.6392055,19.1202367 29.9009253,18.35192 C29.1512805,17.5717763 28.1112179,17.0675715 26.9445331,17.0108428 L26.9445331,17.0108428 L16.2634411,17.0057813 C15.0984933,17.0057813 14.0386143,17.4596468 13.254622,18.1980515 C12.4659355,18.9408774 11.9565443,19.9715785 11.8991922,21.1277512 L11.8991922,21.1277512 L11.8939626,28.7980012 C12.2496507,28.84564 12.7401021,28.9546668 13.2201628,29.2015366 L13.2201628,29.2015366 L13.5664847,23.3937872 C13.5649385,22.6924571 13.8415438,22.0539729 14.2926949,21.5802857 C14.7447489,21.1056503 15.3720176,20.7962897 16.0710246,20.7546574 L16.0710246,20.7546574 L18.1930136,20.7498438 C18.751632,20.7498438 19.2988139,20.9206832 19.7556435,21.23456 C20.5317968,21.8496641 21.0124846,22.005625 21.5001894,22.005625 C21.9394385,22.005625 22.3698281,21.872955 22.730864,21.6290662 C23.4905223,21.0240515 24.0290515,20.8028378 24.5909573,20.75839 L24.5909573,20.75839 L26.7670502,20.7498438 C27.4741359,20.7498438 28.1178728,21.0235387 28.5957403,21.4696453 C29.0744164,21.9165067 29.3867658,22.5364358 29.4288406,23.2274799 L29.4288406,23.2274799 L29.4339716,29.3640816 C30.2401578,28.9873621 30.5316677,28.9047176 30.8005376,28.8496802 L30.9248154,28.8252683 L31.1062331,25.7475893 L32.1505693,28.4453633 C32.7411293,28.7352104 33.154506,29.3180777 33.2107436,29.9795671 L33.2107436,29.9795671 L33.2172906,31.2022813 C33.2172906,31.6971405 33.0233214,32.1478983 32.7069859,32.4842809 C32.3877297,32.8237693 31.9438777,33.0469531 31.4482901,33.0816843 C31.0322656,33.6094795 30.7787426,34.1053081 30.5062741,34.6386168 C29.9555867,35.7164891 29.3263613,36.95049 28.4095223,38.104924 C28.2564196,38.2976893 28.0895407,38.4947841 27.9095404,38.6925252 C29.0345311,39.3435695 29.975297,39.9335963 30.7232497,40.7439572 C31.6207203,41.7163669 32.1743174,42.9346728 32.3195659,44.2307509 L32.3195659,44.2307509 L33.968,44.9900719 L33.968,46.0625409 L32.3588927,45.5819784 L32.3588927,49.7492977 C32.9591727,49.8385219 33.5096873,50.0803399 33.9687256,50.4334199 L33.9687256,50.4334199 L33.9685854,51.950778 C33.8620045,51.7712677 33.7368975,51.6078202 33.5963758,51.4628932 C33.1407771,50.9930116 32.5226669,50.7164063 31.8406413,50.7164063 C31.1643878,50.7164063 30.5511992,50.9888157 30.1070529,51.428536 C29.6621938,51.8689618 29.3869324,52.4771118 29.3869324,53.1476563 C29.3869324,53.788111 29.6380494,54.3716289 30.0481928,54.8064739 C30.4069443,55.1868319 30.8873956,55.4532963 31.4273246,55.5444369 C31.3765741,55.7019688 31.3183176,55.8602859 31.2594728,56.0205847 L31.1725822,56.2595119 L31.1725822,56.2595119 L31.0890915,56.5019287 C30.3332166,56.3372484 29.6690667,55.9275621 29.185941,55.3616204 C28.6753111,54.7634598 28.3670012,53.990541 28.3670012,53.1476563 C28.3670012,52.3523331 28.6415249,51.6194798 29.1015277,51.0367748 C29.6017635,50.4031051 30.3211756,49.946777 31.1458189,49.7804289 L31.1458189,49.7804289 L31.3456847,45.2792401 L28.5934015,44.4570471 C28.401414,44.8368784 27.9654796,45.8020829 26.9775001,48.2468342 C26.0990838,50.4232887 25.0073346,53.2120597 23.9604875,55.9232823 C23.276515,57.6949673 22.634203,59.3740593 22.0766303,60.8429861 C20.5519832,59.5423454 19.8799442,58.0704413 19.2858903,56.55858 L19.0652627,55.9900155 C17.9918987,53.2104425 16.8995845,50.4198986 16.0207617,48.2427195 C15.087292,45.9328533 14.6471912,44.9452669 14.4400056,44.5243407 L14.4400056,44.5243407 L11.6609439,45.2729653 L11.6609439,47.4083084 C12.8426043,47.557198 13.8596369,48.2912729 14.3226283,49.373133 C14.4363606,49.6388608 14.5147138,49.9166368 14.5564648,50.2014584 L14.5564648,50.2014584 L15.0988475,56.9957828 C15.1334714,57.4349175 14.9797539,57.8722121 14.6775511,58.1956149 C14.4102888,58.4817853 14.0440963,58.6599872 13.6551397,58.6979029 L13.6551397,58.6979029 L12.6138532,58.7055 L13.7015645,57.6290434 L13.565099,50.5082238 C13.5455101,50.2512807 13.4842475,50.0009494 13.3829379,49.7642994 C13.2154582,49.3728404 12.9413992,49.0461284 12.5987956,48.8088719 C12.2566804,48.5719537 11.8460958,48.4242921 11.4057073,48.3912529 C10.7613156,48.3910636 10.2349278,48.5316401 9.82263075,48.7716903 C9.36414885,49.0386305 9.04388652,49.4287691 8.87688505,49.8957448 L8.87688505,49.8957448 L8.21542287,57.2305062 L9.66849267,57.7005149 L8.77144787,58.7049786 C8.34014594,58.6939904 7.9274325,58.5097727 7.63382081,58.1955571 C7.36731535,57.9104234 7.21635229,57.536424 7.20821896,57.1506521 L7.20821896,57.1506521 L7.72979496,50.4242851 C7.75409436,50.11614 7.82100301,49.8131236 7.9286568,49.5237187 C8.32572384,48.4561115 9.2792966,47.681431 10.4042216,47.4515657 L10.4042216,47.4515657 L10.6853905,45.5686391 L5.0332188,47.2570487 C4.21994037,47.4998957 3.61258285,48.1391601 3.41300946,48.9460482 L3.41300946,48.9460482 L2.50698589,54.1615546 L2.37453748,48.9328329 C2.4789502,48.3399169 2.7347254,47.8020522 3.10547371,47.3604267 C3.47912413,46.9153443 3.96946346,46.568084 4.53881334,46.3603104 L4.53881334,46.3603104 L10.6546815,44.526809 C10.7376533,43.2279816 11.230384,42.0263739 12.011943,41.0578063 C12.7723011,40.1155125 13.806044,39.3936764 15.0023662,39.0174765 C14.9104694,38.4945143 14.7436886,38.2976117 14.5907659,38.105023 C13.3201312,36.5051085 12.6030037,34.7527013 12.369905,33.4862741 C11.4649715,33.2155578 10.8798406,32.9699536 10.4678249,32.6238382 C10.0593921,32.2807327 9.82545811,31.8389649 9.78825747,31.3432585 L9.78825747,31.3432585 L9.78299348,30.134 C9.78299348,29.4541922 10.1625611,28.8379501 10.7349966,28.5066994 L10.7349966,28.5066994 L10.8741484,21.3335938 C10.8741484,19.9012617 11.4477101,18.599117 12.3790907,17.6401176 C13.3148686,16.6765906 14.6118371,16.0592884 16.0443806,16.0041959 L16.0443806,16.0041959 Z M22.2411735,51.9185625 L20.7516878,51.9185625 L20.1688483,56.0247713 C20.5833866,57.1003712 20.9620268,58.0836858 21.328738,58.9761677 C21.3914084,59.1286915 21.4556962,59.2833467 21.5215214,59.4402226 L21.7005565,58.9715431 C21.9950454,58.2008383 22.3677443,57.227722 22.9444732,55.7307565 L22.2411735,51.9185625 Z M24.6639877,49.8900362 L23.2119095,51.5611673 L23.6463638,53.9161503 C23.8696042,53.3417334 24.0967418,52.7581169 24.3246158,52.1754723 C24.4783568,51.7823201 24.6272979,51.4025632 24.7717288,51.0354691 L24.6639877,49.8900362 Z M17.7489533,49.8219402 C18.0375515,50.5497546 18.3454194,51.3316742 18.6753807,52.1754633 L18.8873922,52.7183131 L19.3537817,53.9153201 L19.7917146,51.5416237 L17.7489533,49.8219402 Z M21.5,48.8915638 L19.5310061,49.7196467 L20.567857,50.912875 L22.432143,50.912875 L23.4689939,49.7196467 L21.5,48.8915638 Z M15.8098471,45.0794482 L16.8620894,47.6078961 C16.9595165,47.8482873 17.0608582,48.0992575 17.5973998,49.4394509 L18.4908145,49.0636733 L20.5062352,48.2160106 L15.8098471,45.0794482 Z M27.3754423,44.6261231 L22.5129135,48.2241707 L24.6073807,49.1050892 L25.8107532,48.4192236 C25.9394092,48.0995056 25.9566163,48.0499982 27.3754423,44.6261231 Z M25.6316804,40.561292 C24.5063908,41.2188098 23.1358964,41.6773125 21.5,41.6773125 C20.0123305,41.6773125 18.7443804,41.2971639 17.3683196,40.575589 L17.3683196,42.035 C17.3683196,42.642698 17.1338135,43.3191687 16.5703451,44.0681758 L21.5,47.7160535 L26.4425648,44.0586226 C25.9708274,43.5433046 25.6889113,42.8754211 25.6316804,42.0283237 L25.6316804,40.561292 Z M16.3483883,39.7624728 C15.1932125,39.8816076 14.158731,40.3682114 13.3499646,41.1291927 C12.5254466,41.9049948 11.9352507,42.9665401 11.6940599,44.2161137 L14.5237533,43.3727623 C14.8754629,43.2783871 15.2528136,43.2995129 15.8105344,43.3765614 C16.0864493,43.0784148 16.2934491,42.657235 16.3483883,42.0440794 L16.3483883,39.7624728 Z M26.6517063,39.7616356 L26.6517063,42.035 C26.6517063,42.5253543 26.8714881,43.0329745 27.4069101,43.4278579 C27.7133349,43.3123191 28.0495803,43.2864366 28.5346262,43.3885676 L31.2906056,44.2117086 C31.1278922,43.0146881 30.5576567,41.9459034 29.7145709,41.1527912 C28.9053149,40.3915034 27.8446441,39.8841165 26.6517063,39.7616356 Z M18.1928243,21.755625 L16.2331392,21.755625 C15.7980106,21.755625 15.4017902,21.9232686 15.1053402,22.2167643 C14.8208537,22.4984158 14.6273052,22.8975377 14.5864096,23.3792612 L14.0967143,30.6027779 C13.9120447,30.6790497 13.7108107,30.674728 13.3053939,30.5730697 L13.3053939,32.6689063 C13.3053939,33.7209993 14.0303036,35.7682684 15.3935928,37.484822 C15.8428387,38.0503783 16.4201954,38.6579031 17.1955018,39.2371295 C18.3062721,40.0502367 19.7325845,40.6714375 21.5,40.6714375 C23.2665665,40.6714375 24.6924859,40.0511721 25.8662727,39.1909753 C26.5790495,38.6585394 27.1569579,38.0507562 27.6064094,37.4848192 C28.9125204,35.8402853 29.6351383,33.8917149 29.6964851,32.6397599 L28.9836419,30.63134 C28.8129085,30.580282 28.6710022,30.4813222 28.4135904,29.8659951 L28.4135904,23.3879375 C28.4135904,22.9561485 28.2441739,22.5627954 27.9469756,22.2685588 C27.6631035,21.9875155 27.2609003,21.7960794 26.7753714,21.755625 L24.8071757,21.755625 C24.4791097,21.755625 24.1539508,21.8408527 23.5367379,22.2886486 C22.9576299,22.7570096 22.2372618,23.0113125 21.5,23.0113125 C20.8295163,23.0113125 20.1754321,22.7960827 19.2718399,22.1336114 C18.9736545,21.8919763 18.587815,21.755625 18.1928243,21.755625 Z M10.8028301,30.0710679 L10.8028301,31.202375 C10.8028301,31.4212937 10.8838814,31.6218633 11.0180463,31.7759944 C11.1551405,31.9334906 11.3477896,32.0422787 11.6807558,32.08075 L12.2854626,32.08075 L12.2854626,29.9059712 C11.8539407,29.7765328 11.4755667,29.7684287 11.3401976,29.765808 C11.180336,29.7609372 11.0153624,29.7515726 10.8028301,30.0710679 Z M31.6054282,29.7668256 C31.6014825,29.7667171 31.220537,29.7615784 30.5311401,29.9441766 L32.4570156,31.9792733 L31.6054282,29.7668256 Z" id="Combined-Shape" stroke="#000000" stroke-width="0.4"></path>
                <g id="building" transform="translate(32.000000, 0.000000)">
                    <path d="M62.9333333,61.8666667 L62.336,61.8666667 C62.7239849,61.2224924 62.9303932,60.4853201 62.9333333,59.7333333 C62.9333333,57.3769184 61.0230816,55.4666667 58.6666667,55.4666667 C58.6133333,55.4666667 58.5706667,55.4773333 58.5173333,55.4773333 C58.1280568,53.9807632 56.961869,52.8104977 55.4666667,52.416 L55.4666667,24.5333333 C55.4712985,24.1300231 55.2427886,23.7602526 54.88,23.584 L34.1333333,13.2053333 L34.1333333,5.33333333 C34.1333333,4.7442296 33.6557704,4.26666667 33.0666667,4.26666667 L26.6666667,4.26666667 L26.6666667,1.06666667 C26.6666667,0.477562934 26.1891037,0 25.6,0 C25.0108963,0 24.5333333,0.477562934 24.5333333,1.06666667 L24.5333333,4.26666667 L5.33333333,4.26666667 C4.7442296,4.26666667 4.26666667,4.7442296 4.26666667,5.33333333 L4.26666667,53.7813333 C2.32657671,54.632278 1.07162606,56.5481693 1.06666667,58.6666667 C1.06990217,59.825318 1.45617431,60.9503824 2.16533333,61.8666667 L1.06666667,61.8666667 C0.477562934,61.8666667 0,62.3442296 0,62.9333333 C0,63.5224371 0.477562934,64 1.06666667,64 L62.9333333,64 C63.5224371,64 64,63.5224371 64,62.9333333 C64,62.3442296 63.5224371,61.8666667 62.9333333,61.8666667 Z M11.7333333,61.8666791 L6.4,61.8666791 C4.9178984,61.8707713 3.62692552,60.8566043 3.28002567,59.4156662 C2.93312583,57.9747282 3.62108941,56.4841404 4.94266998,55.8132702 C6.26425055,55.1424001 7.87356494,55.4668272 8.832,56.5973333 C8.37322394,57.0228993 8.01284055,57.5434531 7.776,58.1226667 C7.55214058,58.6705331 7.81480019,59.2961406 8.36266667,59.52 C8.91053314,59.7438594 9.53614058,59.4811998 9.76,58.9333333 C9.94744106,58.4689807 10.2906183,58.0843206 10.7306667,57.8453333 C10.752,57.8346667 10.7733333,57.8346667 10.784,57.824 C11.0776979,57.6737269 11.4034384,57.5968668 11.7333333,57.6 C12.9115408,57.6 13.8666667,58.5551259 13.8666667,59.7333333 C13.8666667,60.9115408 12.9115408,61.8666791 11.7333333,61.8666791 L11.7333333,61.8666791 Z M26.6666667,61.8666667 L20.2666667,61.8666667 L20.2666667,49.0666667 L26.6666667,49.0666667 L26.6666667,61.8666667 Z M32,61.8666667 L28.8,61.8666667 L28.8,48 C28.8,47.4108963 28.3224371,46.9333333 27.7333333,46.9333333 L19.2,46.9333333 C18.6108963,46.9333333 18.1333333,47.4108963 18.1333333,48 L18.1333333,61.8666667 L15.4026667,61.8666667 C15.7906516,61.2224924 15.9970599,60.4853201 16,59.7333333 C16,57.3769184 14.0897483,55.4666667 11.7333333,55.4666667 C11.3992598,55.4675828 11.0664022,55.5069531 10.7413333,55.584 C9.74585449,54.1729764 8.12683693,53.3336331 6.4,53.3333333 L6.4,6.4 L32,6.4 L32,61.8666667 Z M44.832,61.8666667 L34.1333333,61.8666667 L34.1333333,15.5946667 L53.3333333,25.1946667 L53.3333333,52.416 C52.4848868,52.6305457 51.7243306,53.1040292 51.1573333,53.7706667 C50.4965352,53.4870757 49.7857303,53.3383869 49.0666667,53.3333333 C46.121148,53.3333333 43.7333333,55.721148 43.7333333,58.6666667 C43.7365688,59.825318 44.122841,60.9503824 44.832,61.8666667 L44.832,61.8666667 Z M58.6666667,61.8666667 L49.0666667,61.8666667 C47.2993555,61.8666667 45.8666667,60.4339779 45.8666667,58.6666667 C45.8666667,56.8993555 47.2993555,55.4666667 49.0666667,55.4666667 C49.4645287,55.470912 49.8583727,55.5467902 50.2293333,55.6906667 C50.1704823,55.967843 50.1383353,56.2500223 50.1333333,56.5333333 C50.1333333,57.1224371 50.6108963,57.6 51.2,57.6 C51.7891037,57.6 52.2666667,57.1224371 52.2666667,56.5333333 C52.2638761,56.2195764 52.3332156,55.9093735 52.4693333,55.6266667 C52.8546445,54.7982475 53.7270312,54.3095399 54.634726,54.4136222 C55.5424208,54.5177046 56.2815417,55.1911984 56.4693333,56.0853333 C55.6232205,56.5967668 54.9790923,57.3840346 54.6453333,58.3146667 C54.4793305,58.6821082 54.5347009,59.1117501 54.7884407,59.4250971 C55.0421805,59.738444 55.4509196,59.8819375 55.8448467,59.795963 C56.2387739,59.7099885 56.5505575,59.409241 56.6506667,59.0186667 C57.0136988,57.9976189 58.0845454,57.4109604 59.1404563,57.6546466 C60.1963672,57.8983328 60.901825,58.8949319 60.7806927,59.971806 C60.6595604,61.0486801 59.7503279,61.8636506 58.6666667,61.8666667 Z" id="Shape"></path>
                    <path d="M9.6,14.9333333 L28.8,14.9333333 C29.3891037,14.9333333 29.8666667,14.4557704 29.8666667,13.8666667 L29.8666667,9.6 C29.8666667,9.01089627 29.3891037,8.53333333 28.8,8.53333333 L9.6,8.53333333 C9.01089627,8.53333333 8.53333333,9.01089627 8.53333333,9.6 L8.53333333,13.8666667 C8.53333333,14.4557704 9.01089627,14.9333333 9.6,14.9333333 Z M10.6666667,10.6666667 L27.7333333,10.6666667 L27.7333333,12.8 L10.6666667,12.8 L10.6666667,10.6666667 Z" id="Shape"></path>
                    <path d="M18.1333333,18.1333333 C18.1333333,17.5442296 17.6557704,17.0666667 17.0666667,17.0666667 L12.8,17.0666667 C12.2108963,17.0666667 11.7333333,17.5442296 11.7333333,18.1333333 L11.7333333,22.4 C11.7333333,22.9891037 12.2108963,23.4666667 12.8,23.4666667 L17.0666667,23.4666667 C17.6557704,23.4666667 18.1333333,22.9891037 18.1333333,22.4 L18.1333333,18.1333333 Z M16,21.3333333 L13.8666667,21.3333333 L13.8666667,19.2 L16,19.2 L16,21.3333333 Z" id="Shape"></path>
                    <path d="M26.6666667,18.1333333 C26.6666667,17.5442296 26.1891037,17.0666667 25.6,17.0666667 L21.3333333,17.0666667 C20.7442296,17.0666667 20.2666667,17.5442296 20.2666667,18.1333333 L20.2666667,22.4 C20.2666667,22.9891037 20.7442296,23.4666667 21.3333333,23.4666667 L25.6,23.4666667 C26.1891037,23.4666667 26.6666667,22.9891037 26.6666667,22.4 L26.6666667,18.1333333 Z M24.5333333,21.3333333 L22.4,21.3333333 L22.4,19.2 L24.5333333,19.2 L24.5333333,21.3333333 Z" id="Shape"></path>
                    <path d="M18.1333333,26.6666667 C18.1333333,26.0775629 17.6557704,25.6 17.0666667,25.6 L12.8,25.6 C12.2108963,25.6 11.7333333,26.0775629 11.7333333,26.6666667 L11.7333333,30.9333333 C11.7333333,31.5224371 12.2108963,32 12.8,32 L17.0666667,32 C17.6557704,32 18.1333333,31.5224371 18.1333333,30.9333333 L18.1333333,26.6666667 Z M16,29.8666667 L13.8666667,29.8666667 L13.8666667,27.7333333 L16,27.7333333 L16,29.8666667 Z" id="Shape"></path>
                    <path d="M26.6666667,26.6666667 C26.6666667,26.0775629 26.1891037,25.6 25.6,25.6 L21.3333333,25.6 C20.7442296,25.6 20.2666667,26.0775629 20.2666667,26.6666667 L20.2666667,30.9333333 C20.2666667,31.5224371 20.7442296,32 21.3333333,32 L25.6,32 C26.1891037,32 26.6666667,31.5224371 26.6666667,30.9333333 L26.6666667,26.6666667 Z M24.5333333,29.8666667 L22.4,29.8666667 L22.4,27.7333333 L24.5333333,27.7333333 L24.5333333,29.8666667 Z" id="Shape"></path>
                    <path d="M17.0666667,34.1333333 L12.8,34.1333333 C12.2108963,34.1333333 11.7333333,34.6108963 11.7333333,35.2 L11.7333333,39.4666667 C11.7333333,40.0557704 12.2108963,40.5333333 12.8,40.5333333 L17.0666667,40.5333333 C17.6557704,40.5333333 18.1333333,40.0557704 18.1333333,39.4666667 L18.1333333,35.2 C18.1333333,34.6108963 17.6557704,34.1333333 17.0666667,34.1333333 Z M16,38.4 L13.8666667,38.4 L13.8666667,36.2666667 L16,36.2666667 L16,38.4 Z" id="Shape"></path>
                    <path d="M25.6,34.1333333 L21.3333333,34.1333333 C20.7442296,34.1333333 20.2666667,34.6108963 20.2666667,35.2 L20.2666667,39.4666667 C20.2666667,40.0557704 20.7442296,40.5333333 21.3333333,40.5333333 L25.6,40.5333333 C26.1891037,40.5333333 26.6666667,40.0557704 26.6666667,39.4666667 L26.6666667,35.2 C26.6666667,34.6108963 26.1891037,34.1333333 25.6,34.1333333 Z M24.5333333,38.4 L22.4,38.4 L22.4,36.2666667 L24.5333333,36.2666667 L24.5333333,38.4 Z" id="Shape"></path>
                    <path d="M41.6,25.6 L37.3333333,25.6 C36.7442296,25.6 36.2666667,26.0775629 36.2666667,26.6666667 L36.2666667,30.9333333 C36.2666667,31.5224371 36.7442296,32 37.3333333,32 L41.6,32 C42.1891037,32 42.6666667,31.5224371 42.6666667,30.9333333 L42.6666667,26.6666667 C42.6666667,26.0775629 42.1891037,25.6 41.6,25.6 Z M40.5333333,29.8666667 L38.4,29.8666667 L38.4,27.7333333 L40.5333333,27.7333333 L40.5333333,29.8666667 Z" id="Shape"></path>
                    <path d="M45.8666667,32 L50.1333333,32 C50.7224371,32 51.2,31.5224371 51.2,30.9333333 L51.2,26.6666667 C51.2,26.0775629 50.7224371,25.6 50.1333333,25.6 L45.8666667,25.6 C45.2775629,25.6 44.8,26.0775629 44.8,26.6666667 L44.8,30.9333333 C44.8,31.5224371 45.2775629,32 45.8666667,32 Z M46.9333333,27.7333333 L49.0666667,27.7333333 L49.0666667,29.8666667 L46.9333333,29.8666667 L46.9333333,27.7333333 Z" id="Shape"></path>
                    <path d="M41.6,34.1333333 L37.3333333,34.1333333 C36.7442296,34.1333333 36.2666667,34.6108963 36.2666667,35.2 L36.2666667,39.4666667 C36.2666667,40.0557704 36.7442296,40.5333333 37.3333333,40.5333333 L41.6,40.5333333 C42.1891037,40.5333333 42.6666667,40.0557704 42.6666667,39.4666667 L42.6666667,35.2 C42.6666667,34.6108963 42.1891037,34.1333333 41.6,34.1333333 Z M40.5333333,38.4 L38.4,38.4 L38.4,36.2666667 L40.5333333,36.2666667 L40.5333333,38.4 Z" id="Shape"></path>
                    <path d="M45.8666667,40.5333333 L50.1333333,40.5333333 C50.7224371,40.5333333 51.2,40.0557704 51.2,39.4666667 L51.2,35.2 C51.2,34.6108963 50.7224371,34.1333333 50.1333333,34.1333333 L45.8666667,34.1333333 C45.2775629,34.1333333 44.8,34.6108963 44.8,35.2 L44.8,39.4666667 C44.8,40.0557704 45.2775629,40.5333333 45.8666667,40.5333333 Z M46.9333333,36.2666667 L49.0666667,36.2666667 L49.0666667,38.4 L46.9333333,38.4 L46.9333333,36.2666667 Z" id="Shape"></path>
                    <path d="M41.6,42.6666667 L37.3333333,42.6666667 C36.7442296,42.6666667 36.2666667,43.1442296 36.2666667,43.7333333 L36.2666667,48 C36.2666667,48.5891037 36.7442296,49.0666667 37.3333333,49.0666667 L41.6,49.0666667 C42.1891037,49.0666667 42.6666667,48.5891037 42.6666667,48 L42.6666667,43.7333333 C42.6666667,43.1442296 42.1891037,42.6666667 41.6,42.6666667 Z M40.5333333,46.9333333 L38.4,46.9333333 L38.4,44.8 L40.5333333,44.8 L40.5333333,46.9333333 Z" id="Shape"></path>
                    <path d="M45.8666667,49.0666667 L50.1333333,49.0666667 C50.7224371,49.0666667 51.2,48.5891037 51.2,48 L51.2,43.7333333 C51.2,43.1442296 50.7224371,42.6666667 50.1333333,42.6666667 L45.8666667,42.6666667 C45.2775629,42.6666667 44.8,43.1442296 44.8,43.7333333 L44.8,48 C44.8,48.5891037 45.2775629,49.0666667 45.8666667,49.0666667 Z M46.9333333,44.8 L49.0666667,44.8 L49.0666667,46.9333333 L46.9333333,46.9333333 L46.9333333,44.8 Z" id="Shape"></path>
                    <path d="M29.8666667,43.7333333 C29.8666667,43.1442296 29.3891037,42.6666667 28.8,42.6666667 L9.6,42.6666667 C9.01089627,42.6666667 8.53333333,43.1442296 8.53333333,43.7333333 C8.53333333,44.3224371 9.01089627,44.8 9.6,44.8 L28.8,44.8 C29.3891037,44.8 29.8666667,44.3224371 29.8666667,43.7333333 Z" id="Path"></path>
                </g>
                <path d="M102.567356,15.92573 L102.944908,15.9964531 L106.866216,16.8133906 C107.356516,16.9154844 107.775899,17.2320781 108.016891,17.6817969 C108.231107,18.0816302 108.283142,18.5471672 108.16645,18.982408 L108.114769,19.1440156 L107.6443,20.4052344 C108.70578,21.1363906 109.551034,22.1366094 110.106952,23.3280781 C110.269898,23.6772031 110.126052,24.0957969 109.785629,24.2628594 C109.690493,24.3095469 109.590057,24.3317656 109.491174,24.3317656 C109.236291,24.3317656 108.991826,24.1848594 108.874392,23.9333281 C108.515661,23.1644115 108.007458,22.4941615 107.380465,21.9539197 L107.139834,21.7574844 L107.127862,21.7895469 C106.804969,22.6548704 106.010686,23.2529552 105.118348,23.3203239 L104.949977,23.3266719 L97.1517771,23.3266719 C96.2485554,23.3266719 95.4201347,22.7794885 95.0398525,21.948599 L94.9738924,21.7895469 L94.9221663,21.6508906 C93.5709977,22.6294203 92.6987808,24.1399737 92.5187961,25.8462456 L92.4961612,26.1172344 L92.2854188,29.5323594 C92.3702275,29.5077344 92.4571484,29.4883594 92.5459105,29.4748733 L92.6804009,29.4591406 L92.6804923,29.2665781 C92.7252727,26.4582969 94.7742994,24.8855469 95.9779803,24.3988906 C96.6704327,24.1188594 97.1787368,24.1440781 97.4886359,24.4737969 C98.9797344,26.0604219 101.021633,28.2331719 108.113946,28.8879219 C108.456757,28.9195859 108.754647,29.0887036 108.958271,29.3398807 L109.039623,29.4523906 L109.077732,29.4523906 C109.207199,29.4523906 109.333823,29.4650156 109.456656,29.4887656 L109.637945,29.5325469 L109.476735,26.9196406 C109.452882,26.5332969 109.738838,26.2002969 110.115451,26.1758281 C110.459758,26.1536562 110.761983,26.3981413 110.828335,26.7366258 L110.840437,26.8311406 L111.112959,31.2473281 L111.130288,31.4040898 L111.130288,31.4040898 L111.136171,31.5640156 L111.136171,31.6230781 L111.379448,35.5662969 C111.456489,36.8139219 111.039482,38.0029531 110.205469,38.9143906 C109.427056,39.7650656 108.390389,40.2590206 107.264804,40.3211005 L107.022308,40.3277656 L106.144336,40.3277656 C106.106684,40.3619844 106.070037,40.3948906 106.035584,40.4253594 L106.000936,40.4559336 L106.000936,40.4559336 L105.96622,40.4865781 L105.96622,42.7819531 C105.96622,43.2427344 106.19853,43.7403594 106.517111,44.0313594 C106.815221,43.8644258 107.166578,43.8027896 107.514611,43.8719496 L107.6634,43.9096719 L116.626897,46.6840156 C117.793547,47.0450518 118.662292,48.0017241 118.934668,49.2073615 L118.974491,49.4105469 L120.971243,61.4026719 C121.070766,61.9999531 120.909282,62.6082969 120.528465,63.0710469 C120.185565,63.4878594 119.699872,63.7447475 119.175515,63.791957 L118.99944,63.7998594 L97.881,63.799 L97.881,62.397 L113.380222,62.3979219 L112.30284,55.9278594 C112.239325,55.5462969 112.489364,55.1841406 112.861316,55.1189844 C113.202524,55.059 113.527375,55.2697689 113.62807,55.5992139 L113.649818,55.6918906 L114.766497,62.3980156 L118.999075,62.3980156 C119.25542,62.3980156 119.412609,62.2532656 119.483618,62.1670156 C119.544483,62.0930871 119.635897,61.9478013 119.633552,61.7445601 L119.623991,61.6381719 L117.627238,49.6461406 C117.507754,48.9283839 117.038243,48.3416615 116.385753,48.0801575 L116.232007,48.0256719 L107.268418,45.2512344 C107.224345,45.2373125 107.178166,45.2494941 107.146187,45.2801064 L107.119545,45.3165781 L102.83972,53.9904219 C102.636928,54.4013281 102.320541,54.7246719 101.940455,54.9289531 C101.644812,55.0878594 101.310695,55.1746719 100.961499,55.1746719 C100.412801,55.1746719 99.9012069,54.9602656 99.5179226,54.5888281 C99.3872824,54.4622656 99.2714986,54.3174043 99.1742724,54.1565776 L99.0833692,53.9905156 L94.8037265,45.3169531 L94.7768654,45.2802515 C94.7555404,45.2599341 94.7279382,45.2477788 94.698868,45.2459536 L94.6547629,45.2512344 L89.691,46.787 L89.691,45.323 L94.260055,43.9092969 C94.6552199,43.7868594 95.0655552,43.8402969 95.4062524,44.0310781 C95.6894356,43.7724948 95.9044541,43.3505041 95.9487399,42.9362993 L95.9571437,42.7816719 L95.9571437,40.4862969 C95.9340223,40.4658594 95.9108096,40.4454219 95.8877796,40.4250781 L95.8346028,40.3776523 L95.8346028,40.3776523 L95.779027,40.3274844 L94.9010555,40.3274844 C93.6823869,40.3274844 92.5519083,39.8255469 91.7178948,38.9141094 C90.9394822,38.0634344 90.5243288,36.9708627 90.5350716,35.8146782 L90.5439152,35.5660156 L90.787192,31.6227969 L90.787192,31.5637344 L90.7931666,31.4181172 L90.7931666,31.4181172 L90.8086684,31.2751719 L91.1324586,26.0285469 C91.2726563,23.7559569 92.399452,21.7336677 94.1937118,20.4632416 L94.4214475,20.3083906 L93.9869855,19.1439219 C93.8080464,18.6644844 93.8437794,18.1316094 94.0847714,17.6817031 C94.2989866,17.2817865 94.6542247,16.9872772 95.0748756,16.8550642 L95.2355383,16.8132031 L99.1567544,15.9964531 C100.287937,15.7607094 101.433332,15.737135 102.567356,15.92573 Z M104.458306,47.6068906 L97.4652404,47.6068906 L100.302678,53.3577969 C100.431079,53.6178594 100.677463,53.7732031 100.961682,53.7732031 C101.127735,53.7732031 101.279897,53.7189219 101.404095,53.6231094 L101.430689,53.6035156 L101.430689,53.6035156 C101.470808,53.5694844 101.50645,53.5293594 101.539258,53.4863281 L101.567223,53.4502344 L101.567223,53.4502344 C101.571884,53.4432031 101.57554,53.4351406 101.580109,53.4279219 L101.601151,53.3935508 L101.601151,53.3935508 L101.620686,53.3577031 L101.706408,53.1839844 L104.458306,47.6068906 Z M104.599776,41.5725781 C103.764982,42.1232156 102.734349,42.5586215 101.286157,42.6293203 L100.969358,42.6387969 L100.954188,42.6387969 C99.4452137,42.6214719 98.369635,42.2216202 97.5057333,41.688641 L97.3237707,41.5724844 L97.3237707,42.7818594 C97.3237707,43.6167031 96.9493944,44.4540528 96.3804229,45.0117522 L96.2457493,45.1353594 L96.7735192,46.2050469 L105.149936,46.2050469 L105.677797,45.1354531 C105.079867,44.6224464 104.66286,43.808166 104.606338,42.9745428 L104.599776,42.7819531 L104.599776,41.5725781 Z M96.6797543,25.6312344 C96.0786548,25.7971217 94.2269409,26.8338687 94.0587321,29.0348443 L94.0471193,29.2842031 L94.0471193,30.1533594 C94.0471193,30.5081953 93.7900967,30.8014284 93.4566086,30.8478364 L93.3638972,30.8542344 L92.8459059,30.8542344 C92.5071279,30.8542344 92.2250109,31.1053906 92.1658824,31.4355781 L92.1558981,31.5155 L92.1558981,31.5155 L92.1539104,31.5640156 L92.1539104,33.1272969 C92.1539104,33.4860859 92.4146958,33.7835085 92.7520491,33.8305873 L92.8458145,33.8370781 L93.3659077,33.8370781 C93.7374943,33.8370781 94.0409962,34.1418594 94.0489471,34.5229531 C94.0813901,36.0721719 95.1022021,37.8815469 96.7795508,39.3630781 C98.0430913,40.4791719 99.0172038,41.2128594 100.961773,41.2369531 C102.906434,41.2128594 103.880546,40.4792656 105.143995,39.3630781 C106.821344,37.8814531 107.842156,36.0720781 107.874782,34.5229531 C107.88201,34.176419 108.13342,33.8931081 108.458318,33.8444609 L108.557821,33.8370781 L109.077914,33.8370781 C109.427667,33.8370781 109.717598,33.5694759 109.763491,33.2234653 L109.769819,33.1272969 L109.769819,31.5640156 C109.769819,31.5312969 109.766894,31.4993281 109.76269,31.4678281 C109.760771,31.4572344 109.759309,31.4464531 109.757847,31.4355781 C109.704549,31.1384094 109.470704,30.9052559 109.177566,30.8615969 L109.077823,30.8542344 L108.559832,30.8542344 C108.222699,30.8542344 107.942592,30.6037344 107.886754,30.2743906 C101.146013,29.6348281 98.6834521,27.7280469 96.6797543,25.6312344 Z M109.976905,35.0250781 C109.734999,35.1462031 109.467322,35.2212969 109.184017,35.2361094 C108.975833,36.6752656 108.238235,37.9358281 107.48702,38.8898281 C108.144287,38.7864219 108.743889,38.4634531 109.209149,37.9549531 C109.734405,37.3809766 110.018843,36.6468483 110.021914,35.868251 L110.015746,35.6548906 L109.976905,35.0250781 Z M91.9465494,35.0251719 L91.9077092,35.6548906 C91.8548865,36.5119531 92.1412988,37.3287969 92.7143061,37.9549531 C93.1795661,38.4634531 93.7791675,38.7864219 94.4364353,38.8899219 C93.6852199,37.9358281 92.9475301,36.6752656 92.739438,35.2362031 C92.4561329,35.2212969 92.1884554,35.1462969 91.9465494,35.0251719 Z M101.050968,17.2022656 C100.617347,17.2022656 100.183843,17.2381456 99.752187,17.3098576 L99.4288186,17.3703594 L95.5076025,18.1872031 C95.3762769,18.2145781 95.3102029,18.3054219 95.2825121,18.3570781 C95.2603595,18.3984781 95.2307203,18.4745581 95.2442692,18.5690461 L95.2633205,18.6431094 L96.2502273,21.2885469 C96.3780436,21.6311094 96.6843338,21.8725231 97.0339212,21.9173802 L97.1518685,21.9249219 L104.950068,21.9249219 C105.307609,21.9249219 105.636871,21.7177644 105.80268,21.3988572 L105.85171,21.2885469 L106.838617,18.6431094 C106.886504,18.5146719 106.847116,18.4088281 106.819425,18.3570781 C106.797272,18.3157531 106.750554,18.2493481 106.665561,18.2104711 L106.594426,18.1872969 L102.673027,17.3703594 C102.13493,17.2583281 101.592812,17.2022656 101.050968,17.2022656 Z M100.961682,17.5837344 C101.30758,17.5837344 101.593428,17.8473978 101.638667,18.1895024 L101.644904,18.2846094 L101.644904,18.8181406 L102.164906,18.8181406 C102.54225,18.8181406 102.848128,19.1319219 102.848128,19.5190156 C102.848128,19.8738516 102.591105,20.1670846 102.257617,20.2134927 L102.164906,20.2198906 L101.644904,20.2198906 L101.644904,20.7533281 C101.644904,21.1404219 101.339026,21.4542031 100.961682,21.4542031 C100.615783,21.4542031 100.329936,21.1905397 100.284696,20.8484351 L100.27846,20.7533281 L100.27846,20.2198906 L99.7584577,20.2198906 C99.3811137,20.2198906 99.0752356,19.9061094 99.0752356,19.5190156 C99.0752356,19.1641797 99.3322582,18.8709466 99.6657462,18.8245386 L99.7584577,18.8181406 L100.27846,18.8181406 L100.27846,18.2846094 C100.27846,17.8975156 100.584338,17.5837344 100.961682,17.5837344 Z" id="Combined-Shape" stroke="#000000" stroke-width="0.3"></path>
            </g>
        </g>
    </g>
</svg>