<?xml version="1.0" encoding="UTF-8"?>
<svg width="103px" height="64px" viewBox="0 0 103 64" version="1.1" xmlns="http://www.w3.org/2000/svg" xmlns:xlink="http://www.w3.org/1999/xlink">
    <title>Group</title>
    <g id="01-Sign-Up---desktop-&amp;-mobile" stroke="none" stroke-width="1" fill="none" fill-rule="evenodd">
        <g id="01-01-00-Alternate-sign-up" transform="translate(-185.000000, -236.000000)">
            <g id="Group" transform="translate(185.000000, 236.000000)" fill="#000000" fill-rule="nonzero">
                <path d="M56.7217448,60.7229375 L53.8904948,44.1475625 C53.5853698,42.3616875 52.3184948,40.9270625 50.5838698,40.4038125 L42.9473698,38.0996875 C42.7892448,36.2329375 42.0238698,34.4718125 40.7501198,33.0778125 C39.7312448,31.9628125 38.4497448,31.1509375 37.0371198,30.7029375 C37.2788698,30.4346875 37.5029948,30.1673125 37.7086198,29.9058125 C39.5246198,27.5961875 40.4968698,25.0516875 40.7443698,23.3153125 L41.3334948,23.3153125 C42.8657448,23.3153125 44.1123698,22.0688125 44.1123698,20.5364375 L44.1123698,19.1119375 C44.1123698,18.0893125 43.5371198,17.1626875 42.6719948,16.6818125 L42.6719948,13.2563125 C42.6719948,12.7386875 42.2523698,12.3190625 41.7347448,12.3190625 C41.2171198,12.3190625 40.7976198,12.7385625 40.7976198,13.2563125 L40.7976198,17.1018125 C40.4326198,17.1651875 39.9971198,17.2746875 39.5516198,17.4623125 C39.5059948,17.4789375 39.4616198,17.4981875 39.4196198,17.5213125 C39.3189948,17.5671875 39.2182448,17.6155625 39.1178698,17.6700625 L39.1178698,10.1173125 C39.1178698,8.0306875 37.4203698,6.3331875 35.3337448,6.3331875 L32.7468698,6.3331875 C31.8546198,6.3331875 30.9829948,6.6440625 30.2922448,7.2088125 L30.0383698,7.4163125 C29.5721198,7.7975625 28.9836198,8.0075625 28.3812448,8.0075625 C27.7788698,8.0075625 27.1902448,7.7975625 26.7239948,7.4163125 L26.4702448,7.2088125 C25.7794948,6.6441875 24.9078698,6.3331875 24.0156198,6.3331875 L21.4284948,6.3331875 C19.3418698,6.3331875 17.6443698,8.0306875 17.6443698,10.1173125 L17.6443698,17.6700625 C17.5439948,17.6155625 17.4432448,17.5671875 17.3426198,17.5213125 C17.3006198,17.4981875 17.2563698,17.4789375 17.2107448,17.4623125 C16.7652448,17.2746875 16.3296198,17.1651875 15.9647448,17.1018125 L15.9647448,7.3781875 C15.9647448,4.3434375 18.4337448,1.8744375 21.4684948,1.8744375 L35.2936198,1.8744375 C38.3284948,1.8744375 40.7973698,4.3434375 40.7973698,7.3781875 L40.7973698,8.8514375 C40.7973698,9.3690625 41.2169948,9.7886875 41.7344948,9.7886875 C42.2519948,9.7886875 42.6717448,9.3691875 42.6717448,8.8514375 L42.6717448,7.3781875 C42.6717448,3.3099375 39.3618698,6.25000001e-05 35.2936198,6.25000001e-05 L21.4684948,6.25000001e-05 C17.4001198,6.25000001e-05 14.0903698,3.3099375 14.0903698,7.3781875 L14.0903698,16.6819375 C13.2252448,17.1628125 12.6499948,18.0893125 12.6499948,19.1120625 L12.6499948,20.5365625 C12.6499948,22.0689375 13.8966198,23.3154375 15.4288698,23.3154375 L16.0179948,23.3154375 C16.2653698,25.0518125 17.2377448,27.5963125 19.0537448,29.9059375 C19.2591198,30.1671875 19.4831198,30.4343125 19.7246198,30.7023125 C16.4771198,31.7338125 14.1088698,34.6535625 13.8149948,38.0996875 L6.1782448,40.4038125 C4.4436198,40.9270625 3.1766198,42.3616875 2.8716198,44.1475625 L1.7218698,50.8786875 C1.6347448,51.3889375 1.9777448,51.8730625 2.4878698,51.9601875 C2.9978698,52.0475625 3.4822448,51.7044375 3.5694948,51.1941875 L4.7192448,44.4630625 C4.9037448,43.3825625 5.6702448,42.5148125 6.7196198,42.1983125 L13.7827448,40.0671875 L13.7827448,41.9210625 C12.1637448,42.2190625 10.7861198,43.3311875 10.2187448,44.8720625 C10.0681198,45.2810625 9.9744948,45.7093125 9.9404948,46.1448125 L9.2578698,54.9066875 C9.2063698,55.5666875 9.4347448,56.2239375 9.8841198,56.7095625 C10.3334948,57.1953125 10.9708698,57.4740625 11.6327448,57.4740625 L12.8012448,57.4740625 C13.3188698,57.4740625 13.7384948,57.0545625 13.7384948,56.5368125 C13.7384948,56.0190625 13.3188698,55.5996875 12.8012448,55.5996875 L11.6327448,55.5996875 C11.4916198,55.5996875 11.3558698,55.5404375 11.2599948,55.4366875 C11.1642448,55.3331875 11.1156198,55.1931875 11.1266198,55.0525625 L11.8092448,46.2905625 C11.8298698,46.0266875 11.8864948,45.7673125 11.9777448,45.5196875 C12.3724948,44.4478125 13.4384948,43.7219375 14.6306198,43.7135625 L14.7849948,43.7124375 C14.7922448,43.7123125 14.7993698,43.7123125 14.8064948,43.7123125 C15.9651198,43.7123125 16.9907448,44.3693125 17.4233698,45.3906875 C17.5447448,45.6770625 17.6184948,45.9798125 17.6427448,46.2905625 L18.3256198,55.0526875 C18.3364948,55.1931875 18.2878698,55.3331875 18.1921198,55.4368125 C18.0963698,55.5403125 17.9604948,55.5996875 17.8193698,55.5996875 L16.6508698,55.5996875 C16.1332448,55.5996875 15.7136198,56.0191875 15.7136198,56.5368125 C15.7136198,57.0544375 16.1332448,57.4740625 16.6508698,57.4740625 L17.8193698,57.4740625 C18.4812448,57.4740625 19.1187448,57.1954375 19.5679948,56.7095625 C20.0174948,56.2236875 20.2458698,55.5665625 20.1943698,54.9068125 L19.5114948,46.1448125 C19.4714948,45.6320625 19.3496198,45.1321875 19.1492448,44.6593125 C18.5318698,43.2021875 17.2117448,42.1890625 15.6569948,41.9149375 L15.6569948,39.5016875 L18.8787448,38.5295625 C19.1718698,39.1469375 19.7527448,40.4810625 20.9033698,43.3569375 C22.0629948,46.2586875 23.5043698,49.9780625 24.8867448,53.5938125 C24.8966198,53.6241875 24.9079948,53.6538125 24.9207448,53.6828125 C25.8432448,56.0966875 26.7381198,58.4609375 27.5034948,60.5004375 C27.6407448,60.8661875 27.9903698,61.1084375 28.3809948,61.1084375 C28.7716198,61.1084375 29.1212448,60.8661875 29.2584948,60.5004375 C30.0237448,58.4609375 30.9186198,56.0966875 31.8412448,53.6828125 C31.8541198,53.6538125 31.8653698,53.6240625 31.8752448,53.5938125 C33.2566198,49.9801875 34.6972448,46.2631875 35.8563698,43.3623125 C37.0084948,40.4826875 37.5898698,39.1474375 37.8831198,38.5295625 L41.1048698,39.5016875 L41.1048698,45.0373125 C38.8726198,45.4709375 37.1817448,47.4396875 37.1817448,49.7969375 C37.1817448,52.4708125 39.3571198,54.6463125 42.0311198,54.6463125 C44.7051198,54.6463125 46.8804948,52.4709375 46.8804948,49.7969375 C46.8804948,47.4474375 45.2007448,45.4834375 42.9792448,45.0413125 L42.9792448,40.0673125 L50.0424948,42.1984375 C51.0918698,42.5149375 51.8582448,43.3826875 52.0428698,44.4631875 L54.8741198,61.0385625 C54.9211198,61.3134375 54.8479948,61.5821875 54.6681198,61.7953125 C54.4883698,62.0083125 54.2357448,62.1258125 53.9568698,62.1258125 L2.8051198,62.1258125 C2.5262448,62.1258125 2.2737448,62.0084375 2.0938698,61.7953125 C1.9141198,61.5821875 1.8408698,61.3135625 1.8878698,61.0385625 L2.8222448,55.5683125 C2.9093698,55.0580625 2.5663698,54.5739375 2.0562448,54.4868125 C1.5462448,54.3993125 1.0618698,54.7426875 0.974619799,55.2528125 L0.0402447988,60.7230625 C-0.0991302012,61.5395625 0.127244799,62.3709375 0.661244799,63.0040625 C1.1954948,63.6370625 1.9768698,64.0000625 2.8051198,64.0000625 L53.9568698,64.0000625 C54.7851198,64.0000625 55.5666198,63.6370625 56.1007448,63.0039375 C56.6347448,62.3708125 56.8611198,61.5394375 56.7217448,60.7229375 Z M40.8086198,19.0111875 C41.3079948,18.8866875 41.7088698,18.8889375 41.7133698,18.8890625 C41.8748698,18.8911875 42.0318698,18.8534375 42.1713698,18.7803125 C42.2131198,18.8841875 42.2377448,18.9958125 42.2377448,19.1120625 L42.2377448,20.5365625 C42.2377448,21.0353125 41.8319948,21.4410625 41.3332448,21.4410625 L40.8086198,21.4410625 L40.8086198,19.0111875 Z M15.9533698,21.4410625 L15.9533698,21.4410625 L15.4287448,21.4410625 C14.9299948,21.4410625 14.5242448,21.0353125 14.5242448,20.5365625 L14.5242448,19.1120625 C14.5242448,18.9958125 14.5489948,18.8841875 14.5906198,18.7804375 C14.7299948,18.8535625 14.8869948,18.8913125 15.0486198,18.8890625 C15.0557448,18.8903125 15.4554948,18.8880625 15.9533698,19.0116875 L15.9533698,21.4410625 Z M17.8277448,22.4919375 L17.8277448,20.0296875 C18.1117448,20.1148125 18.4223698,20.1031875 18.7091198,19.9835625 C19.2009948,19.7783125 19.5187448,19.3016875 19.5187448,18.7690625 L19.5187448,10.1173125 C19.5187448,9.0643125 20.3754948,8.2075625 21.4284948,8.2075625 L24.0153698,8.2075625 C24.4763698,8.2075625 24.9267448,8.3681875 25.2836198,8.6599375 L25.5373698,8.8674375 C26.3374948,9.5216875 27.3473698,9.8818125 28.3809948,9.8818125 C29.4146198,9.8818125 30.4244948,9.5215625 31.2246198,8.8674375 L31.4783698,8.6599375 C31.8351198,8.3681875 32.2856198,8.2075625 32.7466198,8.2075625 L35.3334948,8.2075625 C36.3864948,8.2075625 37.2432448,9.0643125 37.2432448,10.1173125 L37.2432448,18.7691875 C37.2432448,19.3016875 37.5609948,19.7784375 38.0528698,19.9836875 C38.2171198,20.0521875 38.3891198,20.0854375 38.5596198,20.0854375 C38.6867448,20.0854375 38.8128698,20.0668125 38.9342448,20.0305625 L38.9342448,22.4919375 C38.9342448,23.8603125 37.9882448,26.5175625 36.2349948,28.7473125 C35.6542448,29.4859375 34.9077448,30.2794375 33.9886198,30.9729375 C33.9594948,30.9924375 33.9316198,31.0135625 33.9049948,31.0360625 C32.4811198,32.0888125 30.6502448,32.8953125 28.3809948,32.8953125 C26.1117448,32.8953125 24.2808698,32.0888125 22.8568698,31.0359375 C22.8302448,31.0135625 22.8024948,30.9924375 22.7734948,30.9730625 C21.8543698,30.2794375 21.1078698,29.4859375 20.5269948,28.7473125 C18.7738698,26.5176875 17.8277448,23.8603125 17.8277448,22.4919375 Z M34.5209948,37.6338125 L28.3809948,42.2230625 L22.2409948,37.6338125 C22.8498698,36.8599375 23.1909948,35.8665625 23.1909948,34.9800625 L23.1909948,33.4693125 C24.6348698,34.2458125 26.3577448,34.7698125 28.3809948,34.7698125 C30.4042448,34.7698125 32.1272448,34.2458125 33.5709948,33.4693125 L33.5709948,34.9800625 C33.5709948,35.8665625 33.9121198,36.8599375 34.5209948,37.6338125 Z M20.6768698,36.5876875 C20.1763698,36.3970625 19.6214948,36.3658125 19.0966198,36.5081875 C19.0736198,36.5135625 19.0511198,36.5196875 19.0292448,36.5261875 L15.7913698,37.5031875 C16.3389948,34.8104375 18.5254948,32.6671875 21.3166198,32.2520625 L21.3166198,34.9800625 C21.3166198,35.5680625 21.0541198,36.1759375 20.6768698,36.5876875 Z M23.2204948,44.1111875 C23.2187448,44.1068125 23.2169948,44.1024375 23.2153698,44.0981875 C23.1678698,43.9780625 23.1209948,43.8595625 23.0744948,43.7424375 C23.0661198,43.7211875 23.0577448,43.7000625 23.0493698,43.6790625 C23.0038698,43.5644375 22.9587448,43.4506875 22.9142448,43.3388125 C22.9111198,43.3309375 22.9079948,43.3231875 22.9048698,43.3151875 C22.7659948,42.9660625 22.6321198,42.6311875 22.5033698,42.3103125 C22.4939948,42.2870625 22.4846198,42.2634375 22.4752448,42.2403125 C22.4382448,42.1483125 22.4018698,42.0576875 22.3657448,41.9681875 C22.3524948,41.9353125 22.3393698,41.9028125 22.3262448,41.8703125 C22.2912448,41.7835625 22.2564948,41.6973125 22.2222448,41.6129375 C22.2119948,41.5876875 22.2019948,41.5631875 22.1918698,41.5380625 C22.1297448,41.3848125 22.0689948,41.2354375 22.0097448,41.0898125 C21.9937448,41.0504375 21.9773698,41.0103125 21.9614948,40.9714375 C21.9382448,40.9146875 21.9156198,40.8594375 21.8928698,40.8038125 C21.8683698,40.7438125 21.8438698,40.6843125 21.8198698,40.6258125 C21.8108698,40.6039375 21.8014948,40.5808125 21.7924948,40.5590625 C21.7852448,40.5415625 21.7786198,40.5254375 21.7714948,40.5080625 C21.6632448,40.2450625 21.5603698,39.9971875 21.4627448,39.7640625 C21.4619948,39.7621875 21.4611198,39.7603125 21.4603698,39.7584375 C21.4083698,39.6343125 21.3574948,39.5130625 21.3086198,39.3975625 C21.2832448,39.3376875 21.2582448,39.2788125 21.2337448,39.2210625 L26.5143698,43.1678125 L24.3078698,44.1051875 C24.3039948,44.1068125 24.2999948,44.1084375 24.2961198,44.1101875 L23.3748698,44.5015625 C23.3226198,44.3694375 23.2714948,44.2399375 23.2204948,44.1111875 Z M25.4567448,49.8496875 C25.2716198,49.3693125 25.0851198,48.8861875 24.8982448,48.4035625 C24.6059948,47.6486875 24.3268698,46.9309375 24.0597448,46.2471875 L24.4094948,46.0985625 L25.8384948,47.7596875 L25.4567448,49.8496875 Z M28.3991198,57.4669375 C28.3722448,57.4111875 28.3402448,57.3585625 28.3032448,57.3095625 C27.8797448,56.1901875 27.3422448,54.7738125 26.7473698,53.2154375 L27.6223698,48.4248125 L29.1396198,48.4248125 L30.0146198,53.2154375 C29.3912448,54.8480625 28.8313698,56.3243125 28.3991198,57.4669375 Z M29.4911198,46.5505625 L27.2708698,46.5505625 L26.2202448,45.3293125 L28.3809948,44.4114375 L30.5417448,45.3293125 L29.4911198,46.5505625 Z M31.8637448,48.4035625 C31.6768698,48.8861875 31.4903698,49.3693125 31.3052448,49.8496875 L30.9234948,47.7595625 L32.3524948,46.0984375 L32.7022448,46.2470625 C32.4351198,46.9308125 32.1559948,47.6486875 31.8637448,48.4035625 Z M35.4534948,39.3975625 C35.4071198,39.5070625 35.3588698,39.6219375 35.3097448,39.7391875 C35.3033698,39.7544375 35.2968698,39.7698125 35.2904948,39.7851875 C35.2418698,39.9014375 35.1923698,40.0201875 35.1411198,40.1438125 C35.1377448,40.1519375 35.1342448,40.1605625 35.1308698,40.1688125 C35.0866198,40.2754375 35.0412448,40.3854375 34.9951198,40.4975625 C34.9864948,40.5185625 34.9783698,40.5379375 34.9697448,40.5590625 C34.9594948,40.5841875 34.9484948,40.6108125 34.9381198,40.6361875 C34.9176198,40.6861875 34.8967448,40.7371875 34.8757448,40.7881875 C34.8499948,40.8510625 34.8243698,40.9136875 34.7979948,40.9780625 C34.7896198,40.9985625 34.7809948,41.0199375 34.7724948,41.0405625 C34.7072448,41.2004375 34.6402448,41.3651875 34.5717448,41.5344375 C34.5609948,41.5609375 34.5503698,41.5869375 34.5396198,41.6138125 C34.5057448,41.6974375 34.4712448,41.7828125 34.4366198,41.8686875 C34.4231198,41.9023125 34.4094948,41.9358125 34.3958698,41.9698125 C34.3601198,42.0584375 34.3239948,42.1481875 34.2874948,42.2391875 C34.2772448,42.2645625 34.2668698,42.2905625 34.2566198,42.3160625 C34.1294948,42.6325625 33.9976198,42.9626875 33.8607448,43.3066875 C33.8562448,43.3180625 33.8517448,43.3291875 33.8472448,43.3406875 C33.8029948,43.4518125 33.7582448,43.5648125 33.7129948,43.6786875 C33.7046198,43.6999375 33.6961198,43.7211875 33.6876198,43.7425625 C33.6408698,43.8603125 33.5937448,43.9793125 33.5459948,44.1001875 C33.5451198,44.1024375 33.5442448,44.1046875 33.5433698,44.1068125 C33.4918698,44.2370625 33.4401198,44.3680625 33.3873698,44.5018125 L32.4652448,44.1100625 C32.4619948,44.1086875 32.4587448,44.1073125 32.4556198,44.1059375 L30.2478698,43.1680625 L35.5284948,39.2213125 C35.5037448,39.2788125 35.4787448,39.3375625 35.4534948,39.3975625 Z M37.7327448,36.5263125 C37.7326198,36.5263125 37.7323698,36.5261875 37.7322448,36.5261875 C37.7314948,36.5259375 37.7306198,36.5258125 37.7298698,36.5254375 C37.1861198,36.3623125 36.6061198,36.3893125 36.0852448,36.5876875 C35.7078698,36.1759375 35.4454948,35.5680625 35.4454948,34.9800625 L35.4454948,32.2506875 C38.2541198,32.6646875 40.4339948,34.7878125 40.9744948,37.5043125 L37.7327448,36.5263125 Z M45.0061198,49.7969375 C45.0061198,51.4374375 43.6714948,52.7719375 42.0311198,52.7719375 C40.3907448,52.7719375 39.0561198,51.4374375 39.0561198,49.7969375 C39.0561198,48.1564375 40.3907448,46.8219375 42.0311198,46.8219375 C43.6714948,46.8219375 45.0061198,48.1564375 45.0061198,49.7969375 Z" id="Shape"></path>
                <path d="M77.5712761,0.181901042 L78.0015296,0.2619375 L83.3650296,1.3511875 C84.0356546,1.4873125 84.6092796,1.9094375 84.9389046,2.5090625 C85.2385637,3.05428977 85.306198,3.69114928 85.1322282,4.28271389 L85.0727796,4.4586875 L84.4292796,6.1403125 C85.8811546,7.1151875 87.0372796,8.4488125 87.7976546,10.0374375 C88.0205296,10.5029375 87.8237796,11.0610625 87.3581546,11.2838125 C87.2280296,11.3460625 87.0906546,11.3756875 86.9554046,11.3756875 C86.6067796,11.3756875 86.2724046,11.1798125 86.1117796,10.8444375 C85.6099614,9.79591477 84.8943002,8.88499535 84.0096872,8.15638247 L83.7392796,7.9433125 L83.7229046,7.9860625 C83.2771171,9.15064375 82.1744224,9.95219437 80.9399627,10.029438 L80.7440296,10.0355625 L70.0777796,10.0355625 C68.8307858,10.0355625 67.6880308,9.29224094 67.1746568,8.1668742 L67.0989046,7.9860625 L67.0281546,7.8011875 C65.1638369,9.11733854 63.9661648,11.1553542 63.7346046,13.4549232 L63.7099046,13.7563125 L63.4216546,18.3098125 C63.5376546,18.2769792 63.6565435,18.2511458 63.7779509,18.2331644 L63.9619046,18.2121875 L63.9619671,17.963125 C64.0232796,14.2110625 66.8259046,12.1140625 68.4722796,11.4651875 C69.4194046,11.0918125 70.1146546,11.1254375 70.5385296,11.5650625 C72.5780296,13.6805625 75.3709046,16.5775625 85.0716546,17.4505625 C85.5539421,17.4939875 85.9712271,17.7313062 86.2500628,18.0821465 L86.3377796,18.2031875 L86.3899046,18.2031875 C86.5891233,18.2031875 86.7834202,18.2244922 86.9709495,18.2642539 L87.1561546,18.3100625 L86.9356546,14.8261875 C86.9030296,14.3110625 87.2941546,13.8670625 87.8092796,13.8344375 C88.2863332,13.8044911 88.704323,14.139382 88.7877232,14.5998143 L88.8009046,14.7081875 L89.1736546,20.5964375 L89.1973577,20.8054531 L89.1973577,20.8054531 L89.2054046,21.0186875 L89.2054046,21.0974375 L89.5381546,26.3550625 C89.6435296,28.0185625 89.0731546,29.6039375 87.9324046,30.8191875 C86.8587575,31.9629522 85.4259132,32.6230629 83.8713738,32.6967654 L83.5785296,32.7036875 L82.3776546,32.7036875 L82.301639,32.770625 L82.301639,32.770625 L82.2289046,32.8338125 L82.1340296,32.9154375 L82.1340296,35.9759375 C82.1340296,36.5903125 82.4517796,37.2538125 82.8875296,37.6418125 C83.3017518,37.4157014 83.7911345,37.3344792 84.2745584,37.4337892 L84.4554046,37.4795625 L96.7155296,41.1786875 C98.3266709,41.6647201 99.5224322,42.9603548 99.8826302,44.5898359 L99.9265296,44.8140625 L102.657655,60.8035625 C102.79378,61.5999375 102.572905,62.4110625 102.05203,63.0280625 C101.574332,63.5941042 100.894022,63.9389427 100.161588,63.992485 L99.9606546,63.9998125 L59.0209948,63.999 L58.7109948,62.13 L92.2747796,62.1305625 L90.8011546,53.5038125 C90.7142796,52.9950625 91.0562796,52.5121875 91.5650296,52.4253125 C92.0377885,52.3442946 92.4875902,52.6337187 92.6189925,53.0828121 L92.6435296,53.1891875 L94.1709046,62.1306875 L99.9601546,62.1306875 C100.31078,62.1306875 100.52578,61.9376875 100.622905,61.8226875 C100.707889,61.7220625 100.836418,61.5222891 100.827614,61.2423762 L100.814905,61.1175625 L98.0837796,45.1281875 C97.9187796,44.1619766 97.2657669,43.373854 96.3598833,43.0302726 L96.1754046,42.9675625 L83.9151546,39.2683125 C83.8508546,39.2485125 83.7832746,39.2683125 83.7394866,39.3152965 L83.7115296,39.3554375 L77.8576546,50.9205625 C77.5802796,51.4684375 77.1475296,51.8995625 76.6276546,52.1719375 C76.2232796,52.3838125 75.7662796,52.4995625 75.2886546,52.4995625 C74.5381546,52.4995625 73.8384046,52.2136875 73.3141546,51.7184375 C73.1235546,51.5384375 72.9560746,51.3306775 72.8178586,51.0989335 L72.7197796,50.9206875 L66.8661546,39.3559375 C66.8356546,39.2959375 66.7749146,39.2604175 66.7107506,39.2609615 L66.6624046,39.2683125 L55.3589948,42.679 L54.9579948,40.848 L66.1225296,37.4790625 C66.6630296,37.3158125 67.2242796,37.3870625 67.6902796,37.6414375 C68.0864159,37.2888239 68.3850316,36.7083177 68.4360516,36.1440962 L68.4437796,35.9755625 L68.4437796,32.9150625 C68.4121546,32.8878125 68.3804046,32.8605625 68.3489046,32.8334375 L68.2761702,32.7702031 L68.2761702,32.7702031 L68.2001546,32.7033125 L66.9992796,32.7033125 C65.3324046,32.7033125 63.7861546,32.0340625 62.6454046,30.8188125 C61.5717575,29.6750478 61.0033561,28.2033108 61.0280523,26.6473564 L61.0396546,26.3546875 L61.3724046,21.0970625 L61.3724046,21.0183125 L61.3805765,20.8241562 L61.3805765,20.8241562 L61.4017796,20.6335625 L61.8446546,13.6380625 C62.0375167,10.590528 63.595387,7.88057499 66.0741898,6.18854979 L66.3432796,6.0111875 L65.7490296,4.4585625 C65.5042796,3.8193125 65.5531546,3.1088125 65.8827796,2.5089375 C66.1824387,1.96359659 66.683854,1.56525981 67.2763943,1.39506917 L67.4567796,1.3509375 L72.8201546,0.2619375 C74.3960192,-0.0582083333 75.9920504,-0.0848871528 77.5712761,0.181901042 Z M59.0126546,52.4253125 C59.4850653,52.5059821 59.8136967,52.9281008 59.7886768,53.3953256 L59.7765296,53.5038125 L58.5089948,60.916 L57.5749948,55.29 L57.9341546,53.1891875 C58.0210296,52.6803125 58.5041546,52.3383125 59.0126546,52.4253125 Z M80.0715296,42.4091875 L70.5065296,42.4091875 L74.3875296,50.0770625 C74.5631546,50.4238125 74.9001546,50.6309375 75.2889046,50.6309375 C75.4706046,50.6309375 75.6401446,50.5846175 75.7876686,50.5006815 L75.8940296,50.4308125 L75.9304046,50.4046875 C75.9852796,50.3593125 76.0340296,50.3058125 76.0789046,50.2484375 C76.0915296,50.2321875 76.1054046,50.2174375 76.1171546,50.2003125 C76.1235296,50.1909375 76.1285296,50.1801875 76.1347796,50.1705625 L76.1635608,50.1247344 L76.1635608,50.1247344 L76.1902796,50.0769375 L76.3075296,49.8453125 L80.0715296,42.4091875 Z M80.2650296,34.3634375 C79.1096199,35.1063611 77.6799277,35.6919626 75.6617301,35.7755864 L75.2994046,35.7850625 L75.2786546,35.7850625 C73.1901338,35.7616875 71.7086021,35.216061 70.5198366,34.4927331 L70.3130296,34.3633125 L70.3130296,35.9758125 C70.3130296,37.0996406 69.7910691,38.2268745 69.0002114,38.9703491 L68.8385296,39.1138125 L69.5604046,40.5400625 L81.0175296,40.5400625 L81.7395296,39.1139375 C80.9138265,38.4233516 80.3403694,37.3233052 80.2719127,36.2006544 L80.2650296,35.9759375 L80.2650296,34.3634375 Z M69.4321546,13.1083125 C68.6053667,13.3307367 66.048757,14.7273759 65.8435083,17.6960104 L65.8312796,17.9789375 L65.8312796,19.1378125 C65.8312796,19.6170714 65.4705379,20.0120459 65.0057648,20.0660256 L64.8967796,20.0723125 L64.1882796,20.0723125 C63.7249046,20.0723125 63.3390296,20.4071875 63.2581546,20.8474375 C63.2561546,20.8618125 63.2541546,20.8761875 63.2515296,20.8904375 L63.2444983,20.954 L63.2444983,20.954 L63.2417796,21.0186875 L63.2417796,23.1030625 C63.2417796,23.5876607 63.6078025,23.9882978 64.0779339,24.0430593 L64.1881546,24.0494375 L64.8995296,24.0494375 C65.4077796,24.0494375 65.8229046,24.4558125 65.8337796,24.9639375 C65.8781546,27.0295625 67.2744046,29.4420625 69.5686546,31.4174375 C71.2969046,32.9055625 72.6292796,33.8838125 75.2890296,33.9159375 C77.9489046,33.8838125 79.2812796,32.9056875 81.0094046,31.4174375 C83.3036546,29.4419375 84.6999046,27.0294375 84.7445296,24.9639375 C84.7546278,24.4919911 85.1131807,24.1079936 85.5713845,24.0555447 L85.6787796,24.0494375 L86.3901546,24.0494375 C86.8747528,24.0494375 87.2753899,23.6833068 87.3301513,23.2132601 L87.3365296,23.1030625 L87.3365296,21.0186875 C87.3365296,20.9750625 87.3325296,20.9324375 87.3267796,20.8904375 C87.3241546,20.8763125 87.3221546,20.8619375 87.3201546,20.8474375 C87.2459046,20.443875 86.9154749,20.1288568 86.5040984,20.0791562 L86.3900296,20.0723125 L85.6815296,20.0723125 C85.2204046,20.0723125 84.8372796,19.7383125 84.7609046,19.2991875 C75.5410296,18.4464375 72.1727796,15.9040625 69.4321546,13.1083125 Z M87.6197796,25.6334375 C87.2889046,25.7949375 86.9227796,25.8950625 86.5352796,25.9148125 C86.2505296,27.8336875 85.2416546,29.5144375 84.2141546,30.7864375 C85.1131546,30.6485625 85.9332796,30.2179375 86.5696546,29.5399375 C87.3011546,28.7607208 87.691179,27.7601331 87.6811893,26.7009848 L87.6729046,26.4731875 L87.6197796,25.6334375 Z M62.9581546,25.6335625 L62.9050296,26.4731875 C62.8327796,27.6159375 63.2245296,28.7050625 64.0082796,29.5399375 C64.6446546,30.2179375 65.4647796,30.6485625 66.3637796,30.7865625 C65.3362796,29.5144375 64.3272796,27.8336875 64.0426546,25.9149375 C63.6551546,25.8950625 63.2890296,25.7950625 62.9581546,25.6335625 Z M75.4110296,1.8696875 C74.8179296,1.8696875 74.2249896,1.9175275 73.6345776,2.0131435 L73.1922796,2.0938125 L67.8289046,3.1829375 C67.6492796,3.2194375 67.5589046,3.3405625 67.5210296,3.4094375 C67.4894671,3.4669375 67.4467935,3.57461111 67.4713508,3.70793576 L67.4947796,3.7908125 L68.8446546,7.3180625 C69.0227171,7.78327083 69.4540183,8.10857292 69.9432024,8.15955932 L70.0779046,8.1665625 L80.7441546,8.1665625 C81.2422483,8.1665625 81.7002188,7.88002778 81.9227102,7.44136777 L81.9774046,7.3180625 L83.3272796,3.7908125 C83.3927796,3.6195625 83.3389046,3.4784375 83.3010296,3.4094375 C83.2631546,3.3405625 83.1727796,3.2194375 82.9932796,3.1830625 L82.9931546,3.1829375 L77.6296546,2.0938125 C76.8936546,1.9444375 76.1521546,1.8696875 75.4110296,1.8696875 Z M75.2889046,2.3783125 C75.7681635,2.3783125 76.163138,2.73905421 76.2171177,3.20382731 L76.2234046,3.3128125 L76.2234046,4.0241875 L76.9346546,4.0241875 C77.4507796,4.0241875 77.8691546,4.4425625 77.8691546,4.9586875 C77.8691546,5.43794643 77.5084129,5.83292092 77.0436398,5.88690065 L76.9346546,5.8931875 L76.2234046,5.8931875 L76.2234046,6.6044375 C76.2234046,7.1205625 75.8050296,7.5389375 75.2889046,7.5389375 C74.8096457,7.5389375 74.4146712,7.17819579 74.3606914,6.71342269 L74.3544046,6.6044375 L74.3544046,5.8931875 L73.6431546,5.8931875 C73.1270296,5.8931875 72.7086546,5.4748125 72.7086546,4.9586875 C72.7086546,4.47942857 73.0693963,4.08445408 73.5341694,4.03047435 L73.6431546,4.0241875 L74.3544046,4.0241875 L74.3544046,3.3128125 C74.3544046,2.7966875 74.7727796,2.3783125 75.2889046,2.3783125 Z" id="Combined-Shape"></path>
            </g>
        </g>
    </g>
</svg>